<?xml version="1.0" encoding="UTF-8"?>
<!DOCTYPE svg PUBLIC "-//W3C//DTD SVG 1.1//EN" "http://www.w3.org/Graphics/SVG/1.1/DTD/svg11.dtd">
<svg version="1.1" xmlns="http://www.w3.org/2000/svg" xmlns:xlink="http://www.w3.org/1999/xlink" x="0" y="0" width="16" height="16" viewBox="0, 0, 16, 16">
  <g id="Background">
    <rect x="0" y="0" width="16" height="16" fill="#000000" fill-opacity="0"/>
  </g>
  <g id="Layer_3">
    <path d="M5.752,0.966 L6.336,2.876 L8.707,10.631 L10.618,5.279 L11.223,3.587 L11.886,5.252 L12.963,7.958 L15.314,7.958 C15.693,7.958 16,8.294 16,8.708 C16,9.122 15.693,9.458 15.314,9.458 L12.065,9.458 L11.886,9.007 L11.292,7.516 L9.296,13.106 L8.607,15.034 L8.007,13.071 L5.619,5.263 L4.206,9.024 L4.031,9.489 L0.686,9.489 C0.307,9.489 -0,9.153 0,8.739 C-0,8.325 0.307,7.989 0.686,7.989 L3.112,7.989 L5.051,2.829 L5.752,0.966 z" fill="#000000"/>
  </g>
</svg>
