<?xml version="1.0" encoding="UTF-8"?>
<!DOCTYPE svg PUBLIC "-//W3C//DTD SVG 1.1//EN" "http://www.w3.org/Graphics/SVG/1.1/DTD/svg11.dtd">
<svg version="1.1" xmlns="http://www.w3.org/2000/svg" xmlns:xlink="http://www.w3.org/1999/xlink" x="0" y="0" width="16" height="16" viewBox="0, 0, 16, 16">
  <g id="Background">
    <rect x="0" y="0" width="16" height="16" fill="#000000" fill-opacity="0"/>
  </g>
  <g id="Background"/>
  <g id="Layer_1">
    <path d="M10.667,8 Q10.667,6.896 9.885,6.115 Q9.104,5.333 8,5.333 Q6.896,5.333 6.115,6.115 Q5.333,6.896 5.333,8 Q5.333,9.104 6.115,9.885 Q6.896,10.667 8,10.667 Q9.104,10.667 9.885,9.885 Q10.667,9.104 10.667,8 z M16,6.865 L16,9.177 Q16,9.302 15.917,9.417 Q15.833,9.531 15.708,9.552 L13.781,9.844 Q13.583,10.406 13.375,10.792 Q13.74,11.312 14.49,12.229 Q14.594,12.354 14.594,12.49 Q14.594,12.625 14.5,12.729 Q14.219,13.115 13.469,13.854 Q12.719,14.594 12.49,14.594 Q12.365,14.594 12.219,14.5 L10.781,13.375 Q10.323,13.615 9.833,13.771 Q9.667,15.188 9.531,15.708 Q9.458,16 9.156,16 L6.844,16 Q6.698,16 6.589,15.911 Q6.479,15.823 6.469,15.688 L6.177,13.771 Q5.667,13.604 5.24,13.385 L3.771,14.5 Q3.667,14.594 3.51,14.594 Q3.365,14.594 3.25,14.479 Q1.938,13.292 1.531,12.729 Q1.458,12.625 1.458,12.49 Q1.458,12.365 1.542,12.25 Q1.698,12.031 2.073,11.557 Q2.448,11.083 2.635,10.823 Q2.354,10.302 2.208,9.792 L0.302,9.51 Q0.167,9.49 0.083,9.38 Q0,9.271 0,9.135 L0,6.823 Q0,6.698 0.083,6.583 Q0.167,6.469 0.281,6.448 L2.219,6.156 Q2.365,5.677 2.625,5.198 Q2.208,4.604 1.51,3.76 Q1.406,3.635 1.406,3.51 Q1.406,3.406 1.5,3.271 Q1.771,2.896 2.526,2.151 Q3.281,1.406 3.51,1.406 Q3.646,1.406 3.781,1.51 L5.219,2.625 Q5.677,2.385 6.167,2.229 Q6.333,0.812 6.469,0.292 Q6.542,0 6.844,0 L9.156,0 Q9.302,0 9.411,0.089 Q9.521,0.177 9.531,0.312 L9.823,2.229 Q10.333,2.396 10.76,2.615 L12.24,1.5 Q12.333,1.406 12.49,1.406 Q12.625,1.406 12.75,1.51 Q14.094,2.75 14.469,3.281 Q14.542,3.365 14.542,3.51 Q14.542,3.635 14.458,3.75 Q14.302,3.969 13.927,4.443 Q13.552,4.917 13.365,5.177 Q13.635,5.698 13.792,6.198 L15.698,6.49 Q15.833,6.51 15.917,6.62 Q16,6.729 16,6.865 z" fill="#000000"/>
  </g>
</svg>
