<?xml version="1.0" encoding="UTF-8"?>
<!DOCTYPE svg PUBLIC "-//W3C//DTD SVG 1.1//EN" "http://www.w3.org/Graphics/SVG/1.1/DTD/svg11.dtd">
<svg version="1.1" xmlns="http://www.w3.org/2000/svg" xmlns:xlink="http://www.w3.org/1999/xlink" x="0" y="0" width="16" height="16" viewBox="0, 0, 16, 16">
  <g id="Background">
    <rect x="0" y="0" width="16" height="16" fill="#000000" fill-opacity="0"/>
  </g>
  <g id="App">
    <g>
      <path d="M14.747,10.319 C14.747,10.867 14.302,11.313 13.753,11.313 C13.205,11.313 12.76,10.867 12.76,10.319 L12.76,6.225 C12.76,5.677 13.205,5.232 13.753,5.232 C14.302,5.232 14.747,5.677 14.747,6.225 L14.747,10.319 z" fill="#000000" id="Shape"/>
      <path d="M12.421,5.382 L12.421,11.773 C12.421,12.361 11.944,12.839 11.355,12.839 L10.653,12.839 L10.653,15.007 C10.653,15.555 10.208,16 9.659,16 C9.111,16 8.666,15.555 8.666,15.007 L8.666,12.839 L7.358,12.839 L7.358,15.007 C7.358,15.555 6.913,16 6.365,16 C5.816,16 5.372,15.555 5.372,15.007 L5.372,12.839 L4.669,12.839 C4.08,12.839 3.603,12.361 3.603,11.773 L3.603,5.382 L12.421,5.382 z" fill="#000000" id="Shape"/>
      <path d="M3.24,10.307 C3.24,10.856 2.795,11.299 2.247,11.299 C1.698,11.299 1.253,10.856 1.253,10.307 L1.253,6.213 C1.253,5.665 1.698,5.22 2.247,5.22 C2.795,5.22 3.24,5.665 3.24,6.213 L3.24,10.307 z" fill="#000000" id="Shape"/>
      <path d="M10.736,0 C10.801,0.006 10.775,-0.002 10.819,0.017 C10.889,0.055 10.916,0.143 10.877,0.214 L10.178,1.504 C11.558,2.179 12.341,3.527 12.421,5.033 L3.603,5.033 C3.635,3.55 4.5,2.155 5.851,1.511 L5.147,0.214 C5.109,0.143 5.135,0.055 5.205,0.017 C5.25,-0.002 5.223,0.006 5.289,0 C5.341,0.007 5.374,0.034 5.403,0.075 L6.113,1.386 C6.707,1.109 7.362,0.997 8.012,0.969 C8.66,0.987 9.327,1.094 9.916,1.378 L10.622,0.075 C10.647,0.028 10.688,0.014 10.736,0 z M10.047,2.683 C9.844,2.683 9.679,2.848 9.679,3.051 C9.679,3.255 9.844,3.42 10.047,3.42 C10.251,3.42 10.415,3.255 10.415,3.051 C10.415,2.848 10.251,2.683 10.047,2.683 z M5.977,2.683 C5.774,2.683 5.609,2.848 5.609,3.051 C5.609,3.255 5.774,3.42 5.977,3.42 C6.18,3.42 6.345,3.255 6.345,3.051 C6.345,2.848 6.18,2.683 5.977,2.683 z" fill="#000000" id="Shape"/>
    </g>
  </g>
</svg>
