<?xml version="1.0" encoding="UTF-8"?>
<!DOCTYPE svg PUBLIC "-//W3C//DTD SVG 1.1//EN" "http://www.w3.org/Graphics/SVG/1.1/DTD/svg11.dtd">
<svg version="1.1" xmlns="http://www.w3.org/2000/svg" xmlns:xlink="http://www.w3.org/1999/xlink" x="0" y="0" width="16" height="16" viewBox="0, 0, 16, 16">
  <g id="Background">
    <rect x="0" y="0" width="16" height="16" fill="#000000" fill-opacity="0"/>
  </g>
  <g id="Layer_2">
    <path d="M13.667,1 C14.955,1 16,2.045 16,3.333 L16,9.058 L15,8.058 L15,5 L1,5 L1,12.667 C1,13.403 1.597,14 2.333,14 L7.519,14 C7.891,14.884 7.65,14.592 8.058,15 L2.333,15 C1.045,15 0,13.955 0,12.667 L0,3.333 C0,2.045 1.045,1 2.333,1 L13.667,1 z M4.5,2 C3.948,2 3.5,2.448 3.5,3 C3.5,3.552 3.948,4 4.5,4 C5.052,4 5.5,3.552 5.5,3 C5.5,2.448 5.052,2 4.5,2 z M2,2 C1.448,2 1,2.448 1,3 C1,3.552 1.448,4 2,4 C2.552,4 3,3.552 3,3 C3,2.448 2.552,2 2,2 z" fill="#000000"/>
    <path d="M9.172,9.172 C10.734,7.609 13.267,7.609 14.828,9.172 C16.391,10.734 16.391,13.267 14.828,14.828 C13.267,16.391 10.734,16.391 9.172,14.828 C7.609,13.267 7.609,10.734 9.172,9.172 z M11.571,9 L11.571,11.571 L9,11.571 L9,12.429 L11.571,12.429 L11.571,15 L12.429,15 L12.429,12.429 L15,12.429 L15,11.571 L12.429,11.571 L12.429,9 L11.571,9 z" fill="#000000"/>
  </g>
</svg>
