<?xml version="1.0" encoding="UTF-8"?>
<!DOCTYPE svg PUBLIC "-//W3C//DTD SVG 1.1//EN" "http://www.w3.org/Graphics/SVG/1.1/DTD/svg11.dtd">
<svg version="1.1" xmlns="http://www.w3.org/2000/svg" xmlns:xlink="http://www.w3.org/1999/xlink" x="0" y="0" width="16" height="16" viewBox="0, 0, 16, 16">
  <g id="Background">
    <rect x="0" y="0" width="16" height="16" fill="#000000" fill-opacity="0"/>
  </g>
  <g id="App">
    <path d="M12.746,8.464 C12.769,10.886 14.87,11.692 14.894,11.702 C14.875,11.759 14.558,12.85 13.787,13.977 C13.119,14.952 12.427,15.923 11.337,15.943 C10.266,15.963 9.921,15.308 8.697,15.308 C7.473,15.308 7.089,15.923 6.075,15.963 C5.022,16.003 4.222,14.909 3.549,13.938 C2.175,11.952 1.125,8.325 2.534,5.877 C3.235,4.661 4.487,3.891 5.846,3.871 C6.879,3.852 7.854,4.567 8.486,4.567 C9.118,4.567 10.303,3.707 11.549,3.833 C12.07,3.855 13.535,4.044 14.475,5.42 C14.399,5.467 12.729,6.44 12.746,8.464 M10.733,2.519 C11.291,1.843 11.667,0.901 11.565,-0.036 C10.759,-0.003 9.786,0.501 9.209,1.177 C8.691,1.775 8.237,2.733 8.359,3.652 C9.257,3.721 10.174,3.196 10.733,2.519" fill="#000000"/>
  </g>
</svg>
