<?xml version="1.0" encoding="UTF-8"?>
<!DOCTYPE svg PUBLIC "-//W3C//DTD SVG 1.1//EN" "http://www.w3.org/Graphics/SVG/1.1/DTD/svg11.dtd">
<svg version="1.1" xmlns="http://www.w3.org/2000/svg" xmlns:xlink="http://www.w3.org/1999/xlink" x="0" y="0" width="16" height="16" viewBox="0, 0, 16, 16">
  <g id="Background">
    <rect x="0" y="0" width="16" height="16" fill="#000000" fill-opacity="0"/>
  </g>
  <g id="Layer_1">
    <path d="M6.769,2.154 Q7.019,2.154 7.202,2.337 Q7.385,2.519 7.385,2.769 L7.385,10.319 C6.971,11.303 7.126,10.75 7,12 C7.12,13.187 6.971,12.696 7.311,13.505 L7.202,13.663 Q7.019,13.846 6.769,13.846 Q6.519,13.846 6.337,13.663 L3.135,10.462 L0.615,10.462 Q0.365,10.462 0.183,10.279 Q-0,10.096 -0,9.846 L-0,6.154 Q-0,5.904 0.183,5.721 Q0.365,5.538 0.615,5.538 L3.135,5.538 L6.337,2.337 Q6.519,2.154 6.769,2.154 z" fill="#000000"/>
    <path d="M11.279,1.163 Q11.404,1.163 11.529,1.212 Q13.558,2.087 14.779,3.937 Q16,5.788 16,8 L15.93,8.989 C14.784,7.842 15.289,8.061 14.75,7.835 C14.548,6.094 14.75,6.968 14.106,5.221 Q13.442,3.913 12.26,3.038 Q11.913,2.788 11.471,2.548 Q11.404,2.51 11.255,2.447 Q11.106,2.385 11.038,2.346 Q10.663,2.125 10.663,1.779 Q10.663,1.529 10.846,1.346 Q11.029,1.163 11.279,1.163 z" fill="#000000"/>
    <path d="M9.346,5.692 Q9.49,5.692 9.587,5.74 Q10.26,6 10.668,6.635 L10.903,7.139 L9.786,7.609 L9.731,7.452 Q9.615,7.231 9.452,7.111 Q9.288,6.99 9.125,6.889 Q8.962,6.788 8.846,6.649 Q8.731,6.51 8.731,6.308 Q8.731,6.048 8.913,5.87 Q9.096,5.692 9.346,5.692 z" fill="#000000"/>
    <path d="M10.308,3.423 Q10.433,3.423 10.558,3.471 Q11.904,4.038 12.721,5.284 C13.224,6.115 13.148,6.156 13.489,7.304 C12.747,6.992 13.181,7.119 12.162,7.016 L11.909,6.332 Q11.51,5.548 10.798,5.029 Q10.606,4.885 10.067,4.606 Q9.692,4.413 9.692,4.038 Q9.692,3.788 9.875,3.606 Q10.058,3.423 10.308,3.423 z" fill="#000000"/>
    <path d="M9.172,9.172 C10.734,7.609 13.267,7.609 14.828,9.172 C16.391,10.734 16.391,13.267 14.828,14.828 C13.267,16.391 10.734,16.391 9.172,14.828 C7.609,13.267 7.609,10.734 9.172,9.172 z M11.571,9 L11.571,11.571 L9,11.571 L9,12.429 L11.571,12.429 L11.571,15 L12.429,15 L12.429,12.429 L15,12.429 L15,11.571 L12.429,11.571 L12.429,9 L11.571,9 z" fill="#000000"/>
  </g>
</svg>
