<?xml version="1.0" encoding="UTF-8"?>
<!DOCTYPE svg PUBLIC "-//W3C//DTD SVG 1.1//EN" "http://www.w3.org/Graphics/SVG/1.1/DTD/svg11.dtd">
<svg version="1.1" xmlns="http://www.w3.org/2000/svg" xmlns:xlink="http://www.w3.org/1999/xlink" x="0" y="0" width="16" height="16" viewBox="0, 0, 16, 16">
  <g id="Background">
    <rect x="0" y="0" width="16" height="16" fill="#000000" fill-opacity="0"/>
  </g>
  <g id="Layer_1">
    <path d="M0,0.5 C0,0.223 0.223,0 0.5,0 L11.5,0 C11.777,0 12,0.223 12,0.5 L12,2.204 C14.209,2.204 16,3.995 16,6.204 C16,8.414 14.209,10.205 12,10.205 L12,13.818 C12,15.023 11.023,16 9.818,16 L2.182,16 C0.977,16 0,15.023 0,13.818 L0,0.5 z M12,4.204 L12,8.204 C13.105,8.204 14,7.309 14,6.204 C14,5.1 13.105,4.204 12,4.204 z" fill="#000000"/>
  </g>
</svg>
