<?xml version="1.0" encoding="UTF-8"?>
<!DOCTYPE svg PUBLIC "-//W3C//DTD SVG 1.1//EN" "http://www.w3.org/Graphics/SVG/1.1/DTD/svg11.dtd">
<svg version="1.1" xmlns="http://www.w3.org/2000/svg" xmlns:xlink="http://www.w3.org/1999/xlink" x="0" y="0" width="16" height="16" viewBox="0, 0, 16, 16">
  <g id="Background">
    <rect x="0" y="0" width="16" height="16" fill="#000000" fill-opacity="0"/>
  </g>
  <g id="Layer_1">
    <path d="M5.598,0.017 L6.03,0.148 L13.608,3.984 C13.791,4.078 13.904,4.267 13.904,4.59 L13.904,7.479 C12.764,6.999 13.33,7.134 12.22,7.022 L12.22,5.272 C12.22,5.094 12.158,4.925 11.956,4.821 C11.754,4.718 5.44,1.398 5.44,1.398 C5.338,1.36 4.893,1.08 4.3,1.385 C3.737,1.675 3.43,1.99 3.352,2.138 L10.24,5.912 C10.423,6.008 10.536,6.156 10.536,6.347 L10.536,7.294 C8.29,7.969 7.225,9.766 7,12 C7.081,13 7.172,14.114 7.944,14.886 C6.178,13.809 4.421,12.719 2.653,11.646 C2.451,11.525 2.214,11.276 2.209,11.092 L2.115,2.43 C2.115,2.263 2.096,1.969 2.358,1.561 C3.225,0.433 4.257,0.148 5.598,0.017 z" fill="#000000"/>
    <path d="M9.172,9.172 C10.734,7.609 13.267,7.609 14.828,9.172 C16.391,10.734 16.391,13.267 14.828,14.828 C13.267,16.391 10.734,16.391 9.172,14.828 C7.609,13.267 7.609,10.734 9.172,9.172 z M11.571,9 L11.571,11.571 L9,11.571 L9,12.429 L11.571,12.429 L11.571,15 L12.429,15 L12.429,12.429 L15,12.429 L15,11.571 L12.429,11.571 L12.429,9 L11.571,9 z" fill="#000000"/>
  </g>
</svg>
