<?xml version="1.0" encoding="UTF-8"?>
<!DOCTYPE svg PUBLIC "-//W3C//DTD SVG 1.1//EN" "http://www.w3.org/Graphics/SVG/1.1/DTD/svg11.dtd">
<svg version="1.1" xmlns="http://www.w3.org/2000/svg" xmlns:xlink="http://www.w3.org/1999/xlink" x="0" y="0" width="22" height="16" viewBox="0, 0, 22, 16">
  <g id="Background">
    <rect x="0" y="0" width="22" height="16" fill="#000000" fill-opacity="0"/>
  </g>
  <g id="Background"/>
  <g id="Layer_3">
    <path d="M2.312,11.333 L19.688,11.333 C20.965,11.333 22,12.378 22,13.667 L22,13.667 C22,14.955 20.965,16 19.688,16 L2.312,16 C1.035,16 0,14.955 0,13.667 L0,13.667 C0,12.378 1.035,11.333 2.312,11.333 z" fill="#000000"/>
    <path d="M2.312,0 L5,0 C6.277,0 7.312,1.045 7.312,2.333 L7.312,2.333 C7.312,3.622 6.277,4.667 5,4.667 L2.312,4.667 C1.035,4.667 0,3.622 0,2.333 L0,2.333 C0,1.045 1.035,0 2.312,0 z" fill="#000000"/>
    <path d="M2.312,5.667 L12.297,5.667 C13.574,5.667 14.609,6.711 14.609,8 L14.609,8 C14.609,9.289 13.574,10.333 12.297,10.333 L2.312,10.333 C1.035,10.333 -0,9.289 -0,8 L-0,8 C-0,6.711 1.035,5.667 2.312,5.667 z" fill="#000000"/>
  </g>
</svg>
