<?xml version="1.0" encoding="UTF-8"?>
<!DOCTYPE svg PUBLIC "-//W3C//DTD SVG 1.1//EN" "http://www.w3.org/Graphics/SVG/1.1/DTD/svg11.dtd">
<svg version="1.1" xmlns="http://www.w3.org/2000/svg" xmlns:xlink="http://www.w3.org/1999/xlink" x="0" y="0" width="16" height="16" viewBox="0, 0, 16, 16">
  <g id="Background">
    <rect x="0" y="0" width="16" height="16" fill="#000000" fill-opacity="0"/>
  </g>
  <g id="Layer_4">
    <path d="M15.504,13.616 L11.715,10.392 C11.323,10.04 10.903,9.878 10.565,9.893 C11.46,8.845 12,7.486 12,6 C12,2.686 9.315,-0 6,-0 C2.686,-0 -0,2.686 -0,6 C-0,9.315 2.686,12 6,12 C7.486,12 8.846,11.46 9.894,10.565 C9.878,10.903 10.04,11.323 10.393,11.715 L13.616,15.504 C14.168,16.117 15.069,16.169 15.62,15.62 C16.169,15.069 16.117,14.167 15.504,13.616 z M6,10 C3.791,10 2,8.21 2,6 C2,3.79 3.791,2 6,2 C8.21,2 10,3.79 10,6 C10,8.21 8.21,10 6,10 z" fill="#000000"/>
  </g>
</svg>
