<?xml version="1.0" encoding="UTF-8"?>
<!DOCTYPE svg PUBLIC "-//W3C//DTD SVG 1.1//EN" "http://www.w3.org/Graphics/SVG/1.1/DTD/svg11.dtd">
<svg version="1.1" xmlns="http://www.w3.org/2000/svg" xmlns:xlink="http://www.w3.org/1999/xlink" x="0" y="0" width="16" height="16" viewBox="0, 0, 16, 16">
  <g id="Background">
    <rect x="0" y="0" width="16" height="16" fill="#000000" fill-opacity="0"/>
  </g>
  <g id="Background"/>
  <g id="Layer_1">
    <path d="M8,-0 C12.418,-0 16,3.582 16,8 C16,12.418 12.418,16 8,16 C3.582,16 -0,12.418 -0,8 C-0,3.582 3.582,-0 8,-0 z M11.637,3.151 L8,6.788 L4.363,3.151 L3.151,4.363 L6.788,8 L3.151,11.637 L4.363,12.849 L8,9.212 L11.637,12.849 L12.849,11.637 L9.212,8 L12.849,4.363 L11.637,3.151 z" fill="#000000"/>
  </g>
</svg>
