<?xml version="1.0" encoding="UTF-8"?>
<!DOCTYPE svg PUBLIC "-//W3C//DTD SVG 1.1//EN" "http://www.w3.org/Graphics/SVG/1.1/DTD/svg11.dtd">
<svg version="1.1" xmlns="http://www.w3.org/2000/svg" xmlns:xlink="http://www.w3.org/1999/xlink" x="0" y="0" width="22" height="16" viewBox="0, 0, 22, 16">
  <g id="Background">
    <rect x="0" y="0" width="22" height="16" fill="#000000" fill-opacity="0"/>
  </g>
  <g id="Layer_1" display="none">
    <path d="M21.687,0.85 L21.688,0.85 L21.688,2.55 L21.687,2.55 L21.687,0.85 z" fill="#000000"/>
    <path d="M11,0 C11.584,0.035 12.142,0.385 12.266,1 L14.333,1 C14.702,1 15,1.298 15,1.667 L15,3 C15,3.368 14.702,3.667 14.333,3.667 L7.667,3.667 C7.298,3.667 7,3.368 7,3 L7,1.667 C7,1.298 7.298,1 7.667,1 L9.734,1 C9.806,0.311 10.454,0.11 11,0 z" fill="#000000"/>
    <path d="M17,2 C17.552,2 18,2.448 18,3 L18,15 C18,15.552 17.552,16 17,16 L5,16 C4.448,16 4,15.552 4,15 L4,3 C4,2.448 4.448,2 5,2 L6,2 L6,3.003 C6,3.924 6.746,4.67 7.667,4.67 L14.333,4.67 C15.254,4.67 16,3.924 16,3.003 L16,2 L17,2 z" fill="#000000"/>
  </g>
  <g id="Layer_2">
    <path d="M21.438,3.125 Q21.438,3.663 21.061,4.04 L11.31,13.791 L9.478,15.623 Q9.101,16 8.562,16 Q8.024,16 7.647,15.623 L5.815,13.791 L0.939,8.915 Q0.562,8.539 0.562,8.001 Q0.562,7.461 0.939,7.085 L2.772,5.252 Q3.149,4.875 3.686,4.875 Q4.226,4.875 4.603,5.252 L8.562,9.226 L17.397,0.377 Q17.774,0 18.314,0 Q18.851,0 19.228,0.377 L21.061,2.209 Q21.438,2.586 21.438,3.125 z" fill="#000000"/>
  </g>
</svg>
