<?xml version="1.0" encoding="UTF-8"?>
<!DOCTYPE svg PUBLIC "-//W3C//DTD SVG 1.1//EN" "http://www.w3.org/Graphics/SVG/1.1/DTD/svg11.dtd">
<svg version="1.1" xmlns="http://www.w3.org/2000/svg" xmlns:xlink="http://www.w3.org/1999/xlink" x="0" y="0" width="16" height="16" viewBox="0, 0, 16, 16">
  <g id="Background">
    <rect x="0" y="0" width="16" height="16" fill="#000000" fill-opacity="0"/>
  </g>
  <g id="Background"/>
  <g id="Layer_1">
    <path d="M13.904,4.785 L13.904,13.501 C13.904,13.941 13.524,14.151 13.062,14.478 C12.692,14.742 12.22,14.415 12.22,13.984 C12.22,13.984 12.22,5.643 12.22,5.467 C12.22,5.289 12.158,5.12 11.956,5.016 C11.754,4.913 5.44,1.593 5.44,1.593 C5.338,1.555 4.893,1.275 4.3,1.58 C3.737,1.87 3.43,2.185 3.352,2.333 L10.24,6.107 C10.423,6.203 10.536,6.351 10.536,6.542 L10.536,15.638 C10.536,15.831 10.416,16.039 10.225,16.13 C10.138,16.174 10.041,16.195 9.945,16.195 C9.831,16.195 9.717,16.167 9.62,16.108 C9.439,15.997 3.073,12.094 2.653,11.841 C2.451,11.72 2.214,11.471 2.209,11.287 L2.115,2.625 C2.115,2.458 2.096,2.164 2.358,1.756 C2.945,0.843 4.993,-0.195 6.03,0.343 L13.608,4.179 C13.791,4.273 13.904,4.462 13.904,4.785 z" fill="#000000"/>
  </g>
</svg>
