<?xml version="1.0" encoding="UTF-8"?>
<!DOCTYPE svg PUBLIC "-//W3C//DTD SVG 1.1//EN" "http://www.w3.org/Graphics/SVG/1.1/DTD/svg11.dtd">
<svg version="1.1" xmlns="http://www.w3.org/2000/svg" xmlns:xlink="http://www.w3.org/1999/xlink" x="0" y="0" width="18" height="16" viewBox="0, 0, 18, 16">
  <g id="Background">
    <rect x="0" y="0" width="18" height="16" fill="#000000" fill-opacity="0"/>
  </g>
  <g id="Background"/>
  <g id="Layer_1">
    <path d="M8.077,8.558 L13.327,13.808 Q12.308,14.846 10.947,15.423 Q9.587,16 8.077,16 Q6.067,16 4.37,15.01 Q2.673,14.019 1.683,12.322 Q0.692,10.625 0.692,8.615 Q0.692,6.606 1.683,4.909 Q2.673,3.212 4.37,2.221 Q6.067,1.231 8.077,1.231 L8.077,8.558 z M9.875,8.615 L17.308,8.615 Q17.308,10.125 16.731,11.486 Q16.154,12.846 15.115,13.865 z M16.692,7.385 L9.308,7.385 L9.308,0 Q11.317,0 13.014,0.99 Q14.712,1.981 15.702,3.678 Q16.692,5.375 16.692,7.385 z" fill="#000000"/>
  </g>
</svg>
