<?xml version="1.0" encoding="UTF-8"?>
<!DOCTYPE svg PUBLIC "-//W3C//DTD SVG 1.1//EN" "http://www.w3.org/Graphics/SVG/1.1/DTD/svg11.dtd">
<svg version="1.1" xmlns="http://www.w3.org/2000/svg" xmlns:xlink="http://www.w3.org/1999/xlink" x="0" y="0" width="22" height="16" viewBox="0, 0, 22, 16">
  <g id="Background">
    <rect x="0" y="0" width="22" height="16" fill="#000000" fill-opacity="0"/>
  </g>
  <g id="Layer_1">
    <path d="M16.939,7.427 L17.111,10.444 C17.188,11.79 14.371,12.888 11,12.888 C7.629,12.888 4.812,11.79 4.889,10.444 L5.061,7.427 L10.542,9.155 C10.694,9.203 10.847,9.222 11,9.222 C11.153,9.222 11.306,9.203 11.458,9.155 z M22,4.333 C22,4.467 21.914,4.581 21.79,4.629 L11.095,7.99 C11.057,8 11.029,8 11,8 C10.971,8 10.943,8 10.905,7.99 L4.679,6.023 C4.135,6.453 3.753,7.503 3.676,8.792 C4.039,9.002 4.278,9.384 4.278,9.833 C4.278,10.262 4.058,10.635 3.724,10.854 L4.278,14.989 C4.288,15.075 4.259,15.161 4.201,15.228 C4.144,15.295 4.058,15.333 3.972,15.333 L2.139,15.333 C2.053,15.333 1.967,15.295 1.91,15.228 C1.852,15.162 1.824,15.075 1.833,14.989 L2.387,10.854 C2.053,10.635 1.833,10.262 1.833,9.833 C1.833,9.374 2.091,8.983 2.454,8.773 C2.512,7.656 2.798,6.453 3.39,5.622 L0.21,4.629 C0.086,4.581 0,4.467 0,4.333 C0,4.2 0.086,4.085 0.21,4.038 L10.905,0.676 C10.943,0.667 10.971,0.667 11,0.667 C11.029,0.667 11.057,0.667 11.095,0.676 L21.79,4.038 C21.914,4.085 22,4.2 22,4.333 z" fill="#000000"/>
  </g>
</svg>
