<?xml version="1.0" encoding="UTF-8"?>
<!DOCTYPE svg PUBLIC "-//W3C//DTD SVG 1.1//EN" "http://www.w3.org/Graphics/SVG/1.1/DTD/svg11.dtd">
<svg version="1.1" xmlns="http://www.w3.org/2000/svg" xmlns:xlink="http://www.w3.org/1999/xlink" x="0" y="0" width="10" height="16" viewBox="0, 0, 10, 16">
  <g id="Background">
    <rect x="0" y="0" width="10" height="16" fill="#000000" fill-opacity="0"/>
  </g>
  <g id="Layer_1">
    <path d="M10,9.556 Q10,9.781 9.814,9.946 L5.439,13.835 Q5.254,14 5,14 Q4.746,14 4.561,13.835 L0.186,9.946 Q0,9.781 0,9.556 Q0,9.33 0.186,9.165 Q0.371,9 0.625,9 L9.375,9 Q9.629,9 9.814,9.165 Q10,9.33 10,9.556 z" fill="#000000"/>
    <path d="M10,6.444 Q10,6.67 9.814,6.835 Q9.629,7 9.375,7 L0.625,7 Q0.371,7 0.186,6.835 Q0,6.67 0,6.444 Q0,6.219 0.186,6.054 L4.561,2.165 Q4.746,2 5,2 Q5.254,2 5.439,2.165 L9.814,6.054 Q10,6.219 10,6.444 z" fill="#000000"/>
  </g>
</svg>
