<?xml version="1.0" encoding="UTF-8"?>
<!DOCTYPE svg PUBLIC "-//W3C//DTD SVG 1.1//EN" "http://www.w3.org/Graphics/SVG/1.1/DTD/svg11.dtd">
<svg version="1.1" xmlns="http://www.w3.org/2000/svg" xmlns:xlink="http://www.w3.org/1999/xlink" x="0" y="0" width="26" height="16" viewBox="0, 0, 26, 16">
  <g id="Background">
    <rect x="0" y="0" width="26" height="16" fill="#000000" fill-opacity="0"/>
  </g>
  <g id="icomoon-ignore">
    <path d="M0.261,1.359 C0.261,0.608 0.87,0 1.62,0 L24.38,0 C25.131,0 25.739,0.608 25.739,1.359 L25.739,14.641 C25.739,15.392 25.13,16 24.38,16 L1.62,16 C0.869,16 0.261,15.392 0.261,14.641 L0.261,1.359 z M0.261,7.504 L1.485,7.504 L1.761,6.841 L2.379,6.841 L2.654,7.504 L5.062,7.504 L5.062,6.998 L5.277,7.506 L6.527,7.506 L6.742,6.99 L6.742,7.504 L12.726,7.504 L12.723,6.416 L12.839,6.416 C12.92,6.419 12.944,6.427 12.944,6.56 L12.944,7.504 L16.039,7.504 L16.039,7.251 C16.289,7.384 16.677,7.504 17.188,7.504 L18.49,7.504 L18.769,6.841 L19.386,6.841 L19.659,7.504 L22.168,7.504 L22.168,6.875 L22.548,7.504 L24.559,7.504 L24.559,3.342 L22.569,3.342 L22.569,3.834 L22.29,3.342 L20.248,3.342 L20.248,3.834 L19.992,3.342 L17.234,3.342 C16.773,3.342 16.367,3.407 16.039,3.585 L16.039,3.342 L14.136,3.342 L14.136,3.585 C13.927,3.401 13.643,3.342 13.327,3.342 L6.373,3.342 L5.906,4.417 L5.427,3.342 L3.237,3.342 L3.237,3.834 L2.996,3.342 L1.129,3.342 L0.261,5.321 L0.261,7.504 L0.261,7.504 z M7.995,6.918 L7.261,6.918 L7.258,4.581 L6.219,6.918 L5.59,6.918 L4.549,4.579 L4.549,6.918 L3.092,6.918 L2.817,6.253 L1.326,6.253 L1.047,6.918 L0.27,6.918 L1.552,3.934 L2.616,3.934 L3.835,6.759 L3.835,3.934 L5.004,3.934 L5.941,5.958 L6.802,3.934 L7.995,3.934 L7.995,6.918 L7.995,6.918 z M2.558,5.631 L2.068,4.441 L1.581,5.631 L2.558,5.631 z M10.921,6.918 L10.921,6.301 L9.245,6.301 L9.245,5.705 L10.881,5.705 L10.881,5.093 L9.245,5.093 L9.245,4.555 L10.921,4.555 L10.921,3.934 L8.529,3.934 L8.529,6.918 L10.921,6.918 z M14.295,4.738 L14.295,4.738 C14.295,4.405 14.159,4.21 13.933,4.077 C13.701,3.944 13.431,3.934 13.065,3.934 L11.418,3.934 L11.418,6.918 L12.134,6.918 L12.134,5.833 L12.903,5.833 C13.161,5.833 13.32,5.856 13.425,5.96 C13.555,6.104 13.538,6.362 13.538,6.542 L13.541,6.918 L14.263,6.918 L14.263,6.332 C14.263,6.065 14.246,5.933 14.145,5.784 C14.081,5.697 13.947,5.593 13.79,5.533 C13.976,5.459 14.295,5.213 14.295,4.738 z M13.358,5.157 C13.26,5.216 13.144,5.218 13.004,5.218 L12.134,5.218 L12.134,4.555 L13.016,4.555 C13.141,4.555 13.271,4.561 13.356,4.609 C13.449,4.653 13.506,4.745 13.506,4.873 C13.506,5.004 13.451,5.108 13.358,5.157 L13.358,5.157 z M15.441,6.918 L15.441,3.934 L14.711,3.934 L14.711,6.918 L15.441,6.918 z M23.92,6.918 L22.905,6.918 L21.548,4.678 L21.548,6.918 L20.089,6.918 L19.81,6.253 L18.322,6.253 L18.052,6.918 L17.214,6.918 C16.865,6.918 16.425,6.841 16.175,6.588 C15.923,6.335 15.792,5.992 15.792,5.449 C15.792,5.006 15.871,4.602 16.178,4.282 C16.41,4.044 16.773,3.934 17.266,3.934 L17.96,3.934 L17.96,4.574 L17.281,4.574 C17.019,4.574 16.872,4.612 16.73,4.75 C16.607,4.876 16.524,5.113 16.524,5.426 C16.524,5.746 16.587,5.976 16.721,6.127 C16.831,6.245 17.031,6.281 17.22,6.281 L17.541,6.281 L18.551,3.934 L19.624,3.934 L20.837,6.757 L20.837,3.934 L21.928,3.934 L23.187,6.012 L23.187,3.934 L23.92,3.934 L23.92,6.918 z M19.566,5.631 L19.07,4.441 L18.577,5.631 L19.566,5.631 z M25.739,11.669 C25.565,11.923 25.226,12.051 24.767,12.051 L23.384,12.051 L23.384,11.411 L24.761,11.411 C24.898,11.411 24.994,11.393 25.051,11.337 C25.101,11.291 25.136,11.224 25.136,11.143 C25.136,11.056 25.101,10.987 25.048,10.945 C24.996,10.9 24.921,10.879 24.796,10.879 C24.123,10.856 23.284,10.9 23.284,9.955 C23.284,9.522 23.56,9.067 24.312,9.067 L25.739,9.067 L25.739,8.473 L24.413,8.473 C24.013,8.473 23.723,8.568 23.517,8.716 L23.517,8.473 L21.556,8.473 C21.242,8.473 20.874,8.55 20.7,8.716 L20.7,8.473 L17.199,8.473 L17.199,8.716 C16.92,8.516 16.45,8.473 16.233,8.473 L13.924,8.473 L13.924,8.716 C13.703,8.504 13.213,8.473 12.914,8.473 L10.329,8.473 L9.738,9.11 L9.184,8.473 L5.323,8.473 L5.323,12.637 L9.111,12.637 L9.721,11.99 L10.295,12.637 L12.63,12.639 L12.63,11.66 L12.859,11.66 C13.169,11.665 13.535,11.652 13.857,11.513 L13.857,12.637 L15.783,12.637 L15.783,11.552 L15.876,11.552 C15.995,11.552 16.006,11.557 16.006,11.675 L16.006,12.637 L21.858,12.637 C22.229,12.637 22.617,12.543 22.832,12.371 L22.832,12.637 L24.688,12.637 C25.075,12.637 25.452,12.583 25.739,12.445 L25.739,11.669 z M14.139,10.05 C14.139,9.223 13.5,9.066 12.931,9.066 L10.643,9.066 L9.732,10.045 L8.85,9.066 L5.97,9.066 L5.97,12.051 L8.807,12.051 L9.723,11.063 L10.605,12.051 L11.998,12.051 L11.998,11.05 L12.891,11.05 C13.517,11.05 14.139,10.879 14.139,10.05 z M8.444,11.429 L6.683,11.429 L6.683,10.835 L8.256,10.835 L8.256,10.226 L6.683,10.226 L6.683,9.684 L8.479,9.684 L9.262,10.554 L8.444,11.429 z M11.284,11.78 L10.184,10.564 L11.284,9.387 L11.284,11.78 z M12.923,10.444 L11.998,10.444 L11.998,9.684 L12.931,9.684 C13.19,9.684 13.37,9.789 13.37,10.05 C13.37,10.308 13.198,10.444 12.923,10.444 z M17.756,9.066 L17.756,12.051 L20.146,12.051 L20.146,11.432 L18.469,11.429 L18.469,10.835 L20.105,10.835 L20.105,10.226 L18.469,10.226 L18.469,9.684 L20.146,9.684 L20.146,9.066 L17.756,9.066 z M16.851,10.664 C17.039,10.59 17.359,10.347 17.359,9.87 C17.359,9.53 17.216,9.343 16.99,9.207 C16.755,9.082 16.491,9.066 16.129,9.066 L14.475,9.066 L14.475,12.051 L15.195,12.051 L15.195,10.961 L15.96,10.961 C16.221,10.961 16.381,10.987 16.486,11.094 C16.619,11.232 16.601,11.498 16.601,11.678 L16.601,12.051 L17.321,12.051 L17.321,11.46 C17.318,11.196 17.303,11.06 17.202,10.915 C17.141,10.828 17.01,10.723 16.851,10.664 z M16.418,10.293 C16.323,10.349 16.204,10.354 16.065,10.354 L15.195,10.354 L15.195,9.684 L16.077,9.684 C16.204,9.684 16.332,9.686 16.418,9.738 C16.511,9.786 16.567,9.878 16.567,10.006 C16.567,10.134 16.511,10.237 16.418,10.293 z M22.882,10.477 C23.021,10.621 23.096,10.802 23.096,11.109 C23.096,11.751 22.693,12.051 21.971,12.051 L20.576,12.051 L20.576,11.411 L21.965,11.411 C22.101,11.411 22.197,11.393 22.258,11.337 C22.307,11.291 22.342,11.224 22.342,11.143 C22.342,11.056 22.304,10.987 22.255,10.945 C22.2,10.9 22.125,10.879 22,10.879 C21.33,10.856 20.491,10.9 20.491,9.955 C20.491,9.522 20.764,9.067 21.515,9.067 L22.951,9.067 L22.951,9.702 L21.637,9.702 C21.507,9.702 21.422,9.707 21.35,9.756 C21.272,9.804 21.243,9.876 21.243,9.97 C21.243,10.083 21.309,10.16 21.399,10.193 C21.475,10.219 21.556,10.227 21.678,10.227 L22.064,10.237 C22.453,10.246 22.719,10.313 22.882,10.477 z M25.739,9.702 L24.433,9.702 C24.303,9.702 24.216,9.706 24.144,9.756 C24.068,9.804 24.039,9.876 24.039,9.97 C24.039,10.083 24.103,10.159 24.196,10.193 C24.271,10.219 24.352,10.226 24.472,10.226 L24.86,10.237 C25.252,10.246 25.513,10.313 25.672,10.477 C25.701,10.5 25.719,10.525 25.739,10.551 L25.739,9.702 z" fill="#000000"/>
  </g>
</svg>
