<?xml version="1.0" encoding="UTF-8"?>
<!DOCTYPE svg PUBLIC "-//W3C//DTD SVG 1.1//EN" "http://www.w3.org/Graphics/SVG/1.1/DTD/svg11.dtd">
<svg version="1.1" xmlns="http://www.w3.org/2000/svg" xmlns:xlink="http://www.w3.org/1999/xlink" x="0" y="0" width="16" height="16" viewBox="0, 0, 16, 16">
  <g id="Background"/>
  <g id="icomoon-ignore">
    <path d="M0,3.83 C0,3.358 0.382,2.976 0.853,2.976 L15.147,2.976 C15.618,2.976 16,3.358 16,3.83 L16,12.17 C16,12.642 15.618,13.024 15.147,13.024 L0.853,13.024 C0.382,13.024 0,12.642 0,12.17 L0,3.83 z M0,7.689 L0.769,7.689 L0.942,7.272 L1.33,7.272 L1.503,7.689 L3.015,7.689 L3.015,7.371 L3.15,7.69 L3.935,7.69 L4.07,7.366 L4.07,7.689 L7.828,7.689 L7.826,7.005 L7.899,7.005 C7.95,7.007 7.965,7.012 7.965,7.096 L7.965,7.689 L9.908,7.689 L9.908,7.53 C10.065,7.613 10.309,7.689 10.63,7.689 L11.448,7.689 L11.623,7.272 L12.01,7.272 L12.182,7.689 L13.757,7.689 L13.757,7.294 L13.996,7.689 L15.259,7.689 L15.259,5.075 L14.009,5.075 L14.009,5.384 L13.834,5.075 L12.552,5.075 L12.552,5.384 L12.391,5.075 L10.659,5.075 C10.369,5.075 10.114,5.116 9.908,5.227 L9.908,5.075 L8.713,5.075 L8.713,5.227 C8.582,5.112 8.404,5.075 8.205,5.075 L3.838,5.075 L3.545,5.75 L3.244,5.075 L1.869,5.075 L1.869,5.384 L1.718,5.075 L0.545,5.075 L0,6.318 L0,7.689 L0,7.689 z M4.857,7.321 L4.396,7.321 L4.394,5.853 L3.742,7.321 L3.347,7.321 L2.693,5.852 L2.693,7.321 L1.778,7.321 L1.605,6.903 L0.669,6.903 L0.494,7.321 L0.006,7.321 L0.811,5.447 L1.479,5.447 L2.244,7.221 L2.244,5.447 L2.979,5.447 L3.567,6.718 L4.108,5.447 L4.857,5.447 L4.857,7.321 L4.857,7.321 z M1.442,6.512 L1.135,5.765 L0.829,6.512 L1.442,6.512 z M6.694,7.321 L6.694,6.933 L5.642,6.933 L5.642,6.559 L6.669,6.559 L6.669,6.174 L5.642,6.174 L5.642,5.837 L6.694,5.837 L6.694,5.447 L5.192,5.447 L5.192,7.321 L6.694,7.321 z M8.813,5.951 L8.813,5.951 C8.813,5.742 8.728,5.62 8.586,5.536 C8.44,5.453 8.271,5.447 8.041,5.447 L7.007,5.447 L7.007,7.321 L7.456,7.321 L7.456,6.639 L7.939,6.639 C8.101,6.639 8.201,6.654 8.267,6.719 C8.349,6.809 8.338,6.971 8.338,7.084 L8.34,7.321 L8.793,7.321 L8.793,6.953 C8.793,6.785 8.782,6.702 8.719,6.608 C8.679,6.554 8.595,6.488 8.496,6.451 C8.613,6.404 8.813,6.25 8.813,5.951 z M8.225,6.215 C8.163,6.252 8.09,6.253 8.003,6.253 L7.456,6.253 L7.456,5.837 L8.01,5.837 C8.089,5.837 8.17,5.84 8.224,5.87 C8.282,5.898 8.318,5.956 8.318,6.036 C8.318,6.119 8.283,6.184 8.225,6.215 L8.225,6.215 z M9.533,7.321 L9.533,5.447 L9.074,5.447 L9.074,7.321 L9.533,7.321 z M14.858,7.321 L14.22,7.321 L13.368,5.914 L13.368,7.321 L12.452,7.321 L12.277,6.903 L11.342,6.903 L11.173,7.321 L10.646,7.321 C10.427,7.321 10.151,7.272 9.994,7.113 C9.836,6.954 9.753,6.739 9.753,6.398 C9.753,6.12 9.803,5.866 9.996,5.665 C10.141,5.516 10.369,5.447 10.679,5.447 L11.115,5.447 L11.115,5.848 L10.688,5.848 C10.524,5.848 10.432,5.872 10.342,5.959 C10.265,6.038 10.213,6.187 10.213,6.384 C10.213,6.585 10.253,6.729 10.337,6.824 C10.406,6.898 10.531,6.92 10.65,6.92 L10.852,6.92 L11.486,5.447 L12.16,5.447 L12.922,7.219 L12.922,5.447 L13.607,5.447 L14.397,6.752 L14.397,5.447 L14.858,5.447 L14.858,7.321 z M12.123,6.512 L11.812,5.765 L11.502,6.512 L12.123,6.512 z M16,10.304 C15.891,10.464 15.678,10.544 15.39,10.544 L14.521,10.544 L14.521,10.142 L15.386,10.142 C15.472,10.142 15.532,10.131 15.568,10.096 C15.599,10.067 15.621,10.025 15.621,9.974 C15.621,9.919 15.599,9.876 15.566,9.849 C15.533,9.821 15.486,9.808 15.408,9.808 C14.985,9.794 14.458,9.821 14.458,9.228 C14.458,8.956 14.632,8.67 15.104,8.67 L16,8.67 L16,8.297 L15.167,8.297 C14.916,8.297 14.734,8.357 14.605,8.45 L14.605,8.297 L13.373,8.297 C13.176,8.297 12.945,8.345 12.836,8.45 L12.836,8.297 L10.637,8.297 L10.637,8.45 C10.462,8.324 10.167,8.297 10.03,8.297 L8.58,8.297 L8.58,8.45 C8.441,8.317 8.134,8.297 7.946,8.297 L6.323,8.297 L5.951,8.697 L5.604,8.297 L3.179,8.297 L3.179,10.912 L5.558,10.912 L5.941,10.506 L6.301,10.912 L7.768,10.913 L7.768,10.298 L7.911,10.298 C8.106,10.302 8.336,10.293 8.538,10.206 L8.538,10.912 L9.748,10.912 L9.748,10.231 L9.806,10.231 C9.881,10.231 9.888,10.234 9.888,10.308 L9.888,10.912 L13.563,10.912 C13.796,10.912 14.039,10.853 14.174,10.745 L14.174,10.912 L15.34,10.912 C15.583,10.912 15.82,10.878 16,10.791 L16,10.304 z M8.715,9.287 C8.715,8.768 8.314,8.669 7.957,8.669 L6.52,8.669 L5.948,9.284 L5.394,8.669 L3.585,8.669 L3.585,10.544 L5.367,10.544 L5.942,9.924 L6.496,10.544 L7.371,10.544 L7.371,9.915 L7.932,9.915 C8.325,9.915 8.715,9.808 8.715,9.287 z M5.139,10.153 L4.033,10.153 L4.033,9.78 L5.021,9.78 L5.021,9.398 L4.033,9.398 L4.033,9.058 L5.161,9.058 L5.653,9.604 L5.139,10.153 z M6.922,10.374 L6.232,9.61 L6.922,8.871 L6.922,10.374 z M7.952,9.535 L7.371,9.535 L7.371,9.058 L7.957,9.058 C8.119,9.058 8.232,9.123 8.232,9.287 C8.232,9.449 8.124,9.535 7.952,9.535 z M10.987,8.669 L10.987,10.544 L12.488,10.544 L12.488,10.155 L11.434,10.153 L11.434,9.78 L12.462,9.78 L12.462,9.398 L11.434,9.398 L11.434,9.058 L12.488,9.058 L12.488,8.669 L10.987,8.669 z M10.418,9.673 C10.536,9.627 10.737,9.474 10.737,9.174 C10.737,8.961 10.648,8.843 10.506,8.758 C10.358,8.679 10.192,8.669 9.965,8.669 L8.926,8.669 L8.926,10.544 L9.378,10.544 L9.378,9.859 L9.859,9.859 C10.023,9.859 10.123,9.876 10.189,9.943 C10.273,10.03 10.261,10.197 10.261,10.31 L10.261,10.544 L10.714,10.544 L10.714,10.173 C10.712,10.007 10.702,9.922 10.639,9.831 C10.601,9.776 10.518,9.71 10.418,9.673 z M10.146,9.44 C10.087,9.475 10.012,9.478 9.925,9.478 L9.378,9.478 L9.378,9.058 L9.932,9.058 C10.012,9.058 10.092,9.059 10.146,9.091 C10.205,9.122 10.24,9.179 10.24,9.26 C10.24,9.34 10.205,9.405 10.146,9.44 z M14.206,9.556 C14.293,9.646 14.34,9.76 14.34,9.952 C14.34,10.356 14.087,10.544 13.634,10.544 L12.758,10.544 L12.758,10.142 L13.63,10.142 C13.715,10.142 13.776,10.131 13.814,10.096 C13.845,10.067 13.867,10.025 13.867,9.974 C13.867,9.919 13.843,9.876 13.812,9.849 C13.778,9.821 13.73,9.808 13.652,9.808 C13.231,9.794 12.704,9.821 12.704,9.228 C12.704,8.956 12.876,8.67 13.347,8.67 L14.249,8.67 L14.249,9.069 L13.424,9.069 C13.342,9.069 13.289,9.072 13.244,9.103 C13.195,9.133 13.177,9.178 13.177,9.237 C13.177,9.308 13.218,9.356 13.275,9.377 C13.322,9.394 13.373,9.399 13.45,9.399 L13.692,9.405 C13.936,9.41 14.103,9.453 14.206,9.556 z M16,9.069 L15.18,9.069 C15.098,9.069 15.044,9.071 14.998,9.103 C14.951,9.133 14.932,9.178 14.932,9.237 C14.932,9.308 14.973,9.356 15.031,9.377 C15.078,9.394 15.129,9.398 15.204,9.398 L15.448,9.405 C15.694,9.41 15.858,9.453 15.958,9.556 C15.976,9.57 15.987,9.586 16,9.602 L16,9.069 z" fill="#000000"/>
  </g>
</svg>
