<?xml version="1.0" encoding="UTF-8"?>
<!DOCTYPE svg PUBLIC "-//W3C//DTD SVG 1.1//EN" "http://www.w3.org/Graphics/SVG/1.1/DTD/svg11.dtd">
<svg version="1.1" xmlns="http://www.w3.org/2000/svg" xmlns:xlink="http://www.w3.org/1999/xlink" x="0" y="0" width="1627" height="1024" viewBox="0, 0, 1627, 1024">
  <g id="Background">
    <rect x="0" y="0" width="1627" height="1024" fill="#000000" fill-opacity="0"/>
  </g>
  <g id="icomoon-ignore">
    <path d="M0,88.96 C0,41.027 38.865,2.17 86.762,2.17 L1540.356,2.17 C1588.273,2.17 1627.118,41.018 1627.118,88.96 L1627.118,937.21 C1627.118,985.143 1588.253,1024 1540.356,1024 L86.762,1024 C38.845,1024 0,985.152 0,937.21 L0,88.96 z M0.006,481.423 L78.165,481.423 L95.788,439.094 L135.243,439.094 L152.82,481.423 L306.603,481.423 L306.603,449.061 L320.33,481.561 L400.163,481.561 L413.89,448.578 L413.89,481.423 L796.07,481.423 L795.891,411.94 L803.285,411.94 C808.463,412.118 809.975,412.595 809.975,421.108 L809.975,481.423 L1007.64,481.423 L1007.64,465.248 C1023.583,473.755 1048.382,481.423 1081.013,481.423 L1164.171,481.423 L1181.967,439.094 L1221.422,439.094 L1238.826,481.423 L1399.074,481.423 L1399.074,441.215 L1423.341,481.423 L1551.754,481.423 L1551.754,215.629 L1424.668,215.629 L1424.668,247.02 L1406.872,215.629 L1276.467,215.629 L1276.467,247.02 L1260.125,215.629 L1083.98,215.629 C1054.494,215.629 1028.576,219.727 1007.64,231.149 L1007.64,215.629 L886.084,215.629 L886.084,231.149 C872.761,219.377 854.607,215.629 834.421,215.629 L390.331,215.629 L360.534,284.279 L329.934,215.629 L190.057,215.629 L190.057,247.02 L174.691,215.629 L55.398,215.629 L0,342.002 L0,481.423 L0.006,481.423 z M493.906,443.992 L447.011,443.992 L446.838,294.736 L380.507,443.992 L340.342,443.992 L273.838,294.604 L273.838,443.992 L180.798,443.992 L163.221,401.485 L67.976,401.485 L50.22,443.992 L0.537,443.992 L82.453,253.419 L150.417,253.419 L228.218,433.853 L228.218,253.419 L302.878,253.419 L362.744,382.7 L417.738,253.419 L493.899,253.419 L493.899,443.992 L493.905,443.992 z M146.706,361.759 L115.396,285.786 L84.265,361.759 L146.705,361.759 z M680.811,443.992 L680.811,404.577 L573.744,404.577 L573.744,366.519 L678.242,366.519 L678.242,327.455 L573.744,327.455 L573.744,293.104 L680.811,293.104 L680.811,253.419 L527.998,253.419 L527.998,443.992 L680.811,443.992 z M896.272,304.743 L896.272,304.743 C896.272,283.486 887.596,271.059 873.125,262.546 C858.336,254.033 841.111,253.418 817.733,253.418 L712.519,253.418 L712.519,443.991 L758.26,443.991 L758.26,374.674 L807.366,374.674 C823.835,374.674 834.023,376.128 840.708,382.831 C849.032,391.999 847.929,408.491 847.929,419.958 L848.102,443.991 L894.241,443.991 L894.241,406.553 C894.241,389.533 893.127,381.066 886.668,371.587 C882.598,366.034 874.049,359.332 864.04,355.538 C875.908,350.825 896.273,335.126 896.273,304.742 z M836.453,331.506 C830.167,335.306 822.732,335.432 813.825,335.432 L758.254,335.432 L758.254,293.103 L814.581,293.103 C822.553,293.103 830.871,293.459 836.274,296.54 C842.208,299.316 845.879,305.225 845.879,313.388 C845.879,321.717 842.387,328.419 836.453,331.506 L836.453,331.506 z M969.478,443.992 L969.478,253.419 L922.802,253.419 L922.802,443.992 L969.478,443.992 z M1510.978,443.992 L1446.154,443.992 L1359.446,300.956 L1359.446,443.992 L1266.285,443.992 L1248.483,401.485 L1153.457,401.485 L1136.186,443.992 L1082.658,443.992 C1060.423,443.992 1032.271,439.095 1016.327,422.914 C1000.251,406.733 991.887,384.815 991.887,350.16 C991.887,321.896 996.886,296.059 1016.547,275.641 C1031.336,260.431 1054.495,253.419 1086.018,253.419 L1130.304,253.419 L1130.304,294.254 L1086.947,294.254 C1070.253,294.254 1060.827,296.726 1051.747,305.543 C1043.948,313.567 1038.597,328.737 1038.597,348.711 C1038.597,369.128 1042.672,383.849 1051.175,393.466 C1058.217,401.008 1071.015,403.295 1083.056,403.295 L1103.6,403.295 L1168.072,253.424 L1236.614,253.424 L1314.063,433.68 L1314.063,253.424 L1383.713,253.424 L1464.123,386.148 L1464.123,253.424 L1510.978,253.424 L1510.978,443.992 z M1232.891,361.759 L1201.235,285.786 L1169.752,361.759 L1232.891,361.759 z M1627.119,747.43 C1616.007,763.611 1594.355,771.814 1565.042,771.814 L1476.701,771.814 L1476.701,730.939 L1564.684,730.939 C1573.412,730.939 1579.519,729.795 1583.196,726.22 C1586.382,723.271 1588.605,718.989 1588.605,713.787 C1588.605,708.234 1586.383,703.825 1583.017,701.181 C1579.698,698.272 1574.866,696.95 1566.9,696.95 C1523.947,695.496 1470.362,698.272 1470.362,637.951 C1470.362,610.302 1487.991,581.2 1535.994,581.2 L1627.112,581.2 L1627.112,543.274 L1542.454,543.274 C1516.905,543.274 1498.347,549.367 1485.203,558.84 L1485.203,543.274 L1359.982,543.274 C1339.957,543.274 1316.452,548.217 1305.334,558.84 L1305.334,543.274 L1081.722,543.274 L1081.722,558.84 C1063.926,546.056 1033.897,543.274 1020.038,543.274 L872.541,543.274 L872.541,558.84 C858.462,545.263 827.152,543.274 808.069,543.274 L642.995,543.274 L605.22,583.982 L569.841,543.274 L323.255,543.274 L323.255,809.251 L565.2,809.251 L604.123,767.899 L640.789,809.251 L789.925,809.383 L789.925,746.815 L804.587,746.815 C824.375,747.12 847.713,746.326 868.303,737.463 L868.303,809.246 L991.313,809.246 L991.313,739.924 L997.247,739.924 C1004.82,739.924 1005.565,740.234 1005.565,747.77 L1005.565,809.241 L1379.248,809.241 C1402.973,809.241 1427.771,803.194 1441.504,792.221 L1441.504,809.241 L1560.035,809.241 C1584.701,809.241 1608.789,805.798 1627.116,796.98 L1627.116,747.431 z M886.275,643.992 C886.275,591.201 845.487,581.194 809.184,581.194 L663.015,581.194 L604.829,643.676 L548.548,581.194 L364.564,581.194 L364.564,771.813 L545.76,771.813 L604.298,708.71 L660.625,771.813 L749.538,771.813 L749.538,707.877 L806.616,707.877 C846.602,707.877 886.275,696.944 886.275,643.992 z M522.6,732.088 L410.13,732.088 L410.13,694.162 L510.559,694.162 L510.559,655.27 L410.13,655.27 L410.13,620.615 L524.816,620.615 L574.851,676.165 L522.599,732.089 z M703.976,754.477 L633.743,676.831 L703.976,601.651 L703.976,754.477 z M808.653,669.163 L749.538,669.163 L749.538,620.62 L809.184,620.62 C825.699,620.62 837.163,627.322 837.163,643.992 C837.163,660.478 826.23,669.163 808.653,669.163 z M1117.287,581.194 L1117.287,771.813 L1269.962,771.813 L1269.962,732.26 L1162.843,732.088 L1162.843,694.162 L1267.347,694.162 L1267.347,655.27 L1162.843,655.27 L1162.843,620.615 L1269.962,620.615 L1269.962,581.194 L1117.287,581.194 z M1059.499,683.229 C1071.54,678.47 1091.917,662.944 1091.923,632.519 C1091.923,610.774 1082.843,598.875 1068.406,590.19 C1053.392,582.212 1036.525,581.194 1013.366,581.194 L907.754,581.194 L907.754,771.813 L953.72,771.813 L953.72,702.192 L1002.607,702.192 C1019.295,702.192 1029.483,703.824 1036.168,710.653 C1044.671,719.517 1043.562,736.497 1043.562,747.964 L1043.562,771.813 L1089.487,771.813 L1089.487,734.025 C1089.302,717.223 1088.367,708.538 1081.908,699.232 C1078.006,693.679 1069.682,686.971 1059.499,683.229 z M1031.872,659.506 C1025.753,663.122 1018.186,663.432 1009.285,663.432 L953.714,663.432 L953.714,620.62 L1010.041,620.62 C1018.186,620.62 1026.337,620.792 1031.872,624.063 C1037.8,627.15 1041.345,633.053 1041.345,641.21 C1041.345,649.367 1037.801,655.937 1031.872,659.506 z M1444.647,671.278 C1453.554,680.458 1458.328,692.046 1458.328,711.664 C1458.328,752.671 1432.6,771.812 1386.467,771.812 L1297.37,771.812 L1297.37,730.937 L1386.109,730.937 C1394.785,730.937 1400.938,729.793 1404.794,726.218 C1407.94,723.269 1410.197,718.987 1410.197,713.785 C1410.197,708.232 1407.755,703.823 1404.615,701.179 C1401.117,698.27 1396.291,696.948 1388.325,696.948 C1345.546,695.494 1291.972,698.27 1291.972,637.949 C1291.972,610.3 1309.416,581.198 1357.374,581.198 L1449.08,581.198 L1449.08,621.768 L1365.166,621.768 C1356.848,621.768 1351.439,622.078 1346.839,625.211 C1341.829,628.298 1339.97,632.879 1339.97,638.926 C1339.97,646.117 1344.224,651.009 1349.979,653.124 C1354.805,654.797 1359.988,655.285 1367.781,655.285 L1392.406,655.946 C1417.239,656.55 1434.285,660.826 1444.646,671.276 z M1627.119,621.758 L1543.748,621.758 C1535.424,621.758 1529.894,622.068 1525.236,625.201 C1520.41,628.288 1518.552,632.869 1518.552,638.916 C1518.552,646.107 1522.627,650.999 1528.556,653.114 C1533.382,654.787 1538.565,655.275 1546.185,655.275 L1570.978,655.936 C1595.996,656.551 1612.695,660.833 1622.878,671.278 C1624.731,672.732 1625.845,674.365 1627.121,675.997 L1627.121,621.758 z" fill="#000000"/>
  </g>
</svg>
