<?xml version="1.0" encoding="UTF-8"?>
<!DOCTYPE svg PUBLIC "-//W3C//DTD SVG 1.1//EN" "http://www.w3.org/Graphics/SVG/1.1/DTD/svg11.dtd">
<svg version="1.1" xmlns="http://www.w3.org/2000/svg" xmlns:xlink="http://www.w3.org/1999/xlink" x="0" y="0" width="1631" height="1024" viewBox="0, 0, 1631, 1024">
  <g id="Background">
    <rect x="0" y="0" width="1631" height="1024" fill="#000000" fill-opacity="0"/>
  </g>
  <g id="icomoon-ignore">
    <path d="M-0,86.974 C-0,38.939 38.948,-0 86.946,-0 L1543.626,-0 C1591.645,-0 1630.572,38.93 1630.572,86.974 L1630.572,937.025 C1630.572,985.06 1591.624,1023.999 1543.626,1023.999 L86.946,1023.999 C38.927,1023.999 -0,985.069 -0,937.025 L-0,86.974 z M1271.703,515.147 C1271.703,299.007 1091.294,149.609 893.638,149.681 L723.532,149.681 C523.508,149.609 358.869,299.052 358.869,515.147 C358.869,712.839 523.508,875.265 723.532,874.316 L893.638,874.316 C1091.294,875.263 1271.703,712.796 1271.703,515.147 z M724.338,179.629 C541.562,179.687 393.452,328.136 393.409,511.352 C393.452,694.537 541.56,842.972 724.338,843.029 C907.157,842.971 1055.297,694.536 1055.323,511.352 C1055.296,328.136 907.158,179.686 724.338,179.629 z M514.571,511.352 C514.743,421.822 570.546,345.477 649.235,315.138 L649.235,707.519 C570.546,677.198 514.741,600.894 514.571,511.351 z M799.411,707.606 L799.411,315.126 C878.129,345.391 934.018,421.78 934.161,511.353 C934.018,600.953 878.129,677.284 799.411,707.607 z" fill="#000000"/>
  </g>
</svg>
