<?xml version="1.0" encoding="UTF-8"?>
<!DOCTYPE svg PUBLIC "-//W3C//DTD SVG 1.1//EN" "http://www.w3.org/Graphics/SVG/1.1/DTD/svg11.dtd">
<svg version="1.1" xmlns="http://www.w3.org/2000/svg" xmlns:xlink="http://www.w3.org/1999/xlink" x="0" y="0" width="26" height="16" viewBox="0, 0, 26, 16">
  <g id="Background">
    <rect x="0" y="0" width="26" height="16" fill="#000000" fill-opacity="0"/>
  </g>
  <g id="icomoon-ignore">
    <path d="M0.261,1.359 C0.261,0.608 0.869,0 1.62,0 L24.38,0 C25.13,0 25.739,0.608 25.739,1.359 L25.739,14.641 C25.739,15.392 25.131,16 24.38,16 L1.62,16 C0.87,16 0.261,15.392 0.261,14.641 z M5.337,15.711 L24.273,15.711 C24.911,15.711 25.428,15.194 25.428,14.556 L25.428,8.461 C25.428,8.461 18.333,13.469 5.337,15.711 z M3.229,7.307 C3.478,7.099 3.628,6.765 3.628,6.432 C3.628,6.099 3.478,5.775 3.229,5.566 C2.991,5.364 2.708,5.285 2.242,5.285 L2.049,5.285 L2.049,7.584 L2.242,7.584 C2.708,7.584 3.002,7.5 3.229,7.307 z M2.386,4.697 L1.328,4.697 L1.328,8.172 L2.381,8.172 C2.941,8.172 3.345,8.048 3.7,7.771 C4.122,7.443 4.371,6.948 4.371,6.437 C4.371,5.411 3.556,4.697 2.386,4.697 z M4.703,8.172 L5.424,8.172 L5.424,4.697 L4.703,4.697 z M7.187,6.022 C6.754,5.871 6.627,5.772 6.627,5.584 C6.627,5.365 6.854,5.199 7.165,5.199 C7.381,5.199 7.558,5.282 7.746,5.48 L8.123,5.016 C7.813,4.761 7.442,4.631 7.037,4.631 C6.383,4.631 5.884,5.058 5.884,5.627 C5.884,6.105 6.116,6.35 6.794,6.58 C7.076,6.673 7.22,6.736 7.292,6.777 C7.436,6.866 7.508,6.991 7.508,7.137 C7.508,7.419 7.27,7.627 6.948,7.627 C6.604,7.627 6.327,7.466 6.161,7.164 L5.696,7.586 C6.028,8.044 6.427,8.247 6.975,8.247 C7.725,8.247 8.25,7.779 8.25,7.106 C8.25,6.554 8.007,6.304 7.187,6.022 z M8.478,6.427 C8.478,7.449 9.331,8.241 10.429,8.241 C10.74,8.241 11.005,8.184 11.333,8.038 L11.333,7.24 C11.045,7.512 10.79,7.621 10.463,7.621 C9.736,7.621 9.221,7.126 9.221,6.422 C9.221,5.755 9.753,5.229 10.429,5.229 C10.773,5.229 11.033,5.344 11.333,5.62 L11.333,4.822 C11.017,4.671 10.757,4.609 10.446,4.609 C9.354,4.609 8.478,5.417 8.478,6.427 z M17.051,7.026 L16.065,4.691 L15.277,4.691 L16.846,8.256 L17.234,8.256 L18.831,4.691 L18.049,4.691 L17.051,7.026 z M19.157,8.172 L21.202,8.172 L21.202,7.584 L19.878,7.584 L19.878,6.645 L21.153,6.645 L21.153,6.057 L19.878,6.057 L19.878,5.285 L21.202,5.285 L21.202,4.697 L19.157,4.697 z M22.611,6.296 C23.071,6.296 23.315,6.109 23.315,5.759 C23.315,5.421 23.071,5.244 22.622,5.244 L22.4,5.244 L22.4,6.296 L22.611,6.296 z M24.057,5.723 C24.057,5.072 23.581,4.697 22.749,4.697 L21.68,4.697 L21.68,8.172 L22.4,8.172 L22.4,6.776 L22.494,6.776 L23.492,8.172 L24.379,8.172 L23.215,6.708 C23.758,6.604 24.057,6.255 24.057,5.723 z M11.568,6.434 C11.568,7.455 12.449,8.283 13.535,8.283 C14.621,8.283 15.502,7.455 15.502,6.434 L15.502,6.432 C15.502,5.411 14.621,4.585 13.535,4.585 C12.449,4.585 11.568,5.411 11.568,6.432 L11.568,6.434 z" fill="#000000"/>
  </g>
</svg>
