<?xml version="1.0" encoding="UTF-8"?>
<!DOCTYPE svg PUBLIC "-//W3C//DTD SVG 1.1//EN" "http://www.w3.org/Graphics/SVG/1.1/DTD/svg11.dtd">
<svg version="1.1" xmlns="http://www.w3.org/2000/svg" xmlns:xlink="http://www.w3.org/1999/xlink" x="0" y="0" width="1631" height="1024" viewBox="0, 0, 1631, 1024">
  <g id="Background">
    <rect x="0" y="0" width="1631" height="1024" fill="#000000" fill-opacity="0"/>
  </g>
  <g id="icomoon-ignore">
    <path d="M-0,86.974 C-0,38.93 38.927,-0 86.946,-0 L1543.626,-0 C1591.625,-0 1630.572,38.94 1630.572,86.974 L1630.572,937.025 C1630.572,985.069 1591.645,1023.999 1543.626,1023.999 L86.946,1023.999 C38.947,1023.999 -0,985.059 -0,937.025 z M324.878,1005.489 L1536.783,1005.489 C1577.611,1005.489 1610.709,972.4 1610.709,931.586 L1610.709,541.513 C1610.709,541.513 1156.594,862.037 324.878,1005.489 z M189.935,467.674 C205.896,454.311 215.497,432.974 215.497,411.628 C215.497,390.316 205.896,369.615 189.935,356.252 C174.692,343.285 156.599,338.266 126.778,338.266 L114.395,338.266 L114.395,485.35 L126.778,485.35 C156.6,485.35 175.435,479.979 189.935,467.673 z M136.021,300.576 L68.28,300.576 L68.28,523.007 L135.665,523.007 C171.496,523.007 197.373,515.058 220.085,497.33 C247.076,476.328 263.037,444.678 263.037,411.946 C263.037,346.301 210.866,300.576 136.022,300.576 z M284.27,523.007 L330.42,523.007 L330.42,300.576 L284.27,300.576 z M443.266,385.394 C415.573,375.761 407.439,369.402 407.439,357.388 C407.439,343.381 421.929,332.734 441.82,332.734 C455.645,332.734 467.011,338.079 479.033,350.746 L503.181,321.022 C483.335,304.703 459.599,296.359 433.658,296.359 C391.796,296.359 359.863,323.695 359.863,360.096 C359.863,390.74 374.731,406.423 418.075,421.092 C436.142,427.082 445.336,431.078 449.978,433.759 C459.197,439.422 463.814,447.431 463.814,456.772 C463.814,474.792 448.571,488.146 427.983,488.146 C405.97,488.146 388.242,477.8 377.612,458.482 L347.801,485.474 C369.064,514.812 394.597,527.814 429.714,527.814 C477.671,527.814 511.317,497.84 511.317,454.779 C511.317,419.443 495.759,403.442 443.264,385.396 z M525.876,411.346 C525.876,476.724 580.48,527.417 650.755,527.417 C670.627,527.417 687.638,523.748 708.625,514.458 L708.625,463.388 C690.17,480.747 673.826,487.75 652.903,487.75 C606.422,487.75 573.433,456.066 573.433,411.028 C573.433,368.319 607.473,334.633 650.755,334.633 C672.775,334.633 689.43,342.015 708.625,359.657 L708.625,308.612 C688.36,298.953 671.705,294.949 651.852,294.949 C581.934,294.949 525.876,346.673 525.876,411.346 z M1074.54,449.639 L1011.441,300.235 L961.03,300.235 L1061.432,528.372 L1086.268,528.372 L1188.48,300.235 L1138.452,300.235 L1074.54,449.639 z M1209.348,523.007 L1340.226,523.007 L1340.226,485.351 L1255.463,485.351 L1255.463,425.309 L1337.099,425.309 L1337.099,387.636 L1255.463,387.636 L1255.463,338.267 L1340.226,338.267 L1340.226,300.576 L1209.348,300.576 z M1430.373,402.975 C1459.843,402.975 1475.465,390.944 1475.465,368.584 C1475.465,346.937 1459.843,335.611 1431.105,335.611 L1416.891,335.611 L1416.891,402.974 L1430.374,402.974 z M1522.95,366.247 C1522.95,324.604 1492.447,300.576 1439.22,300.576 L1370.792,300.576 L1370.792,523.007 L1416.889,523.007 L1416.889,433.653 L1422.904,433.653 L1486.78,523.007 L1543.535,523.007 L1469.056,429.305 C1503.818,422.654 1522.95,400.302 1522.95,366.247 z M723.652,411.756 C723.652,477.109 780.005,530.087 849.521,530.087 C919.037,530.087 975.39,477.109 975.39,411.756 L975.39,411.679 C975.39,346.326 919.037,293.426 849.521,293.426 C780.005,293.426 723.652,346.327 723.652,411.679 L723.652,411.756 z" fill="#000000"/>
  </g>
</svg>
