<?xml version="1.0" encoding="UTF-8"?>
<!DOCTYPE svg PUBLIC "-//W3C//DTD SVG 1.1//EN" "http://www.w3.org/Graphics/SVG/1.1/DTD/svg11.dtd">
<svg version="1.1" xmlns="http://www.w3.org/2000/svg" xmlns:xlink="http://www.w3.org/1999/xlink" x="0" y="0" width="16" height="16" viewBox="0, 0, 16, 16">
  <g id="Background"/>
  <g id="icomoon-ignore">
    <path d="M0,3.83 C0,3.358 0.382,2.976 0.853,2.976 L15.147,2.976 C15.618,2.976 16,3.358 16,3.83 L16,12.17 C16,12.642 15.618,13.024 15.147,13.024 L0.853,13.024 C0.382,13.024 0,12.642 0,12.17 L0,3.83 z M12.479,8.031 C12.479,5.91 10.709,4.444 8.769,4.445 L7.099,4.445 C5.137,4.444 3.521,5.911 3.521,8.031 C3.521,9.971 5.137,11.564 7.099,11.555 L8.769,11.555 C10.709,11.564 12.479,9.97 12.479,8.031 z M7.108,4.739 C5.314,4.739 3.861,6.196 3.86,7.994 C3.861,9.791 5.314,11.247 7.108,11.248 C8.901,11.247 10.355,9.791 10.356,7.994 C10.355,6.196 8.902,4.739 7.108,4.739 z M5.049,7.994 C5.051,7.115 5.599,6.366 6.37,6.068 L6.37,9.919 C5.599,9.621 5.051,8.872 5.049,7.994 z M7.844,9.919 L7.844,6.068 C8.617,6.365 9.165,7.115 9.166,7.994 C9.165,8.873 8.617,9.622 7.844,9.919 z" fill="#000000"/>
  </g>
</svg>
