<?xml version="1.0" encoding="UTF-8"?>
<!DOCTYPE svg PUBLIC "-//W3C//DTD SVG 1.1//EN" "http://www.w3.org/Graphics/SVG/1.1/DTD/svg11.dtd">
<svg version="1.1" xmlns="http://www.w3.org/2000/svg" xmlns:xlink="http://www.w3.org/1999/xlink" x="0" y="0" width="26" height="16" viewBox="0, 0, 26, 16">
  <g id="Background">
    <rect x="0" y="0" width="26" height="16" fill="#000000" fill-opacity="0"/>
  </g>
  <g id="icomoon-ignore">
    <path d="M0.261,1.359 C0.261,0.608 0.87,0 1.62,0 L24.38,0 C25.131,0 25.739,0.608 25.739,1.359 L25.739,14.641 C25.739,15.392 25.13,16 24.38,16 L1.62,16 C0.869,16 0.261,15.392 0.261,14.641 L0.261,1.359 z M20.132,8.049 C20.132,4.672 17.313,2.338 14.224,2.339 L11.566,2.339 C8.441,2.338 5.868,4.673 5.868,8.049 C5.868,11.138 8.441,13.676 11.566,13.661 L14.224,13.661 C17.313,13.676 20.132,11.137 20.132,8.049 z M11.579,2.807 C8.723,2.808 6.409,5.127 6.408,7.99 C6.409,10.852 8.723,13.171 11.579,13.172 C14.435,13.171 16.75,10.852 16.751,7.99 C16.75,5.127 14.436,2.808 11.579,2.807 z M8.301,7.99 C8.304,6.591 9.176,5.398 10.405,4.924 L10.405,11.055 C9.176,10.581 8.304,9.389 8.301,7.99 z M12.752,11.056 L12.752,4.924 C13.982,5.397 14.855,6.59 14.857,7.99 C14.855,9.39 13.982,10.583 12.752,11.056 z" fill="#000000"/>
  </g>
</svg>
