<?xml version="1.0" encoding="UTF-8"?>
<!DOCTYPE svg PUBLIC "-//W3C//DTD SVG 1.1//EN" "http://www.w3.org/Graphics/SVG/1.1/DTD/svg11.dtd">
<svg version="1.1" xmlns="http://www.w3.org/2000/svg" xmlns:xlink="http://www.w3.org/1999/xlink" x="0" y="0" width="16" height="16" viewBox="0, 0, 16, 16">
  <g id="Background">
    <rect x="0" y="0" width="16" height="16" fill="#000000" fill-opacity="0"/>
  </g>
  <g id="Background"/>
  <g id="icomoon-ignore">
    <path d="M0,3.83 C0,3.358 0.382,2.976 0.853,2.976 L15.147,2.976 C15.618,2.976 16,3.358 16,3.83 L16,12.17 C16,12.642 15.618,13.024 15.147,13.024 L0.853,13.024 C0.382,13.024 0,12.642 0,12.17 z M3.188,12.842 L15.079,12.842 C15.48,12.842 15.805,12.518 15.805,12.117 L15.805,8.29 C15.805,8.29 11.349,11.434 3.188,12.842 z M1.864,7.565 C2.02,7.434 2.114,7.224 2.114,7.015 C2.114,6.806 2.02,6.603 1.864,6.471 C1.714,6.345 1.537,6.295 1.244,6.295 L1.123,6.295 L1.123,7.739 L1.244,7.739 C1.537,7.739 1.721,7.686 1.864,7.565 z M1.334,5.926 L0.67,5.926 L0.67,8.108 L1.331,8.108 C1.683,8.108 1.937,8.03 2.16,7.856 C2.425,7.65 2.581,7.339 2.581,7.018 C2.581,6.374 2.069,5.926 1.334,5.926 z M2.79,8.108 L3.242,8.108 L3.242,5.926 L2.79,5.926 z M4.349,6.758 C4.078,6.663 3.998,6.601 3.998,6.483 C3.998,6.345 4.14,6.241 4.336,6.241 C4.471,6.241 4.582,6.293 4.701,6.417 L4.937,6.126 C4.743,5.966 4.51,5.884 4.255,5.884 C3.845,5.884 3.531,6.152 3.531,6.51 C3.531,6.81 3.677,6.964 4.103,7.108 C4.28,7.167 4.37,7.206 4.415,7.232 C4.506,7.288 4.551,7.366 4.551,7.458 C4.551,7.635 4.402,7.766 4.199,7.766 C3.983,7.766 3.809,7.665 3.705,7.475 L3.413,7.74 C3.622,8.028 3.872,8.155 4.216,8.155 C4.687,8.155 5.017,7.861 5.017,7.439 C5.017,7.092 4.864,6.935 4.349,6.758 z M5.16,7.012 C5.16,7.654 5.696,8.151 6.385,8.151 C6.581,8.151 6.747,8.116 6.953,8.024 L6.953,7.523 C6.772,7.694 6.612,7.762 6.407,7.762 C5.95,7.762 5.627,7.451 5.627,7.009 C5.627,6.59 5.961,6.26 6.385,6.26 C6.601,6.26 6.765,6.332 6.953,6.505 L6.953,6.004 C6.755,5.909 6.591,5.87 6.396,5.87 C5.71,5.87 5.16,6.378 5.16,7.012 z M10.544,7.388 L9.925,5.922 L9.43,5.922 L10.415,8.161 L10.659,8.161 L11.662,5.922 L11.171,5.922 L10.544,7.388 z M11.867,8.108 L13.151,8.108 L13.151,7.739 L12.319,7.739 L12.319,7.149 L13.12,7.149 L13.12,6.78 L12.319,6.78 L12.319,6.295 L13.151,6.295 L13.151,5.926 L11.867,5.926 z M14.036,6.93 C14.325,6.93 14.478,6.812 14.478,6.593 C14.478,6.38 14.325,6.269 14.043,6.269 L13.903,6.269 L13.903,6.93 L14.036,6.93 z M14.944,6.57 C14.944,6.161 14.645,5.926 14.122,5.926 L13.451,5.926 L13.451,8.108 L13.903,8.108 L13.903,7.231 L13.962,7.231 L14.589,8.108 L15.146,8.108 L14.415,7.189 C14.756,7.123 14.944,6.904 14.944,6.57 z M7.101,7.017 C7.101,7.658 7.654,8.178 8.336,8.178 C9.018,8.178 9.571,7.658 9.571,7.017 L9.571,7.015 C9.571,6.374 9.018,5.855 8.336,5.855 C7.654,5.855 7.101,6.374 7.101,7.015 L7.101,7.017 z" fill="#000000"/>
  </g>
</svg>
