<?xml version="1.0" encoding="UTF-8"?>
<!DOCTYPE svg PUBLIC "-//W3C//DTD SVG 1.1//EN" "http://www.w3.org/Graphics/SVG/1.1/DTD/svg11.dtd">
<svg version="1.1" xmlns="http://www.w3.org/2000/svg" xmlns:xlink="http://www.w3.org/1999/xlink" x="0" y="0" width="26" height="16" viewBox="0, 0, 26, 16">
  <g id="Background">
    <rect x="0" y="0" width="26" height="16" fill="#000000" fill-opacity="0"/>
  </g>
  <g id="icomoon-ignore">
    <path d="M0.261,1.359 L0.261,14.641 C0.261,15.392 0.869,16 1.62,16 L24.38,16 C25.13,16 25.739,15.392 25.739,14.641 L25.739,1.359 C25.739,0.608 25.131,0 24.38,0 L1.62,0 C0.87,0 0.261,0.608 0.261,1.359 z M6.348,8.797 C6.348,8.797 6.339,5.756 6.349,4.356 C6.487,3.538 7.324,2.925 8.145,3 L10.431,3 C10.429,5.784 10.429,8.567 10.424,11.351 C10.399,12.174 9.681,12.896 8.856,12.916 C8.02,12.919 7.185,12.916 6.349,12.917 L6.349,9.44 C6.969,9.554 7.593,9.676 8.228,9.639 C8.837,9.607 9.571,9.514 9.92,8.945 C10.178,8.524 10.062,8.022 10.084,7.557 L10.076,6.367 C9.605,6.369 9.135,6.372 8.664,6.374 C8.657,7.067 8.678,7.76 8.653,8.452 C8.599,8.911 8.107,9.148 7.684,9.105 C7.196,9.101 6.761,8.918 6.348,8.797 L6.348,8.797 z M10.957,6.881 C10.962,6.098 10.946,5.315 10.965,4.532 C11.022,3.787 11.649,3.16 12.385,3.069 C13.126,3.044 13.869,3.065 14.61,3.058 L15.042,3.058 C15.04,5.855 15.046,8.652 15.039,11.449 C14.986,12.318 14.147,13.047 13.279,12.965 L10.957,12.965 L10.957,9.159 C11.562,9.637 12.38,9.709 13.126,9.699 C13.616,9.686 14.104,9.614 14.577,9.483 C14.573,9.253 14.57,9.023 14.566,8.793 C13.899,9.114 13.072,9.341 12.376,8.976 C11.823,8.659 11.758,7.863 12.054,7.35 C12.419,6.818 13.156,6.802 13.731,6.915 C14.012,6.94 14.391,7.192 14.577,7.186 L14.577,6.554 C13.614,6.311 12.582,6.232 11.617,6.508 C11.377,6.59 11.143,6.706 10.957,6.881 L10.957,6.881 z M15.511,9.552 L18.082,9.552 C18.56,9.57 19.143,9.264 19.132,8.725 C19.14,8.225 18.625,7.94 18.183,7.904 C18.537,7.863 18.896,7.615 18.931,7.237 C19.012,6.743 18.532,6.39 18.082,6.379 C17.225,6.366 16.368,6.377 15.511,6.374 L15.511,4.717 C15.453,3.856 16.18,3.056 17.037,3.005 C17.888,2.994 18.74,3.003 19.591,3 L19.591,11.251 C19.634,12.087 18.921,12.837 18.1,12.91 C17.238,12.917 16.374,12.911 15.511,12.913 L15.511,9.552 z M16.328,6.905 L17.21,6.905 C17.21,6.905 17.624,6.905 17.624,7.308 C17.624,7.712 17.21,7.713 17.21,7.713 L16.328,7.713 L16.328,6.905 z M17.272,8.187 L17.272,8.187 C17.272,8.187 17.737,8.16 17.737,8.621 C17.737,9.082 17.274,9.055 17.272,9.055 L16.328,9.055 L16.328,8.187 L17.272,8.187 z" fill="#000000"/>
  </g>
</svg>
