<?xml version="1.0" encoding="UTF-8"?>
<!DOCTYPE svg PUBLIC "-//W3C//DTD SVG 1.1//EN" "http://www.w3.org/Graphics/SVG/1.1/DTD/svg11.dtd">
<svg version="1.1" xmlns="http://www.w3.org/2000/svg" xmlns:xlink="http://www.w3.org/1999/xlink" x="0" y="0" width="16" height="16" viewBox="0, 0, 16, 16">
  <g id="Background">
    <rect x="0" y="0" width="16" height="16" fill="#000000" fill-opacity="0"/>
  </g>
  <g id="Background"/>
  <g id="icomoon-ignore">
    <path d="M0,3.83 L0,12.17 C0,12.642 0.382,13.024 0.853,13.024 L15.147,13.024 C15.618,13.024 16,12.642 16,12.17 L16,3.83 C16,3.358 15.618,2.976 15.147,2.976 L0.853,2.976 C0.382,2.976 0,3.358 0,3.83 z M3.823,8.501 C3.823,8.501 3.817,6.591 3.823,5.712 C3.91,5.198 4.436,4.813 4.951,4.86 L6.387,4.86 C6.385,6.608 6.385,8.356 6.382,10.104 C6.367,10.621 5.916,11.075 5.398,11.087 C4.873,11.089 4.348,11.087 3.823,11.088 L3.823,8.904 C4.213,8.976 4.604,9.053 5.003,9.029 C5.386,9.009 5.847,8.951 6.066,8.593 C6.228,8.329 6.155,8.014 6.169,7.722 L6.164,6.974 C5.868,6.976 5.573,6.978 5.277,6.979 C5.273,7.414 5.286,7.849 5.27,8.284 C5.236,8.572 4.927,8.721 4.662,8.694 C4.355,8.691 4.082,8.576 3.823,8.501 L3.823,8.501 z M6.717,7.297 C6.72,6.806 6.71,6.314 6.722,5.822 C6.758,5.354 7.152,4.961 7.614,4.903 C8.079,4.888 8.546,4.901 9.011,4.896 L9.282,4.896 C9.281,6.653 9.285,8.409 9.28,10.166 C9.247,10.712 8.72,11.169 8.175,11.118 L6.717,11.118 L6.717,8.728 C7.097,9.028 7.611,9.073 8.079,9.067 C8.387,9.059 8.693,9.014 8.99,8.931 C8.988,8.787 8.986,8.642 8.983,8.498 C8.565,8.7 8.045,8.842 7.608,8.613 C7.261,8.414 7.22,7.914 7.406,7.592 C7.635,7.258 8.098,7.248 8.459,7.319 C8.636,7.334 8.874,7.493 8.99,7.489 L8.99,7.092 C8.386,6.939 7.737,6.89 7.131,7.063 C6.981,7.115 6.834,7.187 6.717,7.297 L6.717,7.297 z M9.577,8.975 L11.191,8.975 C11.492,8.986 11.858,8.794 11.851,8.455 C11.856,8.141 11.532,7.962 11.255,7.94 C11.477,7.914 11.703,7.758 11.725,7.521 C11.775,7.211 11.474,6.989 11.191,6.982 C10.653,6.974 10.115,6.981 9.577,6.979 L9.577,5.938 C9.54,5.398 9.997,4.895 10.535,4.863 C11.07,4.856 11.605,4.862 12.139,4.86 L12.139,10.042 C12.166,10.567 11.718,11.038 11.203,11.083 C10.661,11.088 10.119,11.084 9.577,11.085 L9.577,8.975 z M10.09,7.312 L10.644,7.312 C10.644,7.312 10.904,7.312 10.904,7.565 C10.904,7.819 10.644,7.82 10.644,7.82 L10.09,7.82 L10.09,7.312 z M10.683,8.117 L10.683,8.117 C10.683,8.117 10.975,8.1 10.975,8.39 C10.975,8.679 10.684,8.663 10.683,8.663 L10.09,8.663 L10.09,8.117 L10.683,8.117 z" fill="#000000"/>
  </g>
</svg>
