<?xml version="1.0" encoding="UTF-8"?>
<!DOCTYPE svg PUBLIC "-//W3C//DTD SVG 1.1//EN" "http://www.w3.org/Graphics/SVG/1.1/DTD/svg11.dtd">
<svg version="1.1" xmlns="http://www.w3.org/2000/svg" xmlns:xlink="http://www.w3.org/1999/xlink" x="0" y="0" width="26" height="16" viewBox="0, 0, 26, 16">
  <g id="Background">
    <rect x="0" y="0" width="26" height="16" fill="#000000" fill-opacity="0"/>
  </g>
  <g id="icomoon-ignore">
    <path d="M0.261,14.641 C0.261,15.392 0.869,16 1.62,16 L24.38,16 C25.13,16 25.739,15.392 25.739,14.641 L25.739,1.359 C25.739,0.608 25.131,0 24.38,0 L1.62,0 C0.87,0 0.261,0.608 0.261,1.359 z M24.175,7.999 C24.175,11.816 21.064,14.923 17.239,14.923 C15.643,14.923 14.173,14.381 13,13.475 C11.827,14.381 10.356,14.923 8.761,14.923 C4.936,14.923 1.825,11.816 1.825,7.999 C1.825,4.182 4.936,1.077 8.761,1.077 C10.356,1.077 11.827,1.617 13,2.524 C14.173,1.617 15.643,1.077 17.239,1.077 C21.064,1.077 24.175,4.182 24.175,7.999 z M17.239,1.696 C20.726,1.696 23.554,4.518 23.554,7.999 C23.554,11.48 20.726,14.302 17.239,14.302 C15.832,14.302 14.533,13.842 13.483,13.066 C14.378,12.234 15.054,11.167 15.412,9.967 L14.762,9.967 C14.416,11.018 13.803,11.945 13,12.671 C12.197,11.945 11.584,11.018 11.239,9.967 L10.589,9.967 C10.946,11.167 11.622,12.234 12.517,13.066 C11.467,13.842 10.169,14.302 8.761,14.302 C5.273,14.302 2.446,11.48 2.446,7.999 C2.446,4.518 5.273,1.696 8.761,1.696 C10.169,1.696 11.467,2.156 12.517,2.933 C11.566,3.817 10.862,4.965 10.524,6.259 L11.168,6.259 C11.496,5.115 12.141,4.105 13,3.328 C13.859,4.105 14.503,5.115 14.832,6.259 L15.475,6.259 C15.139,4.965 14.435,3.817 13.483,2.933 C14.533,2.156 15.832,1.696 17.239,1.696 z M6.205,6.497 L5.194,6.497 L4.562,8.377 L4.536,6.497 L3.598,6.497 L3.09,9.535 L3.7,9.535 L4.091,7.214 L4.146,9.535 L4.59,9.535 L5.423,7.2 L5.05,9.535 L5.701,9.535 L6.205,6.497 z M7.416,8.434 C7.404,8.799 7.213,9.051 6.948,9.051 C6.806,9.051 6.715,8.953 6.715,8.799 C6.715,8.55 6.901,8.424 7.271,8.424 C7.318,8.424 7.348,8.427 7.416,8.434 z M7.89,9.535 C7.906,9.348 8.027,8.581 8.084,8.224 C8.117,8.017 8.137,7.86 8.137,7.733 C8.137,7.259 7.841,7.009 7.282,7.009 C7.041,7.009 6.827,7.045 6.503,7.141 C6.503,7.141 6.419,7.655 6.412,7.696 C6.52,7.66 6.783,7.581 7.101,7.585 C7.406,7.585 7.519,7.646 7.519,7.809 C7.519,7.854 7.514,7.888 7.494,7.97 C7.397,7.958 7.302,7.951 7.228,7.951 C6.505,7.951 6.085,8.301 6.085,8.904 C6.085,9.302 6.326,9.578 6.68,9.578 C6.978,9.578 7.198,9.481 7.362,9.279 L7.35,9.535 L7.89,9.535 z M16.397,6.422 C15.534,6.422 14.931,7.181 14.931,8.267 C14.931,9.073 15.367,9.578 16.069,9.578 C16.248,9.578 16.404,9.554 16.644,9.488 L16.758,8.796 C16.543,8.902 16.366,8.953 16.205,8.953 C15.826,8.953 15.598,8.673 15.598,8.213 C15.598,7.543 15.938,7.074 16.424,7.074 C16.605,7.074 16.774,7.121 17.006,7.239 L17.113,6.58 C17.017,6.543 16.682,6.422 16.397,6.422 z M18.274,8.434 C18.263,8.799 18.072,9.051 17.807,9.051 C17.664,9.051 17.572,8.953 17.572,8.799 C17.572,8.55 17.759,8.424 18.128,8.424 C18.176,8.424 18.206,8.427 18.274,8.434 z M18.748,9.535 C18.764,9.348 18.886,8.581 18.942,8.224 C18.975,8.017 18.996,7.86 18.995,7.733 C18.996,7.259 18.699,7.009 18.139,7.009 C17.9,7.009 17.685,7.045 17.361,7.141 C17.361,7.141 17.277,7.655 17.271,7.696 C17.379,7.66 17.641,7.581 17.96,7.585 C18.264,7.585 18.377,7.646 18.377,7.809 C18.377,7.854 18.372,7.888 18.352,7.97 C18.255,7.958 18.16,7.951 18.086,7.951 C17.364,7.951 16.943,8.301 16.943,8.904 C16.943,9.302 17.185,9.578 17.538,9.578 C17.836,9.578 18.056,9.481 18.221,9.279 L18.209,9.535 L18.748,9.535 z M11.091,8.95 C11.047,8.966 10.99,8.974 10.916,8.974 C10.761,8.974 10.692,8.919 10.692,8.791 C10.694,8.712 10.801,8.128 10.876,7.659 L11.21,7.659 L11.298,7.065 L10.965,7.065 L11.041,6.692 L10.394,6.692 C10.394,6.692 10.149,8.146 10.112,8.376 C10.071,8.639 10.018,8.926 10.022,9.035 C10.022,9.386 10.203,9.578 10.536,9.578 C10.687,9.578 10.826,9.553 11.005,9.498 L11.091,8.95 z M13.083,9.478 L13.19,8.863 C12.957,8.971 12.749,9.018 12.517,9.018 C12.141,9.018 11.911,8.869 11.954,8.512 L13.243,8.512 C13.299,8.261 13.324,8.085 13.324,7.904 C13.324,7.357 12.982,7.009 12.449,7.009 C11.796,7.009 11.315,7.631 11.315,8.475 C11.315,9.199 11.693,9.576 12.418,9.578 C12.645,9.578 12.86,9.546 13.083,9.478 z M12.719,8.013 L12.004,8.013 C12.063,7.729 12.211,7.571 12.417,7.571 C12.787,7.571 12.723,7.962 12.719,8.013 z M8.39,7.845 C8.39,8.158 8.541,8.373 8.886,8.535 C9.149,8.66 9.19,8.696 9.19,8.808 C9.19,8.961 9.074,9.031 8.816,9.031 C8.622,9.031 8.441,9.002 8.232,8.934 C8.232,8.934 8.146,9.478 8.142,9.505 C8.291,9.536 8.423,9.567 8.821,9.578 C9.508,9.578 9.825,9.316 9.825,8.752 C9.825,8.412 9.693,8.214 9.366,8.064 C9.093,7.939 9.061,7.911 9.061,7.796 C9.061,7.661 9.17,7.594 9.381,7.594 C9.508,7.594 9.684,7.608 9.848,7.631 L9.941,7.058 C9.772,7.032 9.517,7.009 9.368,7.009 C8.639,7.009 8.387,7.389 8.39,7.845 z M22.416,9.535 L22.912,6.497 L22.269,6.497 L22.125,7.375 C21.947,7.141 21.755,7.038 21.503,7.038 C20.928,7.038 20.443,7.731 20.443,8.553 C20.443,9.171 20.756,9.578 21.23,9.578 C21.468,9.578 21.651,9.495 21.83,9.305 L21.799,9.535 L22.416,9.535 z M21.455,8.964 C21.758,8.964 21.972,8.621 21.972,8.132 C21.972,7.818 21.851,7.648 21.626,7.648 C21.331,7.648 21.121,7.991 21.121,8.477 C21.121,8.801 21.233,8.964 21.455,8.964 z M19.445,7.065 C19.364,7.829 19.219,8.603 19.106,9.368 L19.076,9.535 L19.727,9.535 C19.96,8.024 20.017,7.729 20.382,7.766 C20.44,7.456 20.548,7.186 20.63,7.05 C20.356,6.993 20.204,7.148 20.005,7.44 C20.021,7.313 20.05,7.19 20.043,7.065 L19.445,7.065 z M13.753,7.065 C13.671,7.829 13.526,8.603 13.413,9.368 L13.383,9.535 L14.034,9.535 C14.268,8.024 14.324,7.729 14.688,7.766 C14.747,7.456 14.856,7.186 14.936,7.05 C14.664,6.993 14.511,7.148 14.312,7.44 C14.328,7.313 14.356,7.19 14.351,7.065 L13.753,7.065 z" fill="#000000"/>
  </g>
</svg>
