<?xml version="1.0" encoding="UTF-8"?>
<!DOCTYPE svg PUBLIC "-//W3C//DTD SVG 1.1//EN" "http://www.w3.org/Graphics/SVG/1.1/DTD/svg11.dtd">
<svg version="1.1" xmlns="http://www.w3.org/2000/svg" xmlns:xlink="http://www.w3.org/1999/xlink" x="0" y="0" width="1631" height="1024" viewBox="0, 0, 1631, 1024">
  <g id="Background">
    <rect x="0" y="0" width="1631" height="1024" fill="#000000" fill-opacity="0"/>
  </g>
  <g id="icomoon-ignore">
    <path d="M-0,937.026 C-0,985.07 38.927,1024 86.946,1024 L1543.626,1024 C1591.625,1024 1630.572,985.06 1630.572,937.026 L1630.572,86.975 C1630.572,38.931 1591.645,0.001 1543.626,0.001 L86.946,0.001 C38.947,0.001 -0,38.941 -0,86.975 z M1530.51,511.957 C1530.51,756.243 1331.35,955.05 1086.565,955.05 C984.467,955.05 890.345,920.39 815.257,862.429 C740.218,920.39 646.098,955.05 543.995,955.05 C299.216,955.05 100.065,756.243 100.065,511.957 C100.065,267.662 299.216,68.949 543.995,68.949 C646.098,68.949 740.219,103.479 815.257,161.524 C890.346,103.479 984.467,68.949 1086.565,68.949 C1331.35,68.949 1530.51,267.662 1530.51,511.957 z M1086.564,108.565 C1309.773,108.565 1490.725,289.145 1490.725,511.957 C1490.725,734.712 1309.773,915.348 1086.564,915.348 C996.515,915.348 913.381,885.905 846.219,836.22 C903.506,782.945 946.738,714.69 969.635,637.858 L928.043,637.858 C905.941,705.132 866.653,764.511 815.256,810.931 C763.919,764.511 724.681,705.132 702.578,637.858 L660.976,637.858 C683.833,714.69 727.075,782.945 784.392,836.22 C717.191,885.905 634.087,915.348 543.993,915.348 C320.784,915.348 139.836,734.711 139.836,511.957 C139.836,289.145 320.784,108.565 543.993,108.565 C634.086,108.565 717.19,138.009 784.392,187.697 C723.479,244.275 678.43,317.746 656.854,400.547 L698.059,400.547 C719.059,327.343 760.293,262.715 815.256,212.978 C870.279,262.716 911.483,327.344 932.563,400.547 L973.708,400.547 C952.182,317.747 907.133,244.275 846.219,187.697 C913.38,138.009 996.515,108.565 1086.564,108.565 z M380.41,415.805 L315.693,415.805 L275.249,536.138 L273.564,415.805 L213.59,415.805 L181.034,610.228 L220.062,610.228 L245.129,461.691 L248.63,610.228 L277.065,610.228 L330.353,460.804 L306.477,610.228 L348.16,610.228 L380.41,415.805 z M457.928,539.767 C457.171,563.15 444.949,579.286 427.937,579.286 C418.899,579.286 413.051,573.013 413.051,563.149 C413.051,547.228 424.967,539.147 448.622,539.147 C451.633,539.147 453.542,539.32 457.927,539.767 z M488.221,610.228 C489.288,598.25 497.041,549.177 500.673,526.328 C502.753,513.103 504.084,503.069 504.042,494.937 C504.085,464.607 485.125,448.606 449.333,448.606 C433.916,448.606 420.192,450.906 399.459,457.005 C399.459,457.005 394.1,489.895 393.654,492.548 C400.565,490.251 417.397,485.163 437.769,485.43 C457.26,485.43 464.486,489.365 464.486,499.797 C464.486,502.628 464.175,504.835 462.887,510.098 C456.686,509.304 450.618,508.863 445.88,508.863 C399.634,508.863 372.751,531.273 372.751,569.825 C372.751,595.337 388.164,612.977 410.802,612.977 C429.886,612.977 443.928,606.781 454.474,593.827 L453.671,610.227 L488.221,610.227 z M1032.714,411.03 C977.473,411.03 938.841,459.569 938.841,529.071 C938.841,580.7 966.804,612.978 1011.675,612.978 C1023.188,612.978 1033.152,611.468 1048.479,607.228 L1055.79,562.972 C1042.012,569.741 1030.678,572.963 1020.386,572.963 C996.158,572.963 981.535,555.102 981.535,525.613 C981.535,482.778 1003.3,452.758 1034.432,452.758 C1045.995,452.758 1056.803,455.767 1071.683,463.284 L1078.507,421.112 C1072.398,418.727 1050.911,411.032 1032.713,411.032 z M1152.842,539.767 C1152.137,563.15 1139.869,579.286 1122.902,579.286 C1113.773,579.286 1107.922,573.013 1107.922,563.149 C1107.922,547.228 1119.882,539.147 1143.494,539.147 C1146.554,539.147 1148.501,539.32 1152.842,539.767 z M1183.14,610.228 C1184.213,598.25 1192.001,549.177 1195.587,526.328 C1197.673,513.103 1199.044,503.069 1198.955,494.937 C1199.005,464.607 1180.041,448.606 1144.201,448.606 C1128.873,448.606 1115.145,450.906 1094.374,457.005 C1094.374,457.005 1089.01,489.895 1088.612,492.548 C1095.526,490.251 1112.314,485.163 1132.727,485.43 C1152.177,485.43 1159.399,489.365 1159.399,499.797 C1159.399,502.628 1159.081,504.835 1157.81,510.098 C1151.601,509.304 1145.532,508.863 1140.794,508.863 C1094.593,508.863 1067.613,531.273 1067.613,569.825 C1067.613,595.337 1083.119,612.977 1105.709,612.977 C1124.762,612.977 1138.848,606.781 1149.437,593.827 L1148.642,610.227 L1183.142,610.227 z M693.092,572.826 C690.301,573.806 686.625,574.329 681.887,574.329 C671.963,574.329 667.583,570.797 667.583,562.615 C667.672,557.58 674.537,520.179 679.325,490.159 L700.712,490.159 L706.384,452.138 L685.076,452.138 L689.904,428.275 L648.484,428.275 C648.484,428.275 632.808,521.329 630.46,536.049 C627.802,552.895 624.437,571.239 624.697,578.221 C624.697,600.728 636.306,612.977 657.609,612.977 C667.274,612.977 676.165,611.378 687.609,607.847 L693.092,572.826 z M820.581,606.608 L827.445,567.262 C812.564,574.155 799.223,577.164 784.392,577.164 C760.293,577.164 745.581,567.611 748.373,544.763 L830.852,544.763 C834.448,528.711 835.998,517.438 835.998,505.855 C835.998,470.842 814.154,448.607 780.002,448.607 C738.231,448.607 707.447,488.393 707.447,542.419 C707.447,588.705 731.626,612.882 778.055,612.978 C792.578,612.978 806.316,610.946 820.581,606.608 z M797.276,512.844 L751.522,512.844 C755.327,494.67 764.803,484.544 778.005,484.544 C801.657,484.544 797.545,509.572 797.276,512.844 z M520.253,502.098 C520.253,522.127 529.908,535.874 551.967,546.264 C568.846,554.219 571.458,556.515 571.458,563.73 C571.458,573.535 564.016,577.957 547.493,577.957 C535.092,577.957 523.485,576.098 510.148,571.773 C510.148,571.773 504.662,606.607 504.393,608.292 C513.919,610.325 522.332,612.261 547.803,612.977 C591.786,612.977 612.077,596.217 612.077,560.143 C612.077,538.352 603.614,525.708 582.702,516.108 C565.257,508.065 563.219,506.295 563.219,498.914 C563.219,490.336 570.173,486.002 583.68,486.002 C591.829,486.002 603.035,486.889 613.577,488.391 L619.518,451.699 C608.707,450.018 592.363,448.605 582.837,448.605 C536.195,448.605 520.073,472.874 520.251,502.097 z M1417.902,610.228 L1449.63,415.805 L1408.515,415.805 L1399.306,471.992 C1387.912,457.005 1375.604,450.461 1359.472,450.461 C1322.708,450.461 1291.665,494.755 1291.665,547.415 C1291.665,586.934 1311.681,612.977 1341.989,612.977 C1357.227,612.977 1368.959,607.672 1380.432,595.512 L1378.445,610.228 L1417.902,610.228 z M1356.383,573.717 C1375.783,573.717 1389.472,551.74 1389.472,520.441 C1389.472,500.327 1381.724,489.449 1367.36,489.449 C1348.446,489.449 1335.026,511.422 1335.026,542.503 C1335.026,563.234 1342.208,573.717 1356.383,573.717 z M1227.791,452.137 C1222.566,501.036 1213.308,550.59 1206.086,599.578 L1204.179,610.227 L1245.821,610.227 C1260.751,513.547 1264.377,494.669 1287.721,497.055 C1291.436,477.204 1298.35,459.925 1303.575,451.172 C1286.092,447.54 1276.337,457.446 1263.632,476.147 C1264.645,468.011 1266.463,460.184 1266.066,452.137 L1227.792,452.137 z M863.464,452.137 C858.229,501.036 848.931,550.59 841.709,599.578 L839.802,610.227 L881.484,610.227 C896.414,513.547 900,494.669 923.344,497.055 C927.109,477.204 934.062,459.925 939.208,451.172 C921.794,447.54 911.97,457.446 899.245,476.147 C900.268,468.011 902.076,460.184 901.728,452.137 L863.464,452.137 z" fill="#000000"/>
  </g>
</svg>
