<?xml version="1.0" encoding="UTF-8"?>
<!DOCTYPE svg PUBLIC "-//W3C//DTD SVG 1.1//EN" "http://www.w3.org/Graphics/SVG/1.1/DTD/svg11.dtd">
<svg version="1.1" xmlns="http://www.w3.org/2000/svg" xmlns:xlink="http://www.w3.org/1999/xlink" x="0" y="0" width="16" height="16" viewBox="0, 0, 16, 16">
  <g id="Background">
    <rect x="0" y="0" width="16" height="16" fill="#000000" fill-opacity="0"/>
  </g>
  <g id="Background"/>
  <g id="icomoon-ignore">
    <path d="M0,12.17 C0,12.642 0.382,13.024 0.853,13.024 L15.147,13.024 C15.618,13.024 16,12.642 16,12.17 L16,3.83 C16,3.358 15.618,2.976 15.147,2.976 L0.853,2.976 C0.382,2.976 0,3.358 0,3.83 z M15.018,7.999 C15.018,10.396 13.064,12.348 10.662,12.348 C9.66,12.348 8.737,12.007 8,11.438 C7.263,12.007 6.34,12.348 5.338,12.348 C2.936,12.348 0.982,10.396 0.982,7.999 C0.982,5.602 2.936,3.652 5.338,3.652 C6.34,3.652 7.263,3.992 8,4.561 C8.737,3.992 9.66,3.652 10.662,3.652 C13.064,3.652 15.018,5.602 15.018,7.999 z M10.662,4.041 C12.852,4.041 14.628,5.813 14.628,7.999 C14.628,10.185 12.852,11.958 10.662,11.958 C9.778,11.958 8.963,11.669 8.303,11.181 C8.865,10.659 9.29,9.989 9.515,9.235 L9.107,9.235 C8.889,9.895 8.504,10.477 8,10.933 C7.496,10.477 7.111,9.895 6.894,9.235 L6.486,9.235 C6.71,9.989 7.135,10.659 7.697,11.181 C7.037,11.669 6.222,11.958 5.338,11.958 C3.148,11.958 1.372,10.185 1.372,7.999 C1.372,5.813 3.148,4.041 5.338,4.041 C6.222,4.041 7.037,4.33 7.697,4.818 C7.099,5.373 6.657,6.094 6.445,6.907 L6.85,6.907 C7.055,6.188 7.461,5.554 8,5.066 C8.539,5.554 8.944,6.188 9.15,6.907 L9.554,6.907 C9.343,6.094 8.901,5.373 8.303,4.818 C8.963,4.33 9.778,4.041 10.662,4.041 z M3.733,7.056 L3.098,7.056 L2.701,8.237 L2.685,7.056 L2.096,7.056 L1.777,8.964 L2.16,8.964 L2.405,7.506 L2.44,8.964 L2.719,8.964 L3.242,7.498 L3.007,8.964 L3.416,8.964 L3.733,7.056 z M4.493,8.273 C4.486,8.502 4.366,8.66 4.199,8.66 C4.11,8.66 4.053,8.598 4.053,8.502 C4.053,8.345 4.17,8.266 4.402,8.266 C4.432,8.266 4.451,8.268 4.493,8.273 z M4.791,8.964 C4.801,8.847 4.877,8.365 4.913,8.141 C4.934,8.011 4.946,7.912 4.946,7.832 C4.946,7.535 4.76,7.378 4.409,7.378 C4.258,7.378 4.123,7.4 3.92,7.461 C3.92,7.461 3.867,7.783 3.863,7.809 C3.931,7.786 4.096,7.737 4.295,7.739 C4.487,7.739 4.558,7.778 4.558,7.88 C4.558,7.908 4.555,7.93 4.542,7.981 C4.481,7.974 4.422,7.969 4.375,7.969 C3.921,7.969 3.657,8.189 3.657,8.568 C3.657,8.818 3.809,8.991 4.031,8.991 C4.218,8.991 4.356,8.93 4.459,8.803 L4.452,8.964 L4.791,8.964 z M10.133,7.009 C9.591,7.009 9.213,7.486 9.213,8.168 C9.213,8.674 9.486,8.991 9.927,8.991 C10.04,8.991 10.138,8.976 10.288,8.934 L10.36,8.5 C10.225,8.566 10.114,8.598 10.013,8.598 C9.775,8.598 9.632,8.423 9.632,8.134 C9.632,7.713 9.845,7.418 10.15,7.418 C10.264,7.418 10.37,7.448 10.516,7.522 L10.583,7.108 C10.523,7.085 10.312,7.009 10.133,7.009 z M11.312,8.273 C11.305,8.502 11.185,8.66 11.019,8.66 C10.929,8.66 10.871,8.598 10.871,8.502 C10.871,8.345 10.989,8.266 11.22,8.266 C11.25,8.266 11.269,8.268 11.312,8.273 z M11.61,8.964 C11.62,8.847 11.696,8.365 11.732,8.141 C11.752,8.011 11.765,7.912 11.765,7.832 C11.765,7.535 11.579,7.378 11.227,7.378 C11.077,7.378 10.942,7.4 10.739,7.461 C10.739,7.461 10.686,7.783 10.682,7.809 C10.75,7.786 10.915,7.737 11.115,7.739 C11.306,7.739 11.377,7.778 11.377,7.88 C11.377,7.908 11.374,7.93 11.361,7.981 C11.3,7.974 11.24,7.969 11.194,7.969 C10.741,7.969 10.476,8.189 10.476,8.568 C10.476,8.818 10.628,8.991 10.85,8.991 C11.037,8.991 11.175,8.93 11.279,8.803 L11.271,8.964 L11.61,8.964 z M6.801,8.597 C6.774,8.607 6.738,8.612 6.691,8.612 C6.594,8.612 6.551,8.577 6.551,8.497 C6.552,8.447 6.619,8.08 6.666,7.786 L6.876,7.786 L6.931,7.413 L6.722,7.413 L6.77,7.179 L6.363,7.179 C6.363,7.179 6.21,8.092 6.186,8.236 C6.161,8.401 6.127,8.582 6.13,8.65 C6.13,8.87 6.244,8.991 6.453,8.991 C6.547,8.991 6.635,8.975 6.747,8.941 L6.801,8.597 z M8.052,8.928 L8.119,8.542 C7.973,8.61 7.842,8.639 7.697,8.639 C7.461,8.639 7.316,8.546 7.343,8.322 L8.153,8.322 C8.188,8.164 8.203,8.053 8.203,7.94 C8.203,7.596 7.989,7.378 7.654,7.378 C7.244,7.378 6.942,7.768 6.942,8.298 C6.942,8.753 7.179,8.99 7.635,8.991 C7.777,8.991 7.912,8.971 8.052,8.928 z M7.824,8.008 L7.375,8.008 C7.412,7.83 7.505,7.731 7.634,7.731 C7.866,7.731 7.826,7.976 7.824,8.008 z M5.105,7.903 C5.105,8.099 5.2,8.234 5.416,8.336 C5.582,8.414 5.607,8.437 5.607,8.507 C5.607,8.604 5.535,8.647 5.372,8.647 C5.251,8.647 5.137,8.629 5.006,8.587 C5.006,8.587 4.952,8.928 4.949,8.945 C5.043,8.965 5.126,8.984 5.376,8.991 C5.807,8.991 6.006,8.826 6.006,8.472 C6.006,8.259 5.923,8.134 5.718,8.04 C5.546,7.962 5.526,7.944 5.526,7.872 C5.526,7.787 5.595,7.745 5.727,7.745 C5.807,7.745 5.918,7.754 6.021,7.768 L6.079,7.408 C5.973,7.392 5.813,7.378 5.719,7.378 C5.261,7.378 5.103,7.616 5.105,7.903 z M13.913,8.964 L14.225,7.056 L13.821,7.056 L13.73,7.608 C13.619,7.461 13.498,7.396 13.34,7.396 C12.979,7.396 12.674,7.831 12.674,8.347 C12.674,8.735 12.871,8.991 13.168,8.991 C13.318,8.991 13.433,8.939 13.545,8.82 L13.526,8.964 L13.913,8.964 z M13.31,8.605 C13.5,8.605 13.634,8.39 13.634,8.083 C13.634,7.886 13.558,7.779 13.417,7.779 C13.232,7.779 13.1,7.994 13.1,8.3 C13.1,8.503 13.17,8.605 13.31,8.605 z M12.047,7.413 C11.997,7.893 11.905,8.379 11.835,8.859 L11.816,8.964 L12.225,8.964 C12.371,8.015 12.407,7.83 12.636,7.853 C12.672,7.658 12.74,7.489 12.792,7.403 C12.62,7.368 12.524,7.465 12.399,7.648 C12.409,7.569 12.427,7.491 12.423,7.413 L12.047,7.413 z M8.473,7.413 C8.421,7.893 8.33,8.379 8.259,8.859 L8.241,8.964 L8.649,8.964 C8.796,8.015 8.831,7.83 9.06,7.853 C9.097,7.658 9.166,7.489 9.216,7.403 C9.045,7.368 8.949,7.465 8.824,7.648 C8.834,7.569 8.852,7.491 8.848,7.413 L8.473,7.413 z" fill="#000000"/>
  </g>
</svg>
