<?xml version="1.0" encoding="UTF-8"?>
<!DOCTYPE svg PUBLIC "-//W3C//DTD SVG 1.1//EN" "http://www.w3.org/Graphics/SVG/1.1/DTD/svg11.dtd">
<svg version="1.1" xmlns="http://www.w3.org/2000/svg" xmlns:xlink="http://www.w3.org/1999/xlink" x="0" y="0" width="750" height="471" viewBox="0, 0, 750, 471">
  <g id="Background">
    <rect x="0" y="0" width="750" height="471" fill="#000000" fill-opacity="0"/>
  </g>
  <g id="Page-1">
    <path d="M710.008,0 C732.095,0 750,17.906 750,40.005 L750,430.995 C750,453.089 732.086,471 710.008,471 L39.992,471 C17.905,471 0,453.094 0,430.995 L0,40.005 C0,17.911 17.914,0 39.992,0 L710.008,0 z M476.69,134.465 C423.966,134.465 386.826,161.016 386.509,199.07 C386.213,227.199 413.023,242.891 433.263,252.255 C454.033,261.849 461.016,267.97 460.917,276.538 C460.785,289.659 444.331,295.655 428.993,295.655 C407.637,295.655 396.291,292.688 378.767,285.378 L371.892,282.267 L364.402,326.091 C376.866,331.555 399.911,336.289 423.841,336.534 C479.93,336.534 516.341,310.288 516.755,269.652 C516.957,247.383 502.741,230.436 471.957,216.464 C453.306,207.408 441.884,201.365 442.004,192.195 C442.005,184.059 451.673,175.357 472.561,175.357 C490.01,175.087 502.65,178.891 512.497,182.857 L517.279,185.117 L524.513,142.688 C513.94,138.721 497.377,134.465 476.69,134.465 z M661.339,138.054 L620.109,138.054 C607.336,138.054 597.778,141.54 592.167,154.288 L512.922,333.691 L568.953,333.691 C568.954,333.691 578.116,309.569 580.188,304.273 C586.311,304.273 640.742,304.357 648.523,304.357 C650.12,311.21 655.016,333.691 655.016,333.691 L704.528,333.691 L661.339,138.054 z M595.543,264.231 L595.542,264.232 L595.542,264.231 L595.543,264.231 z M623.876,190.825 L627.484,207.703 C627.484,207.703 637.701,254.432 639.835,264.231 L595.543,264.231 C609.734,227.757 602.648,245.998 616.802,209.509 C616.487,210.03 621.182,198.175 623.876,190.825 z M364.371,137.867 L311.012,137.867 L277.651,333.629 L330.987,333.629 L364.371,137.867 z M132.194,137.889 L46.153,137.889 L45.472,141.962 C66.402,147.029 85.118,154.34 101.521,163.434 L148.959,333.46 L205.414,333.395 L289.418,138.01 L232.897,138.01 L180.657,271.505 L175.091,244.376 C175.09,244.373 175.089,244.37 175.088,244.367 L156.381,154.416 C153.152,142.02 143.783,138.321 132.194,137.889 z" fill="#000000"/>
  </g>
</svg>
