<?xml version="1.0" encoding="UTF-8"?>
<!DOCTYPE svg PUBLIC "-//W3C//DTD SVG 1.1//EN" "http://www.w3.org/Graphics/SVG/1.1/DTD/svg11.dtd">
<svg version="1.1" xmlns="http://www.w3.org/2000/svg" xmlns:xlink="http://www.w3.org/1999/xlink" x="0" y="0" width="16" height="16" viewBox="0, 0, 16, 16">
  <g id="Background">
    <rect x="0" y="0" width="16" height="16" fill="#000000" fill-opacity="0"/>
  </g>
  <g id="Background"/>
  <g id="Page-1">
    <path d="M15.147,2.976 C15.618,2.976 16,3.358 16,3.83 L16,12.17 C16,12.642 15.618,13.024 15.147,13.024 L0.853,13.024 C0.382,13.024 0,12.642 0,12.17 L0,3.83 C0,3.358 0.382,2.976 0.853,2.976 L15.147,2.976 z M10.169,5.845 C9.044,5.845 8.252,6.411 8.246,7.223 C8.239,7.823 8.811,8.158 9.243,8.357 C9.686,8.562 9.835,8.693 9.833,8.875 C9.83,9.156 9.479,9.283 9.152,9.283 C8.696,9.283 8.454,9.22 8.08,9.064 L7.933,8.998 L7.774,9.932 C8.04,10.049 8.531,10.15 9.042,10.155 C10.239,10.155 11.015,9.596 11.024,8.728 C11.028,8.254 10.725,7.892 10.069,7.594 C9.67,7.401 9.427,7.272 9.429,7.076 C9.429,6.903 9.636,6.717 10.081,6.717 C10.454,6.711 10.723,6.792 10.933,6.877 L11.035,6.925 L11.19,6.02 C10.964,5.935 10.611,5.845 10.169,5.845 z M14.108,5.921 L13.229,5.921 C12.957,5.921 12.753,5.995 12.633,6.267 L10.942,10.095 L12.138,10.095 C12.138,10.095 12.333,9.58 12.377,9.467 C12.508,9.467 13.669,9.469 13.835,9.469 C13.869,9.615 13.973,10.095 13.973,10.095 L15.03,10.095 L14.108,5.921 z M12.705,8.613 L12.705,8.613 L12.705,8.613 L12.705,8.613 z M13.309,7.047 L13.386,7.407 C13.386,7.407 13.604,8.404 13.65,8.613 L12.705,8.613 C13.008,7.835 12.856,8.224 13.158,7.445 C13.151,7.457 13.252,7.204 13.309,7.047 z M7.773,5.917 L6.635,5.917 L5.923,10.093 L7.061,10.093 L7.773,5.917 z M2.82,5.918 L0.985,5.918 L0.97,6.004 C1.417,6.113 1.816,6.269 2.166,6.463 L3.178,10.09 L4.382,10.089 L6.174,5.92 L4.969,5.92 L3.854,8.768 L3.735,8.19 C3.735,8.189 3.735,8.189 3.735,8.189 L3.336,6.271 C3.267,6.005 3.067,5.927 2.82,5.918 z" fill="#000000"/>
  </g>
</svg>
