<?xml version="1.0" encoding="UTF-8"?>
<!DOCTYPE svg PUBLIC "-//W3C//DTD SVG 1.1//EN" "http://www.w3.org/Graphics/SVG/1.1/DTD/svg11.dtd">
<svg version="1.1" xmlns="http://www.w3.org/2000/svg" xmlns:xlink="http://www.w3.org/1999/xlink" x="0" y="0" width="26" height="16" viewBox="0, 0, 26, 16">
  <g id="Background">
    <rect x="0" y="0" width="26" height="16" fill="#000000" fill-opacity="0"/>
  </g>
  <g id="Page-1">
    <path d="M24.38,0 C25.131,0 25.739,0.608 25.739,1.359 L25.739,14.641 C25.739,15.392 25.13,16 24.38,16 L1.62,16 C0.869,16 0.261,15.392 0.261,14.641 L0.261,1.359 C0.261,0.608 0.87,0 1.62,0 L24.38,0 z M16.454,4.568 C14.663,4.568 13.402,5.47 13.391,6.762 C13.381,7.718 14.292,8.251 14.979,8.569 C15.685,8.895 15.922,9.103 15.919,9.394 C15.914,9.84 15.355,10.043 14.834,10.043 C14.109,10.043 13.723,9.943 13.128,9.694 L12.894,9.589 L12.64,11.077 C13.063,11.263 13.846,11.424 14.659,11.432 C16.565,11.432 17.801,10.541 17.815,9.16 C17.822,8.404 17.339,7.828 16.294,7.353 C15.66,7.046 15.272,6.84 15.276,6.529 C15.276,6.253 15.605,5.957 16.314,5.957 C16.907,5.948 17.336,6.077 17.671,6.212 L17.833,6.288 L18.079,4.847 C17.72,4.712 17.157,4.568 16.454,4.568 z M22.727,4.69 L21.326,4.69 C20.893,4.69 20.568,4.808 20.377,5.241 L17.685,11.336 L19.589,11.336 C19.589,11.336 19.9,10.516 19.97,10.336 C20.178,10.336 22.027,10.339 22.292,10.339 C22.346,10.572 22.512,11.336 22.512,11.336 L24.194,11.336 L22.727,4.69 z M20.492,8.976 L20.492,8.976 L20.492,8.976 L20.492,8.976 z M21.454,6.482 L21.577,7.056 C21.577,7.056 21.924,8.643 21.997,8.976 L20.492,8.976 C20.974,7.737 20.733,8.357 21.214,7.117 C21.203,7.135 21.363,6.732 21.454,6.482 z M12.639,4.683 L10.826,4.683 L9.693,11.333 L11.505,11.333 L12.639,4.683 z M4.752,4.684 L1.829,4.684 L1.806,4.822 C2.517,4.995 3.153,5.243 3.71,5.552 L5.321,11.328 L7.239,11.326 L10.093,4.688 L8.173,4.688 L6.398,9.223 L6.209,8.302 C6.209,8.301 6.209,8.301 6.209,8.301 L5.573,5.246 C5.464,4.824 5.145,4.699 4.752,4.684 z" fill="#000000"/>
  </g>
</svg>
