<?xml version="1.0" encoding="UTF-8"?>
<!DOCTYPE svg PUBLIC "-//W3C//DTD SVG 1.1//EN" "http://www.w3.org/Graphics/SVG/1.1/DTD/svg11.dtd">
<svg version="1.1" xmlns="http://www.w3.org/2000/svg" xmlns:xlink="http://www.w3.org/1999/xlink" x="0" y="0" width="16" height="16" viewBox="0, 0, 16, 16">
  <g id="Background">
    <rect x="0" y="0" width="16" height="16" fill="#000000" fill-opacity="0"/>
  </g>
  <g id="App">
    <path d="M4.242,6.759 L1.777,2.972 C3.313,1.062 5.616,0.01 7.971,0.001 C9.336,-0.009 10.729,0.339 11.997,1.071 C13.397,1.884 14.462,3.052 15.139,4.394 L8.516,4.046 C6.642,3.936 4.858,4.991 4.242,6.759 z M5.303,8.001 C5.303,9.491 6.51,10.697 8,10.697 C9.49,10.697 10.697,9.491 10.697,8.001 C10.697,6.51 9.49,5.304 8,5.304 C6.51,5.304 5.303,6.507 5.303,8.001 z M15.462,5.123 L10.955,5.355 C12.178,6.784 12.197,8.846 11.168,10.426 L7.552,15.988 C9.052,16.068 10.597,15.739 11.997,14.927 C15.462,12.927 16.865,8.733 15.462,5.123 z M4.313,9.536 L1.303,3.617 C0.481,4.875 -0,6.384 -0,8.001 C-0,12.001 2.929,15.314 6.758,15.901 L8.813,11.875 C6.955,12.223 5.161,11.204 4.313,9.536 z" fill="#000000"/>
  </g>
</svg>
