<?xml version="1.0" encoding="UTF-8"?>
<!DOCTYPE svg PUBLIC "-//W3C//DTD SVG 1.1//EN" "http://www.w3.org/Graphics/SVG/1.1/DTD/svg11.dtd">
<svg version="1.1" xmlns="http://www.w3.org/2000/svg" xmlns:xlink="http://www.w3.org/1999/xlink" x="0" y="0" width="16" height="16" viewBox="0, 0, 16, 16">
  <g id="Background">
    <rect x="0" y="0" width="16" height="16" fill="#000000" fill-opacity="0"/>
  </g>
  <g id="Background"/>
  <g id="Layer_1">
    <path d="M9.142,12.843 L9.142,11.148 Q9.142,11.023 9.057,10.939 Q8.972,10.854 8.856,10.854 L7.144,10.854 Q7.028,10.854 6.943,10.939 Q6.858,11.023 6.858,11.148 L6.858,12.843 Q6.858,12.968 6.943,13.052 Q7.028,13.137 7.144,13.137 L8.856,13.137 Q8.972,13.137 9.057,13.052 Q9.142,12.968 9.142,12.843 z M9.124,9.507 L9.284,5.414 Q9.284,5.307 9.195,5.244 Q9.079,5.146 8.981,5.146 L7.019,5.146 Q6.921,5.146 6.805,5.244 Q6.716,5.307 6.716,5.431 L6.867,9.507 Q6.867,9.596 6.957,9.654 Q7.046,9.712 7.171,9.712 L8.821,9.712 Q8.945,9.712 9.03,9.654 Q9.115,9.596 9.124,9.507 z M8.999,1.177 L15.848,13.735 Q16.16,14.296 15.83,14.858 Q15.679,15.117 15.416,15.269 Q15.153,15.42 14.849,15.42 L1.151,15.42 Q0.847,15.42 0.584,15.269 Q0.321,15.117 0.17,14.858 Q-0.16,14.296 0.152,13.735 L7.001,1.177 Q7.153,0.901 7.42,0.74 Q7.688,0.58 8,0.58 Q8.312,0.58 8.58,0.74 Q8.847,0.901 8.999,1.177 z" fill="#000000"/>
  </g>
</svg>
