<?xml version="1.0" encoding="UTF-8"?>
<!DOCTYPE svg PUBLIC "-//W3C//DTD SVG 1.1//EN" "http://www.w3.org/Graphics/SVG/1.1/DTD/svg11.dtd">
<svg version="1.1" xmlns="http://www.w3.org/2000/svg" xmlns:xlink="http://www.w3.org/1999/xlink" x="0" y="0" width="16" height="16" viewBox="0, 0, 16, 16">
  <g id="Background">
    <rect x="0" y="0" width="16" height="16" fill="#000000" fill-opacity="0"/>
  </g>
  <g id="Background"/>
  <g id="Layer_1">
    <path d="M8.387,0.052 C9.992,0.164 11.604,0.667 12.866,1.697 L6.073,5.773 L5.968,5.837 L5.881,5.924 C4.709,7.096 4.709,8.996 5.881,10.168 C7.053,11.34 8.953,11.34 10.125,10.168 L10.212,10.08 L10.275,9.975 L14.351,3.182 C16.19,5.462 16.486,8.786 15.264,11.416 C14.864,12.276 14.313,13.02 13.662,13.705 C10.536,16.83 5.469,16.83 2.344,13.705 C-0.781,10.579 -0.781,5.512 2.344,2.387 C3.753,0.991 5.635,0.147 7.619,0.052 C7.875,0.04 8.131,0.052 8.387,0.052 z" fill="#000000"/>
    <path d="M13.662,2.387 L9.418,9.46 C8.636,10.242 7.369,10.242 6.588,9.46 C5.807,8.679 5.807,7.412 6.588,6.631 L13.662,2.387 z" fill="#000000"/>
  </g>
</svg>
