<?xml version="1.0" encoding="UTF-8"?>
<!DOCTYPE svg PUBLIC "-//W3C//DTD SVG 1.1//EN" "http://www.w3.org/Graphics/SVG/1.1/DTD/svg11.dtd">
<svg version="1.1" xmlns="http://www.w3.org/2000/svg" xmlns:xlink="http://www.w3.org/1999/xlink" x="0" y="0" width="14" height="16" viewBox="0, 0, 14, 16">
  <g id="Layer_1">
    <path d="M7,6.857 Q9.116,6.857 10.955,6.473 Q12.795,6.089 13.857,5.339 L13.857,6.857 Q13.857,7.473 12.938,8 Q12.018,8.527 10.438,8.835 Q8.857,9.143 7,9.143 Q5.143,9.143 3.562,8.835 Q1.982,8.527 1.062,8 Q0.143,7.473 0.143,6.857 L0.143,5.339 Q1.205,6.089 3.045,6.473 Q4.884,6.857 7,6.857 z M7,13.714 Q9.116,13.714 10.955,13.33 Q12.795,12.946 13.857,12.197 L13.857,13.714 Q13.857,14.33 12.938,14.857 Q12.018,15.384 10.438,15.692 Q8.857,16 7,16 Q5.143,16 3.562,15.692 Q1.982,15.384 1.062,14.857 Q0.143,14.33 0.143,13.714 L0.143,12.197 Q1.205,12.946 3.045,13.33 Q4.884,13.714 7,13.714 z M7,10.286 Q9.116,10.286 10.955,9.902 Q12.795,9.518 13.857,8.768 L13.857,10.286 Q13.857,10.902 12.938,11.429 Q12.018,11.955 10.438,12.263 Q8.857,12.571 7,12.571 Q5.143,12.571 3.562,12.263 Q1.982,11.955 1.062,11.429 Q0.143,10.902 0.143,10.286 L0.143,8.768 Q1.205,9.518 3.045,9.902 Q4.884,10.286 7,10.286 z M7,-0 Q8.857,-0 10.438,0.308 Q12.018,0.616 12.938,1.143 Q13.857,1.67 13.857,2.286 L13.857,3.429 Q13.857,4.045 12.938,4.571 Q12.018,5.098 10.438,5.406 Q8.857,5.714 7,5.714 Q5.143,5.714 3.562,5.406 Q1.982,5.098 1.062,4.571 Q0.143,4.045 0.143,3.429 L0.143,2.286 Q0.143,1.67 1.062,1.143 Q1.982,0.616 3.562,0.308 Q5.143,-0 7,-0 z" fill="#000000"/>
  </g>
</svg>
