<?xml version="1.0" encoding="UTF-8"?>
<!DOCTYPE svg PUBLIC "-//W3C//DTD SVG 1.1//EN" "http://www.w3.org/Graphics/SVG/1.1/DTD/svg11.dtd">
<svg version="1.1" xmlns="http://www.w3.org/2000/svg" xmlns:xlink="http://www.w3.org/1999/xlink" x="0" y="0" width="16" height="16" viewBox="0, 0, 16, 16">
  <g id="Background">
    <rect x="0" y="0" width="16" height="16" fill="#000000" fill-opacity="0"/>
  </g>
  <g id="App">
    <path d="M0.571,7.104 C0.575,7.098 0.58,7.092 0.584,7.086 C0.583,7.092 0.582,7.098 0.581,7.104 L0.571,7.104 z M15.429,7.602 C15.429,6.182 15.178,4.878 14.5,3.654 C13.177,1.286 10.836,0 8.093,0 C3.579,-0.009 1.052,3.394 0.582,7.086 C1.951,5.109 4.359,3.171 7.691,3.055 C7.691,3.055 11.229,3.055 10.898,6.441 L5.226,6.441 C5.431,5.235 5.824,4.538 6.333,3.895 C3.912,5.021 2.403,6.995 2.438,9.97 C2.465,12.274 4.055,14.642 6.333,15.517 C9.022,16.545 12.552,15.75 14.08,14.829 L14.08,11.462 C11.471,13.284 5.342,13.427 5.297,9.282 L15.429,9.282 L15.429,7.602 L15.429,7.602 z" fill="#000000"/>
  </g>
</svg>
