<?xml version="1.0" encoding="UTF-8"?>
<!DOCTYPE svg PUBLIC "-//W3C//DTD SVG 1.1//EN" "http://www.w3.org/Graphics/SVG/1.1/DTD/svg11.dtd">
<svg version="1.1" xmlns="http://www.w3.org/2000/svg" xmlns:xlink="http://www.w3.org/1999/xlink" x="0" y="0" width="16" height="16" viewBox="0, 0, 16, 16">
  <g id="Background"/>
  <g id="Layer_2">
    <path d="M15,6.047 L15,12.25 Q15,12.766 14.633,13.133 Q14.266,13.5 13.75,13.5 L2.25,13.5 Q1.734,13.5 1.367,13.133 Q1,12.766 1,12.25 L1,6.047 Q1.344,6.43 1.789,6.727 Q4.617,8.648 5.672,9.422 Q6.117,9.75 6.395,9.934 Q6.672,10.117 7.133,10.309 Q7.594,10.5 7.992,10.5 L8.008,10.5 Q8.406,10.5 8.867,10.309 Q9.328,10.117 9.605,9.934 Q9.883,9.75 10.328,9.422 Q11.656,8.461 14.219,6.727 Q14.664,6.422 15,6.047 z M15,3.75 Q15,4.367 14.617,4.93 Q14.234,5.492 13.664,5.891 Q10.727,7.93 10.008,8.43 Q9.93,8.484 9.676,8.668 Q9.422,8.852 9.254,8.965 Q9.086,9.078 8.848,9.219 Q8.609,9.359 8.398,9.43 Q8.188,9.5 8.008,9.5 L7.992,9.5 Q7.812,9.5 7.602,9.43 Q7.391,9.359 7.152,9.219 Q6.914,9.078 6.746,8.965 Q6.578,8.852 6.324,8.668 Q6.07,8.484 5.992,8.43 Q5.281,7.93 3.945,7.004 Q2.609,6.078 2.344,5.891 Q1.859,5.563 1.43,4.988 Q1,4.414 1,3.922 Q1,3.313 1.324,2.906 Q1.648,2.5 2.25,2.5 L13.75,2.5 Q14.258,2.5 14.629,2.867 Q15,3.234 15,3.75 z" fill="#000000"/>
  </g>
</svg>
