<?xml version="1.0" encoding="UTF-8"?>
<!DOCTYPE svg PUBLIC "-//W3C//DTD SVG 1.1//EN" "http://www.w3.org/Graphics/SVG/1.1/DTD/svg11.dtd">
<svg version="1.1" xmlns="http://www.w3.org/2000/svg" xmlns:xlink="http://www.w3.org/1999/xlink" x="0" y="0" width="16" height="16" viewBox="0, 0, 16, 16">
  <g id="Layer_1">
    <g>
      <path d="M6.077,2.099 L6.874,11.22 C6.92,11.757 7.347,12.199 7.902,12.248 C8.524,12.302 9.072,11.842 9.127,11.22 L9.923,2.099 C9.932,1.992 9.933,1.873 9.923,1.763 C9.831,0.701 8.894,-0.085 7.832,0.007 C6.77,0.1 5.984,1.037 6.077,2.099 z" fill="#000000"/>
      <path d="M9.594,14.407 C9.594,15.287 8.88,16 8,16 C7.12,16 6.407,15.287 6.407,14.407 C6.407,13.527 7.12,12.813 8,12.813 C8.88,12.813 9.594,13.527 9.594,14.407 z" fill="#000000"/>
    </g>
  </g>
</svg>
