<?xml version="1.0" encoding="UTF-8"?>
<!DOCTYPE svg PUBLIC "-//W3C//DTD SVG 1.1//EN" "http://www.w3.org/Graphics/SVG/1.1/DTD/svg11.dtd">
<svg version="1.1" xmlns="http://www.w3.org/2000/svg" xmlns:xlink="http://www.w3.org/1999/xlink" x="0" y="0" width="16" height="16" viewBox="0, 0, 16, 16">
  <g id="Background">
    <rect x="0" y="0" width="16" height="16" fill="#000000" fill-opacity="0"/>
  </g>
  <g id="Layer_1">
    <path d="M16,1.714 L16,14.286 C16,15.233 15.233,16 14.286,16 L1.714,16 C0.768,16 0,15.233 0,14.286 L0,1.714 C0,0.768 0.768,0 1.714,0 L14.286,0 C15.233,0 16,0.768 16,1.714 z M12.857,2.286 L8.858,2.286 C8.097,2.286 7.712,3.209 8.252,3.749 L9.394,4.891 L2.411,11.874 C2.244,12.042 2.244,12.313 2.411,12.481 L3.519,13.589 C3.687,13.756 3.958,13.756 4.126,13.589 L11.109,6.606 L12.251,7.748 C12.788,8.285 13.714,7.908 13.714,7.142 L13.714,3.143 C13.714,2.669 13.331,2.286 12.857,2.286 z" fill="#000000"/>
  </g>
</svg>
