<?xml version="1.0" encoding="UTF-8"?>
<!DOCTYPE svg PUBLIC "-//W3C//DTD SVG 1.1//EN" "http://www.w3.org/Graphics/SVG/1.1/DTD/svg11.dtd">
<svg version="1.1" xmlns="http://www.w3.org/2000/svg" xmlns:xlink="http://www.w3.org/1999/xlink" x="0" y="0" width="16" height="16" viewBox="0, 0, 16, 16">
  <g id="Background">
    <rect x="0" y="0" width="16" height="16" fill="#000000" fill-opacity="0"/>
  </g>
  <g id="Layer_1">
    <path d="M15.5,9 L0.5,9 C0.225,9 0,9.225 0,9.5 L0,10.5 C0,10.775 0.225,11 0.5,11 L15.5,11 C15.775,11 16,10.775 16,10.5 L16,9.5 C16,9.225 15.775,9 15.5,9 z M15.5,5 L0.5,5 C0.225,5 0,5.225 0,5.5 L0,6.5 C0,6.775 0.225,7 0.5,7 L15.5,7 C15.775,7 16,6.775 16,6.5 L16,5.5 C16,5.225 15.775,5 15.5,5 z" fill="#000000"/>
  </g>
</svg>
