<?xml version="1.0" encoding="UTF-8"?>
<!DOCTYPE svg PUBLIC "-//W3C//DTD SVG 1.1//EN" "http://www.w3.org/Graphics/SVG/1.1/DTD/svg11.dtd">
<svg version="1.1" xmlns="http://www.w3.org/2000/svg" xmlns:xlink="http://www.w3.org/1999/xlink" x="0" y="0" width="16" height="16" viewBox="0, 0, 16, 16">
  <g id="Background">
    <rect x="0" y="0" width="16" height="16" fill="#000000" fill-opacity="0"/>
  </g>
  <g id="Layer_1">
    <path d="M13.25,2 C13.664,2 14,1.664 14,1.25 L14,0.75 C14,0.336 13.664,0 13.25,0 L2.75,0 C2.336,0 2,0.336 2,0.75 L2,1.25 C2,1.664 2.336,2 2.75,2 C2.75,4.843 4.344,7.242 6.526,8 C4.344,8.758 2.75,11.157 2.75,14 C2.336,14 2,14.336 2,14.75 L2,15.25 C2,15.664 2.336,16 2.75,16 L13.25,16 C13.664,16 14,15.664 14,15.25 L14,14.75 C14,14.336 13.664,14 13.25,14 C13.25,11.157 11.656,8.758 9.474,8 C11.656,7.242 13.25,4.843 13.25,2 z" fill="#000000"/>
  </g>
</svg>
