<?xml version="1.0" encoding="UTF-8"?>
<!DOCTYPE svg PUBLIC "-//W3C//DTD SVG 1.1//EN" "http://www.w3.org/Graphics/SVG/1.1/DTD/svg11.dtd">
<svg version="1.1" xmlns="http://www.w3.org/2000/svg" xmlns:xlink="http://www.w3.org/1999/xlink" x="0" y="0" width="16" height="16" viewBox="0, 0, 16, 16">
  <g id="Background">
    <rect x="0" y="0" width="16" height="16" fill="#000000" fill-opacity="0"/>
  </g>
  <g id="Layer_1">
    <path d="M8,0 L8,0 C12.421,0 16,3.576 16,8 C16,12.421 12.422,16 8,16 C3.579,16 0,12.422 0,8 C0,3.581 3.576,0 8,0 z M8.298,5.881 C8.115,5.882 7.934,5.911 7.755,5.951 C6.857,6.172 6.098,6.782 5.644,7.237 C5.725,7.407 5.834,7.584 5.911,7.739 C6.189,7.494 6.513,7.242 6.731,7.117 C7.109,6.901 7.462,7.046 7.278,7.575 C7.094,8.104 5.804,10.899 5.579,12.205 C5.354,13.511 6.475,14.059 7.835,13.581 L7.836,13.581 C8.733,13.263 9.921,12.169 10.377,11.706 C10.257,11.48 10.219,11.417 10.098,11.219 C9.836,11.461 9.479,11.772 9.143,12.001 C8.714,12.296 8.421,12.137 8.666,11.385 C8.911,10.632 9.301,9.623 9.851,8.161 C10.063,7.598 10.169,6.898 9.741,6.404 C9.381,5.988 8.819,5.892 8.298,5.881 z M9.86,2.201 L9.722,2.203 C9.373,2.229 9.072,2.373 8.8,2.584 C8.184,3.109 8.098,3.972 8.609,4.511 C9.121,5.05 10.035,5.061 10.651,4.536 L10.651,4.536 C11.267,4.01 11.353,3.147 10.843,2.608 C10.617,2.378 10.32,2.239 9.999,2.206 L9.86,2.201 z" fill="#000000"/>
  </g>
</svg>
