<?xml version="1.0" encoding="UTF-8"?>
<!DOCTYPE svg PUBLIC "-//W3C//DTD SVG 1.1//EN" "http://www.w3.org/Graphics/SVG/1.1/DTD/svg11.dtd">
<svg version="1.1" xmlns="http://www.w3.org/2000/svg" xmlns:xlink="http://www.w3.org/1999/xlink" x="0" y="0" width="16" height="16" viewBox="0, 0, 16, 16">
  <g id="Background">
    <rect x="0" y="0" width="16" height="16" fill="#000000" fill-opacity="0"/>
  </g>
  <g id="App">
    <path d="M14.078,3.402 C14.326,3.402 14.526,3.603 14.526,3.851 L14.526,11.905 C14.526,11.977 14.51,12.049 14.475,12.113 L16,12.113 L16,12.393 C16,12.393 15.82,12.51 15.712,12.534 C15.604,12.558 15.443,12.59 15.311,12.593 C15.191,12.597 15.071,12.598 14.951,12.598 L1.053,12.598 C0.932,12.597 0.81,12.597 0.689,12.593 C0.557,12.59 0.397,12.558 0.288,12.534 C0.181,12.51 0,12.393 0,12.393 L0,12.113 L1.541,12.113 C1.505,12.049 1.491,11.977 1.49,11.905 L1.49,3.851 C1.49,3.603 1.69,3.402 1.938,3.402 L14.078,3.402 z M14.078,3.946 L1.922,3.946 L1.922,11.537 L14.078,11.537 L14.078,3.946 z" fill="#000000"/>
  </g>
</svg>
