<?xml version="1.0" encoding="UTF-8"?>
<!DOCTYPE svg PUBLIC "-//W3C//DTD SVG 1.1//EN" "http://www.w3.org/Graphics/SVG/1.1/DTD/svg11.dtd">
<svg version="1.1" xmlns="http://www.w3.org/2000/svg" xmlns:xlink="http://www.w3.org/1999/xlink" x="0" y="0" width="16" height="16" viewBox="0, 0, 16, 16">
  <g id="Background">
    <rect x="0" y="0" width="16" height="16" fill="#000000" fill-opacity="0"/>
  </g>
  <g id="Layer_1">
    <path d="M15.062,1.743 C13.54,1.83 10.514,2.144 8.646,3.288 C8.517,3.366 8.444,3.507 8.444,3.653 L8.444,13.761 C8.444,14.082 8.795,14.285 9.091,14.136 C11.013,13.169 13.792,12.905 15.166,12.832 C15.635,12.808 16,12.432 16,11.981 L16,2.596 C16,2.104 15.573,1.714 15.062,1.743 z M7.354,3.288 C5.486,2.144 2.46,1.83 0.938,1.743 C0.427,1.714 -0,2.104 -0,2.596 L-0,11.981 C-0,12.432 0.365,12.808 0.834,12.833 C2.209,12.905 4.989,13.169 6.911,14.137 C7.206,14.286 7.556,14.083 7.556,13.763 L7.556,3.648 C7.556,3.501 7.483,3.367 7.354,3.288 z" fill="#000000"/>
  </g>
</svg>
