<?xml version="1.0" encoding="UTF-8"?>
<!DOCTYPE svg PUBLIC "-//W3C//DTD SVG 1.1//EN" "http://www.w3.org/Graphics/SVG/1.1/DTD/svg11.dtd">
<svg version="1.1" xmlns="http://www.w3.org/2000/svg" xmlns:xlink="http://www.w3.org/1999/xlink" x="0" y="0" width="16" height="16" viewBox="0, 0, 16, 16">
  <g id="Background">
    <rect x="0" y="0" width="16" height="16" fill="#000000" fill-opacity="0"/>
  </g>
  <g id="Layer_1">
    <path d="M10.206,5.793 C12.073,7.662 12.048,10.659 10.217,12.499 C10.214,12.503 10.21,12.507 10.206,12.51 L8.106,14.61 C6.254,16.463 3.241,16.462 1.389,14.61 C-0.464,12.759 -0.464,9.745 1.389,7.893 L2.548,6.733 C2.856,6.426 3.385,6.63 3.401,7.065 C3.421,7.619 3.521,8.175 3.704,8.712 C3.766,8.894 3.722,9.096 3.586,9.232 L3.177,9.64 C2.301,10.516 2.273,11.942 3.141,12.827 C4.016,13.72 5.456,13.725 6.338,12.843 L8.438,10.743 C9.319,9.862 9.316,8.438 8.438,7.561 C8.323,7.445 8.206,7.356 8.115,7.293 C7.985,7.203 7.904,7.057 7.898,6.899 C7.886,6.569 8.003,6.229 8.264,5.968 L8.922,5.31 C9.094,5.137 9.365,5.116 9.565,5.256 C9.794,5.416 10.009,5.595 10.206,5.793 z M14.61,1.389 C12.758,-0.463 9.745,-0.464 7.893,1.389 L5.793,3.489 C5.789,3.492 5.785,3.496 5.782,3.5 C3.951,5.34 3.926,8.337 5.793,10.206 C5.99,10.404 6.205,10.583 6.434,10.743 C6.634,10.883 6.905,10.862 7.077,10.689 L7.735,10.031 C7.996,9.77 8.113,9.43 8.101,9.1 C8.095,8.942 8.014,8.796 7.884,8.706 C7.793,8.643 7.676,8.554 7.561,8.438 C6.683,7.561 6.68,6.137 7.561,5.256 L9.661,3.156 C10.543,2.274 11.983,2.279 12.858,3.172 C13.725,4.057 13.698,5.483 12.822,6.359 L12.413,6.767 C12.277,6.903 12.233,7.105 12.295,7.287 C12.478,7.824 12.578,8.38 12.598,8.934 C12.614,9.369 13.143,9.573 13.451,9.266 L14.61,8.106 C16.463,6.254 16.463,3.24 14.61,1.389 z" fill="#000000"/>
  </g>
</svg>
