<?xml version="1.0" encoding="UTF-8"?>
<!DOCTYPE svg PUBLIC "-//W3C//DTD SVG 1.1//EN" "http://www.w3.org/Graphics/SVG/1.1/DTD/svg11.dtd">
<svg version="1.1" xmlns="http://www.w3.org/2000/svg" xmlns:xlink="http://www.w3.org/1999/xlink" x="0" y="0" width="16" height="16" viewBox="0, 0, 16, 16">
  <g id="Background">
    <rect x="0" y="0" width="16" height="16" fill="#000000" fill-opacity="0"/>
  </g>
  <g id="Layer_1">
    <path d="M3.732,0 Q4.77,0 5.482,0.729 L7.248,2.505 Q7.961,3.216 7.961,4.246 Q7.961,5.302 7.206,6.039 L7.961,6.794 Q8.698,6.039 9.745,6.039 Q10.775,6.039 11.495,6.759 L11.76,7.024 C10.444,7.157 11.229,7.002 9.469,7.743 C9.393,7.758 9.426,7.743 9.369,7.785 C8.662,8.049 8.077,8.673 7.786,9.366 C7.734,9.437 7.753,9.396 7.733,9.492 C7.001,11.232 7.156,10.452 7.023,11.768 L6.752,11.495 Q6.039,10.783 6.039,9.754 Q6.039,8.698 6.794,7.961 L6.039,7.206 Q5.302,7.961 4.255,7.961 Q3.225,7.961 2.505,7.241 L0.721,5.456 Q-0,4.735 -0,3.706 Q-0,2.677 0.729,1.964 L1.991,0.712 Q2.702,0 3.732,0 z M3.732,1.647 Q3.397,1.647 3.148,1.879 L1.887,3.131 Q1.647,3.371 1.647,3.706 Q1.647,4.049 1.887,4.289 L3.672,6.073 Q3.903,6.305 4.255,6.305 Q4.616,6.305 4.873,6.039 Q4.847,6.014 4.709,5.881 Q4.572,5.748 4.525,5.696 Q4.478,5.645 4.397,5.534 Q4.315,5.422 4.285,5.315 Q4.255,5.207 4.255,5.078 Q4.255,4.735 4.495,4.495 Q4.735,4.255 5.078,4.255 Q5.207,4.255 5.315,4.285 Q5.422,4.315 5.534,4.397 Q5.645,4.478 5.696,4.525 Q5.748,4.572 5.881,4.709 Q6.014,4.847 6.039,4.873 Q6.322,4.607 6.322,4.246 Q6.322,3.903 6.082,3.663 L4.315,1.887 Q4.075,1.647 3.732,1.647 z" fill="#000000"/>
    <path d="M9.172,9.172 C10.734,7.609 13.267,7.609 14.828,9.172 C16.391,10.734 16.391,13.267 14.828,14.828 C13.267,16.391 10.734,16.391 9.172,14.828 C7.609,13.267 7.609,10.734 9.172,9.172 z M11.571,9 L11.571,11.571 L9,11.571 L9,12.429 L11.571,12.429 L11.571,15 L12.429,15 L12.429,12.429 L15,12.429 L15,11.571 L12.429,11.571 L12.429,9 L11.571,9 z" fill="#000000"/>
  </g>
</svg>
