<?xml version="1.0" encoding="UTF-8"?>
<!DOCTYPE svg PUBLIC "-//W3C//DTD SVG 1.1//EN" "http://www.w3.org/Graphics/SVG/1.1/DTD/svg11.dtd">
<svg version="1.1" xmlns="http://www.w3.org/2000/svg" xmlns:xlink="http://www.w3.org/1999/xlink" x="0" y="0" width="16" height="16" viewBox="0, 0, 16, 16">
  <g id="Background">
    <rect x="0" y="0" width="16" height="16" fill="#000000" fill-opacity="0"/>
  </g>
  <g id="Layer_1">
    <path d="M6.623,0.003 L6.911,0.02 C6.959,0.029 7.071,0.076 7.161,0.117 C7.288,0.177 7.36,0.229 7.465,0.335 C7.6,0.468 7.607,0.473 7.755,0.505 C7.917,0.541 8.153,0.624 8.283,0.689 C8.329,0.712 8.456,0.8 8.568,0.887 C8.679,0.972 8.837,1.091 8.92,1.153 C9.081,1.276 9.351,1.547 9.487,1.729 C9.613,1.896 9.781,2.263 9.881,2.581 C10.011,2.993 10.033,3.125 10.036,3.421 C10.037,3.637 10.028,3.72 9.981,3.933 C9.921,4.212 9.921,4.217 10.021,4.444 L10.053,4.521 L10.004,4.475 L9.953,4.429 L9.953,4.561 C9.953,4.681 9.963,4.708 10.045,4.865 C10.109,4.984 10.149,5.037 10.171,5.035 C10.189,5.033 10.204,5.045 10.204,5.065 C10.204,5.085 10.231,5.123 10.261,5.148 C10.332,5.209 10.335,5.227 10.267,5.211 L10.213,5.2 L10.269,5.248 C10.34,5.305 10.307,5.311 10.204,5.257 C10.113,5.211 10.101,5.237 10.184,5.299 C10.248,5.345 10.257,5.371 10.213,5.371 C10.169,5.371 10.177,5.429 10.233,5.509 C10.301,5.605 10.287,5.619 10.201,5.536 C10.165,5.5 10.129,5.473 10.123,5.481 C10.113,5.485 10.107,5.577 10.107,5.687 C10.107,5.873 10.053,6.188 10.013,6.241 C10.005,6.251 9.961,6.369 9.915,6.501 L9.829,6.743 L9.873,6.909 C9.925,7.113 9.927,7.231 9.876,7.339 C9.825,7.445 9.811,7.433 9.847,7.313 C9.861,7.263 9.876,7.196 9.876,7.165 C9.876,7.077 9.817,6.839 9.799,6.857 C9.789,6.865 9.792,6.912 9.803,6.961 C9.845,7.145 9.784,7.257 9.596,7.343 C9.465,7.401 9.424,7.464 9.471,7.537 C9.489,7.567 9.485,7.573 9.443,7.589 C9.395,7.607 9.393,7.641 9.439,7.699 C9.451,7.716 9.447,7.727 9.428,7.735 C9.397,7.747 9.356,7.837 9.356,7.897 C9.356,7.923 9.369,7.933 9.399,7.933 C9.437,7.933 9.439,7.936 9.411,7.964 C9.395,7.981 9.359,7.997 9.332,7.997 C9.288,8.001 9.28,8.011 9.269,8.091 C9.263,8.141 9.249,8.185 9.239,8.193 C9.213,8.209 9.217,8.283 9.249,8.356 C9.264,8.393 9.281,8.485 9.289,8.561 C9.301,8.704 9.288,8.756 9.228,8.756 C9.204,8.756 9.201,8.737 9.212,8.655 C9.22,8.584 9.217,8.563 9.204,8.584 C9.167,8.639 9.161,8.771 9.184,9.093 C9.237,9.911 9.34,10.169 9.84,10.756 C10.007,10.953 10.119,11.045 10.392,11.221 L10.609,11.361 L10.748,11.349 C10.94,11.329 11.027,11.355 11.169,11.465 C11.237,11.519 11.391,11.605 11.512,11.66 C11.633,11.716 11.747,11.777 11.761,11.796 C11.78,11.815 11.828,11.835 11.877,11.839 C11.925,11.844 12.164,11.927 12.407,12.021 C12.652,12.117 13,12.243 13.183,12.303 C13.497,12.404 13.923,12.84 14.191,12.96 C14.407,13.06 14.571,13.177 14.695,13.328 C14.921,13.605 15.244,14.065 15.337,14.245 C15.578,14.82 15.795,15.406 15.983,16 L0.042,16 C0.084,15.705 0.224,15.443 0.361,15.185 C0.507,14.972 0.773,14.717 1.056,14.521 C1.335,14.324 2.197,13.781 2.423,13.659 C2.629,13.545 2.5,13.531 3.534,12.761 C4.028,12.394 4.119,12.413 4.214,12.255 C4.236,12.219 4.3,12.145 4.353,12.093 C4.408,12.039 4.483,11.951 4.518,11.897 C4.553,11.841 4.631,11.747 4.688,11.684 C4.855,11.504 4.869,11.373 4.809,10.525 C4.771,9.959 4.771,9.953 4.709,9.649 C4.659,9.404 4.627,9.331 4.544,9.284 C4.465,9.237 4.379,9.125 4.202,8.836 C4.001,8.511 3.889,8.233 3.794,7.825 C3.757,7.664 3.749,7.645 3.689,7.609 C3.511,7.497 3.301,7.127 3.217,6.775 C3.177,6.604 3.005,6.241 2.878,6.072 C2.831,6.003 2.815,5.964 2.822,5.932 C2.829,5.907 2.825,5.888 2.817,5.888 C2.808,5.888 2.817,5.817 2.838,5.729 C2.875,5.585 2.875,5.548 2.856,5.276 C2.844,5.113 2.825,4.932 2.814,4.875 C2.803,4.817 2.787,4.704 2.778,4.624 C2.772,4.541 2.752,4.464 2.737,4.444 C2.711,4.412 2.675,4.277 2.642,4.1 L2.629,4.024 L2.592,4.09 C2.544,4.18 2.537,4.14 2.574,4.003 C2.615,3.861 2.635,3.497 2.606,3.497 C2.595,3.497 2.571,3.52 2.554,3.549 C2.525,3.601 2.525,3.601 2.537,3.555 C2.544,3.528 2.579,3.449 2.614,3.381 C2.685,3.24 2.723,3.045 2.677,3.061 C2.644,3.073 2.604,3.18 2.602,3.269 C2.603,3.325 2.599,3.329 2.581,3.299 C2.552,3.253 2.575,3.06 2.622,2.936 C2.669,2.815 2.668,2.808 2.62,2.865 L2.581,2.911 L2.592,2.73 C2.6,2.632 2.615,2.504 2.621,2.445 C2.639,2.333 2.635,2.32 2.604,2.341 C2.556,2.369 2.521,2.475 2.518,2.609 C2.516,2.761 2.487,2.785 2.486,2.637 C2.487,2.504 2.521,2.365 2.57,2.299 C2.621,2.231 2.773,2.025 2.854,1.92 C2.885,1.877 2.94,1.793 2.978,1.733 C3.051,1.608 3.037,1.597 2.893,1.663 C2.847,1.684 2.805,1.699 2.8,1.693 C2.783,1.677 2.901,1.604 2.974,1.582 C3.017,1.573 3.133,1.525 3.228,1.481 C3.585,1.309 3.643,1.289 3.757,1.289 L3.866,1.291 L3.898,1.102 C3.915,1.001 3.947,0.881 3.97,0.836 C4.019,0.735 4.165,0.515 4.182,0.515 C4.191,0.515 4.183,0.565 4.169,0.624 C4.136,0.761 4.136,0.763 4.169,0.762 C4.184,0.763 4.205,0.739 4.214,0.705 C4.239,0.645 4.296,0.561 4.422,0.408 C4.536,0.273 4.7,0.2 4.855,0.215 C4.915,0.221 4.996,0.239 5.036,0.259 L5.111,0.293 L5.256,0.215 C5.337,0.171 5.467,0.113 5.543,0.087 C5.671,0.043 5.712,0.037 5.967,0.035 C6.123,0.035 6.283,0.027 6.327,0.02 L6.623,0.003 z" fill="#000000"/>
  </g>
</svg>
