<?xml version="1.0" encoding="UTF-8"?>
<!DOCTYPE svg PUBLIC "-//W3C//DTD SVG 1.1//EN" "http://www.w3.org/Graphics/SVG/1.1/DTD/svg11.dtd">
<svg version="1.1" xmlns="http://www.w3.org/2000/svg" xmlns:xlink="http://www.w3.org/1999/xlink" x="0" y="0" width="16" height="16" viewBox="0, 0, 16, 16">
  <g id="Background">
    <rect x="0" y="0" width="16" height="16" fill="#000000" fill-opacity="0"/>
  </g>
  <g id="Layer_1" display="none">
    <path d="M1.528,14.081 C2.008,13.647 2.51,13.197 2.642,13.08 C2.774,12.963 2.883,12.856 2.884,12.841 C2.886,12.815 1.479,11.868 1.415,11.853 C1.396,11.848 1.369,11.884 1.353,11.932 C1.319,12.04 0.88,13.68 0.636,14.614 C0.584,14.813 0.583,14.869 0.633,14.869 C0.645,14.869 1.048,14.514 1.528,14.081 z M14.825,14.782 C15.081,14.447 15.224,13.721 15.163,13.071 C15.093,12.331 14.892,11.819 14.506,11.4 C14.22,11.09 13.977,11.022 13.7,11.175 C13.268,11.414 12.857,11.667 12.797,11.733 C12.615,11.929 12.627,12.248 12.833,12.656 C13.04,13.068 13.266,13.304 13.769,13.632 C14.287,13.97 14.498,14.229 14.611,14.668 C14.648,14.809 14.686,14.868 14.74,14.869 C14.75,14.869 14.788,14.83 14.825,14.782 z M3.598,11.74 C4.579,9.991 5.83,7.821 6.607,6.522 C6.777,6.238 6.915,5.998 6.915,5.988 C6.915,5.956 5.456,5.059 5.417,5.067 C5.378,5.076 4.074,7.272 3.147,8.888 C2.854,9.401 2.417,10.13 2.177,10.509 C1.938,10.888 1.705,11.256 1.661,11.326 C1.614,11.399 1.59,11.463 1.604,11.476 C1.67,11.539 3.142,12.481 3.164,12.474 C3.178,12.47 3.373,12.139 3.598,11.74 z M13.131,11.118 C13.51,10.903 13.843,10.705 13.871,10.679 C13.92,10.633 13.918,10.626 13.778,10.385 C13.7,10.249 13.509,9.917 13.354,9.648 C13.199,9.378 13.055,9.154 13.033,9.149 C12.975,9.138 11.542,9.974 11.532,10.025 C11.524,10.067 12.277,11.393 12.36,11.484 C12.384,11.51 12.412,11.527 12.423,11.521 C12.433,11.515 12.752,11.334 13.131,11.118 z M15.986,9.717 C15.996,9.698 16.002,9.29 15.999,8.81 L15.993,7.938 L14.381,7.931 C12.975,7.925 12.77,7.929 12.778,7.963 C12.782,7.985 13.007,8.396 13.276,8.877 L13.767,9.751 L13.873,9.759 C13.931,9.763 14.426,9.763 14.973,9.759 C15.758,9.753 15.97,9.744 15.986,9.717 z M10.885,9.679 C10.889,9.666 10.685,9.281 10.431,8.823 L9.968,7.991 L8.003,7.991 L6.037,7.991 L5.573,8.831 C5.317,9.294 5.114,9.681 5.122,9.693 C5.14,9.723 10.875,9.709 10.885,9.679 z M2.441,9.535 C2.494,9.444 2.711,9.068 2.924,8.7 C3.137,8.332 3.311,8.019 3.311,8.004 C3.311,7.986 2.768,7.98 1.661,7.984 L0.011,7.991 L0.002,8.177 C-0.003,8.279 0.001,8.663 0.012,9.031 L0.03,9.701 L1.188,9.701 L2.346,9.701 z M12.163,9.197 C12.837,8.827 12.826,8.833 12.826,8.786 C12.826,8.74 12.471,8.112 11.267,6.03 C9.944,3.74 9.361,2.731 8.973,2.058 C8.592,1.395 8.501,1.271 8.338,1.188 C8.209,1.122 8.002,1.112 7.869,1.165 C7.742,1.215 7.294,1.476 7.176,1.568 C6.986,1.717 6.914,2.01 7.011,2.242 C7.063,2.367 7.027,2.304 8.28,4.466 C10.251,7.869 11.264,9.585 11.326,9.627 C11.342,9.637 11.414,9.612 11.487,9.571 C11.56,9.53 11.865,9.362 12.163,9.197 z M7.295,5.281 C7.609,4.757 7.655,4.666 7.674,4.525 C7.714,4.234 7.561,4.039 7.076,3.764 C6.802,3.608 6.757,3.591 6.596,3.582 C6.376,3.57 6.267,3.616 6.116,3.787 C6.002,3.915 5.563,4.696 5.564,4.769 C5.564,4.795 5.838,4.978 6.286,5.253 C6.683,5.497 7.016,5.696 7.026,5.697 C7.037,5.698 7.157,5.511 7.295,5.281 z" fill="#000000" id="path3319"/>
  </g>
  <g id="Layer_2">
    <path d="M13.667,0 C14.955,0 16,1.045 16,2.333 L16,13.667 C16,14.955 14.955,16 13.667,16 L2.333,16 C1.045,16 0,14.955 0,13.667 L0,2.333 C0,1.045 1.045,0 2.333,0 L13.667,0 z M15,4 L1,4 L1,13.667 C1,14.403 1.597,15 2.333,15 L13.667,15 C14.403,15 15,14.403 15,13.667 L15,4 z M7,1 C6.448,1 6,1.448 6,2 C6,2.552 6.448,3 7,3 C7.552,3 8,2.552 8,2 C8,1.448 7.552,1 7,1 z M2,1 C1.448,1 1,1.448 1,2 C1,2.552 1.448,3 2,3 C2.552,3 3,2.552 3,2 C3,1.448 2.552,1 2,1 z M4.5,1 C3.948,1 3.5,1.448 3.5,2 C3.5,2.552 3.948,3 4.5,3 C5.052,3 5.5,2.552 5.5,2 C5.5,1.448 5.052,1 4.5,1 z" fill="#000000"/>
  </g>
</svg>
