<?xml version="1.0" encoding="UTF-8"?>
<!DOCTYPE svg PUBLIC "-//W3C//DTD SVG 1.1//EN" "http://www.w3.org/Graphics/SVG/1.1/DTD/svg11.dtd">
<svg version="1.1" xmlns="http://www.w3.org/2000/svg" xmlns:xlink="http://www.w3.org/1999/xlink" x="0" y="0" width="16" height="16" viewBox="0, 0, 16, 16">
  <g id="Background">
    <rect x="0" y="0" width="16" height="16" fill="#000000" fill-opacity="0"/>
  </g>
  <g id="Layer_1">
    <path d="M14.118,11.765 Q14.118,11.373 13.843,11.098 L11.804,9.059 Q11.529,8.784 11.137,8.784 Q10.725,8.784 10.431,9.098 Q10.461,9.127 10.618,9.279 Q10.775,9.431 10.828,9.49 Q10.882,9.549 10.975,9.676 Q11.069,9.804 11.103,9.926 Q11.137,10.049 11.137,10.196 Q11.137,10.588 10.863,10.863 Q10.588,11.137 10.196,11.137 Q10.049,11.137 9.926,11.103 Q9.804,11.069 9.676,10.975 Q9.549,10.882 9.49,10.828 Q9.431,10.775 9.279,10.618 Q9.127,10.461 9.098,10.431 Q8.775,10.735 8.775,11.147 Q8.775,11.539 9.049,11.814 L11.069,13.843 Q11.333,14.108 11.735,14.108 Q12.127,14.108 12.402,13.853 L13.843,12.422 Q14.118,12.147 14.118,11.765 z M7.225,4.853 Q7.225,4.461 6.951,4.186 L4.931,2.157 Q4.657,1.882 4.265,1.882 Q3.882,1.882 3.598,2.147 L2.157,3.578 Q1.882,3.853 1.882,4.235 Q1.882,4.627 2.157,4.902 L4.196,6.941 Q4.461,7.206 4.863,7.206 Q5.275,7.206 5.569,6.902 Q5.539,6.873 5.382,6.721 Q5.225,6.569 5.172,6.51 Q5.118,6.451 5.025,6.324 Q4.931,6.196 4.897,6.074 Q4.863,5.951 4.863,5.804 Q4.863,5.412 5.137,5.137 Q5.412,4.863 5.804,4.863 Q5.951,4.863 6.074,4.897 Q6.196,4.931 6.324,5.025 Q6.451,5.118 6.51,5.172 Q6.569,5.225 6.721,5.382 Q6.873,5.539 6.902,5.569 Q7.225,5.265 7.225,4.853 z M16,11.765 Q16,12.941 15.167,13.755 L13.725,15.186 Q12.912,16 11.735,16 Q10.549,16 9.735,15.167 L7.716,13.137 Q6.902,12.324 6.902,11.147 Q6.902,9.941 7.765,9.098 L6.902,8.235 Q6.059,9.098 4.863,9.098 Q3.686,9.098 2.863,8.275 L0.824,6.235 Q-0,5.412 -0,4.235 Q-0,3.059 0.833,2.245 L2.275,0.814 Q3.088,-0 4.265,-0 Q5.451,-0 6.265,0.833 L8.284,2.863 Q9.098,3.676 9.098,4.853 Q9.098,6.059 8.235,6.902 L9.098,7.765 Q9.941,6.902 11.137,6.902 Q12.314,6.902 13.137,7.725 L15.176,9.765 Q16,10.588 16,11.765 z" fill="#000000"/>
  </g>
</svg>
