<?xml version="1.0" encoding="UTF-8"?>
<!DOCTYPE svg PUBLIC "-//W3C//DTD SVG 1.1//EN" "http://www.w3.org/Graphics/SVG/1.1/DTD/svg11.dtd">
<svg version="1.1" xmlns="http://www.w3.org/2000/svg" xmlns:xlink="http://www.w3.org/1999/xlink" x="0" y="0" width="16" height="16" viewBox="0, 0, 16, 16">
  <g id="Background">
    <rect x="0" y="0" width="16" height="16" fill="#000000" fill-opacity="0"/>
  </g>
  <g id="Layer_1">
    <g>
      <path d="M10.06,12.066 L11.659,15.101 L6.506,15.101 L8.106,12.066 L10.06,12.066 z" fill="#000000"/>
      <path d="M5.992,14.969 L12.174,14.969 C12.459,14.969 12.69,15.2 12.69,15.485 L12.69,15.485 C12.69,15.769 12.459,16 12.174,16 L5.992,16 C5.706,16 5.475,15.769 5.475,15.485 L5.475,15.485 C5.475,15.2 5.706,14.969 5.992,14.969 z" fill="#000000"/>
      <path d="M8.962,10.555 C6.393,10.555 4.31,8.472 4.31,5.903 C4.31,3.332 6.393,1.25 8.962,1.25 C11.533,1.25 13.616,3.332 13.616,5.903 C13.616,8.472 11.533,10.555 8.962,10.555 z" fill="#000000"/>
      <path d="M6.37,0 L6.752,0.924 C3.97,2.077 2.648,5.267 3.801,8.05 C4.954,10.833 8.144,12.155 10.927,11.002 L11.31,11.926 C8.016,13.29 4.241,11.726 2.877,8.433 C1.513,5.14 3.076,1.364 6.37,0 z" fill="#000000"/>
    </g>
  </g>
</svg>
