<?xml version="1.0" encoding="UTF-8"?>
<!DOCTYPE svg PUBLIC "-//W3C//DTD SVG 1.1//EN" "http://www.w3.org/Graphics/SVG/1.1/DTD/svg11.dtd">
<svg version="1.1" xmlns="http://www.w3.org/2000/svg" xmlns:xlink="http://www.w3.org/1999/xlink" x="0" y="0" width="16" height="16" viewBox="0, 0, 16, 16">
  <g id="Background">
    <rect x="0" y="0" width="16" height="16" fill="#000000" fill-opacity="0"/>
  </g>
  <g id="Layer_1">
    <path d="M12.319,7.583 L12.444,9.777 C12.5,10.756 10.452,11.555 8,11.555 C5.548,11.555 3.5,10.756 3.556,9.777 L3.681,7.583 L7.667,8.84 C7.777,8.875 7.889,8.889 8,8.889 C8.111,8.889 8.223,8.875 8.333,8.84 z M16,5.333 C16,5.431 15.937,5.513 15.847,5.548 L8.069,7.993 C8.041,8 8.021,8 8,8 C7.979,8 7.959,8 7.931,7.993 L3.403,6.562 C3.007,6.875 2.729,7.639 2.673,8.576 C2.937,8.729 3.111,9.007 3.111,9.333 C3.111,9.645 2.951,9.916 2.708,10.076 L3.111,13.083 C3.119,13.145 3.097,13.208 3.055,13.257 C3.014,13.305 2.951,13.333 2.889,13.333 L1.556,13.333 C1.493,13.333 1.431,13.305 1.389,13.257 C1.347,13.209 1.327,13.145 1.333,13.083 L1.736,10.076 C1.493,9.916 1.333,9.645 1.333,9.333 C1.333,8.999 1.521,8.715 1.785,8.562 C1.827,7.75 2.035,6.875 2.465,6.271 L0.153,5.548 C0.063,5.513 -0,5.431 -0,5.333 C-0,5.236 0.063,5.153 0.153,5.119 L7.931,2.673 C7.959,2.667 7.979,2.667 8,2.667 C8.021,2.667 8.041,2.667 8.069,2.673 L15.847,5.119 C15.937,5.153 16,5.236 16,5.333 z" fill="#000000"/>
  </g>
</svg>
