<?xml version="1.0" encoding="UTF-8"?>
<!DOCTYPE svg PUBLIC "-//W3C//DTD SVG 1.1//EN" "http://www.w3.org/Graphics/SVG/1.1/DTD/svg11.dtd">
<svg version="1.1" xmlns="http://www.w3.org/2000/svg" xmlns:xlink="http://www.w3.org/1999/xlink" x="0" y="0" width="16" height="16" viewBox="0, 0, 16, 16">
  <g id="Background">
    <rect x="0" y="0" width="16" height="16" fill="#000000" fill-opacity="0"/>
  </g>
  <g id="Background"/>
  <g id="Layer_2">
    <path d="M13.667,1 C14.955,1 16,2.045 16,3.333 L16,12.667 C16,13.955 14.955,15 13.667,15 L2.333,15 C1.045,15 0,13.955 0,12.667 L0,3.333 C0,2.045 1.045,1 2.333,1 L13.667,1 z M15,5 L1,5 L1,12.667 C1,13.403 1.597,14 2.333,14 L13.667,14 C14.403,14 15,13.403 15,12.667 L15,5 z M2,2 C1.448,2 1,2.448 1,3 C1,3.552 1.448,4 2,4 C2.552,4 3,3.552 3,3 C3,2.448 2.552,2 2,2 z M4.5,2 C3.948,2 3.5,2.448 3.5,3 C3.5,3.552 3.948,4 4.5,4 C5.052,4 5.5,3.552 5.5,3 C5.5,2.448 5.052,2 4.5,2 z" fill="#000000"/>
  </g>
</svg>
