<?xml version="1.0" encoding="UTF-8"?>
<!DOCTYPE svg PUBLIC "-//W3C//DTD SVG 1.1//EN" "http://www.w3.org/Graphics/SVG/1.1/DTD/svg11.dtd">
<svg version="1.1" xmlns="http://www.w3.org/2000/svg" xmlns:xlink="http://www.w3.org/1999/xlink" x="0" y="0" width="16" height="16" viewBox="0, 0, 16, 16">
  <g id="Background">
    <rect x="0" y="0" width="16" height="16" fill="#000000" fill-opacity="0"/>
  </g>
  <g id="Layer_1">
    <path d="M10.769,8.001 C10.989,8.001 11.179,8.079 11.337,8.235 C11.495,8.395 11.571,8.581 11.571,8.803 L11.571,9.603 C11.571,9.823 11.495,10.011 11.337,10.168 C11.179,10.325 10.989,10.403 10.769,10.403 L7.164,10.403 C6.944,10.403 6.753,10.325 6.599,10.168 C6.441,10.011 6.363,9.823 6.363,9.603 L6.363,4.945 C6.363,4.725 6.441,4.537 6.599,4.383 C6.753,4.221 6.944,4.144 7.164,4.144 L7.965,4.144 C8.197,4.144 8.388,4.221 8.537,4.383 C8.683,4.537 8.757,4.725 8.757,4.945 L8.757,8.001 z M8.005,13.599 C8.788,13.599 9.515,13.451 10.191,13.157 C10.864,12.863 11.455,12.463 11.963,11.957 C12.471,11.448 12.871,10.856 13.167,10.183 C13.459,9.509 13.605,8.781 13.605,8.001 C13.605,7.219 13.459,6.491 13.167,5.817 C12.871,5.144 12.471,4.553 11.963,4.043 C11.455,3.537 10.863,3.137 10.187,2.843 C9.505,2.549 8.779,2.401 8.005,2.401 C7.225,2.401 6.495,2.549 5.816,2.843 C5.137,3.137 4.545,3.537 4.043,4.043 C3.539,4.553 3.139,5.144 2.847,5.817 C2.551,6.491 2.405,7.219 2.405,8.001 C2.405,8.781 2.551,9.509 2.847,10.183 C3.139,10.856 3.539,11.448 4.043,11.957 C4.545,12.463 5.137,12.863 5.816,13.157 C6.495,13.451 7.225,13.599 8.005,13.599 M8.005,0 C9.115,0 10.153,0.207 11.121,0.625 C12.091,1.044 12.939,1.613 13.667,2.339 C14.393,3.063 14.967,3.909 15.379,4.88 C15.793,5.853 16,6.893 16,8.001 C16,9.107 15.793,10.147 15.379,11.117 C14.967,12.091 14.393,12.937 13.667,13.663 C12.939,14.387 12.091,14.959 11.121,15.375 C10.153,15.793 9.115,16 8.005,16 C6.896,16 5.856,15.793 4.883,15.375 C3.913,14.959 3.064,14.387 2.34,13.663 C1.616,12.937 1.044,12.091 0.625,11.117 C0.209,10.147 0,9.107 0,8.001 C0,6.893 0.209,5.853 0.625,4.88 C1.044,3.909 1.616,3.063 2.34,2.339 C3.064,1.613 3.913,1.044 4.883,0.625 C5.856,0.207 6.896,0 8.005,0" fill="#000000"/>
  </g>
</svg>
