<?xml version="1.0" encoding="UTF-8"?>
<!DOCTYPE svg PUBLIC "-//W3C//DTD SVG 1.1//EN" "http://www.w3.org/Graphics/SVG/1.1/DTD/svg11.dtd">
<svg version="1.1" xmlns="http://www.w3.org/2000/svg" xmlns:xlink="http://www.w3.org/1999/xlink" x="0" y="0" width="16" height="16" viewBox="0, 0, 16, 16">
  <g id="Background">
    <rect x="0" y="0" width="16" height="16" fill="#000000" fill-opacity="0"/>
  </g>
  <g id="Layer_1">
    <path d="M7.385,2.769 L7.385,13.231 Q7.385,13.481 7.202,13.663 Q7.019,13.846 6.769,13.846 Q6.519,13.846 6.337,13.663 L3.135,10.462 L0.615,10.462 Q0.365,10.462 0.183,10.279 Q0,10.096 0,9.846 L0,6.154 Q0,5.904 0.183,5.721 Q0.365,5.538 0.615,5.538 L3.135,5.538 L6.337,2.337 Q6.519,2.154 6.769,2.154 Q7.019,2.154 7.202,2.337 Q7.385,2.519 7.385,2.769 z M11.077,8 Q11.077,8.731 10.668,9.361 Q10.26,9.99 9.587,10.26 Q9.49,10.308 9.346,10.308 Q9.096,10.308 8.913,10.13 Q8.731,9.952 8.731,9.692 Q8.731,9.49 8.846,9.351 Q8.962,9.212 9.125,9.111 Q9.288,9.01 9.452,8.889 Q9.615,8.769 9.731,8.548 Q9.846,8.327 9.846,8 Q9.846,7.673 9.731,7.452 Q9.615,7.231 9.452,7.111 Q9.288,6.99 9.125,6.889 Q8.962,6.788 8.846,6.649 Q8.731,6.51 8.731,6.308 Q8.731,6.048 8.913,5.87 Q9.096,5.692 9.346,5.692 Q9.49,5.692 9.587,5.74 Q10.26,6 10.668,6.635 Q11.077,7.269 11.077,8 z M13.538,8 Q13.538,9.471 12.721,10.716 Q11.904,11.962 10.558,12.529 Q10.433,12.577 10.317,12.577 Q10.058,12.577 9.875,12.394 Q9.692,12.212 9.692,11.962 Q9.692,11.587 10.067,11.394 Q10.606,11.115 10.798,10.971 Q11.51,10.452 11.909,9.668 Q12.308,8.885 12.308,8 Q12.308,7.115 11.909,6.332 Q11.51,5.548 10.798,5.029 Q10.606,4.885 10.067,4.606 Q9.692,4.413 9.692,4.038 Q9.692,3.788 9.875,3.606 Q10.058,3.423 10.308,3.423 Q10.433,3.423 10.558,3.471 Q11.904,4.038 12.721,5.284 Q13.538,6.529 13.538,8 z M16,8 Q16,10.212 14.779,12.062 Q13.558,13.913 11.529,14.788 Q11.404,14.837 11.279,14.837 Q11.029,14.837 10.846,14.654 Q10.663,14.471 10.663,14.221 Q10.663,13.875 11.038,13.654 Q11.106,13.615 11.255,13.553 Q11.404,13.49 11.471,13.452 Q11.913,13.212 12.26,12.962 Q13.442,12.087 14.106,10.779 Q14.769,9.471 14.769,8 Q14.769,6.529 14.106,5.221 Q13.442,3.913 12.26,3.038 Q11.913,2.788 11.471,2.548 Q11.404,2.51 11.255,2.447 Q11.106,2.385 11.038,2.346 Q10.663,2.125 10.663,1.779 Q10.663,1.529 10.846,1.346 Q11.029,1.163 11.279,1.163 Q11.404,1.163 11.529,1.212 Q13.558,2.087 14.779,3.937 Q16,5.788 16,8 z" fill="#000000"/>
  </g>
</svg>
