<?xml version="1.0" encoding="UTF-8"?>
<!DOCTYPE svg PUBLIC "-//W3C//DTD SVG 1.1//EN" "http://www.w3.org/Graphics/SVG/1.1/DTD/svg11.dtd">
<svg version="1.1" xmlns="http://www.w3.org/2000/svg" xmlns:xlink="http://www.w3.org/1999/xlink" x="0" y="0" width="16" height="16" viewBox="0, 0, 16, 16">
  <g id="Background">
    <rect x="0" y="0" width="16" height="16" fill="#000000" fill-opacity="0"/>
  </g>
  <g id="Layer_1">
    <path d="M10.395,13.969 C10.395,14.079 10.433,14.168 10.508,14.24 C10.581,14.311 10.679,14.347 10.793,14.347 L11.192,14.347 C11.301,14.347 11.395,14.311 11.472,14.244 C11.551,14.176 11.591,14.084 11.591,13.969 L11.591,7.7 C11.591,7.592 11.551,7.496 11.472,7.419 C11.395,7.34 11.301,7.3 11.192,7.3 L10.793,7.3 C10.684,7.3 10.591,7.34 10.513,7.419 C10.435,7.496 10.395,7.592 10.395,7.7 z M8.596,7.7 C8.596,7.592 8.56,7.496 8.481,7.419 C8.4,7.34 8.305,7.3 8.2,7.3 L7.8,7.3 C7.692,7.3 7.6,7.34 7.529,7.419 C7.459,7.496 7.423,7.592 7.423,7.7 L7.423,13.969 C7.423,14.079 7.457,14.168 7.525,14.24 C7.593,14.311 7.683,14.347 7.8,14.347 L8.2,14.347 C8.305,14.347 8.4,14.311 8.481,14.244 C8.56,14.176 8.596,14.084 8.596,13.969 z M6.525,2.327 C7.507,2.312 8.493,2.312 9.496,2.327 C9.496,2.247 9.503,2.167 9.517,2.088 C9.531,2.009 9.531,1.935 9.517,1.867 L9.517,1.715 C9.279,1.647 9.025,1.608 8.76,1.601 C8.493,1.596 8.241,1.591 8.005,1.591 C7.753,1.591 7.497,1.596 7.236,1.601 C6.973,1.608 6.721,1.647 6.484,1.715 L6.484,1.867 C6.484,1.935 6.487,2.012 6.495,2.092 C6.501,2.176 6.512,2.252 6.525,2.327 M5.605,7.7 C5.605,7.592 5.565,7.496 5.488,7.419 C5.409,7.34 5.316,7.3 5.207,7.3 L4.811,7.3 C4.699,7.3 4.609,7.34 4.539,7.419 C4.467,7.496 4.431,7.592 4.431,7.7 L4.431,13.969 C4.431,14.079 4.467,14.168 4.539,14.24 C4.609,14.311 4.699,14.347 4.811,14.347 L5.207,14.347 C5.316,14.347 5.409,14.311 5.488,14.244 C5.565,14.176 5.605,14.084 5.605,13.969 z M8.005,6.145 C8.884,6.132 9.761,6.111 10.64,6.085 C11.516,6.057 12.395,5.992 13.276,5.881 L13.276,14.428 C13.276,14.856 13.124,15.228 12.827,15.535 C12.525,15.847 12.16,16 11.732,16 L4.268,16 C3.84,16 3.471,15.848 3.159,15.539 C2.849,15.236 2.696,14.865 2.696,14.428 L2.696,5.881 C3.532,5.992 4.364,6.063 5.188,6.096 C6.011,6.128 6.84,6.145 7.679,6.145 z M14.663,3.645 L14.663,4.349 C14.411,4.485 13.993,4.595 13.407,4.681 C12.821,4.768 12.191,4.832 11.512,4.873 C10.836,4.921 10.177,4.947 9.537,4.951 C8.897,4.957 8.387,4.961 8.005,4.961 C7.629,4.961 7.12,4.957 6.473,4.951 C5.825,4.947 5.164,4.921 4.485,4.873 C3.809,4.832 3.183,4.768 2.604,4.687 C2.024,4.603 1.611,4.492 1.359,4.349 C1.344,4.24 1.337,4.123 1.337,3.995 L1.337,3.645 L1.337,3.276 C1.337,3.155 1.344,3.031 1.359,2.908 C1.527,2.816 1.771,2.732 2.084,2.668 C2.396,2.604 2.728,2.551 3.083,2.511 C3.436,2.469 3.787,2.44 4.129,2.419 C4.475,2.4 4.741,2.38 4.932,2.368 C4.876,1.811 4.916,1.376 5.049,1.06 C5.184,0.748 5.384,0.513 5.657,0.363 C5.928,0.209 6.263,0.109 6.661,0.064 C7.06,0.021 7.507,0 8.005,0 C8.381,0 8.752,0.008 9.123,0.031 C9.495,0.051 9.825,0.121 10.119,0.237 C10.412,0.359 10.644,0.544 10.819,0.796 C10.992,1.048 11.079,1.404 11.079,1.867 L11.079,2.112 C11.079,2.195 11.071,2.28 11.06,2.368 C11.256,2.38 11.525,2.4 11.864,2.419 C12.205,2.44 12.555,2.469 12.913,2.511 C13.269,2.551 13.609,2.604 13.927,2.668 C14.249,2.732 14.493,2.816 14.663,2.908 z" fill="#000000"/>
  </g>
</svg>
