<?xml version="1.0" encoding="UTF-8"?>
<!DOCTYPE svg PUBLIC "-//W3C//DTD SVG 1.1//EN" "http://www.w3.org/Graphics/SVG/1.1/DTD/svg11.dtd">
<svg version="1.1" xmlns="http://www.w3.org/2000/svg" xmlns:xlink="http://www.w3.org/1999/xlink" x="0" y="0" width="16" height="16" viewBox="0, 0, 16, 16">
  <g id="Background">
    <rect x="0" y="0" width="16" height="16" fill="#000000" fill-opacity="0"/>
  </g>
  <g id="Layer_1">
    <path d="M8,0 Q9.625,0 11.107,0.635 Q12.589,1.268 13.661,2.339 Q14.732,3.411 15.365,4.893 Q16,6.375 16,8 Q16,9.625 15.365,11.107 Q14.732,12.589 13.661,13.661 Q12.589,14.732 11.107,15.365 Q9.625,16 8,16 Q6.375,16 4.893,15.365 Q3.411,14.732 2.339,13.661 Q1.268,12.589 0.635,11.107 Q0,9.625 0,8 Q0,6.375 0.635,4.893 Q1.268,3.411 2.339,2.339 Q3.411,1.268 4.893,0.635 Q6.375,0 8,0 z M8,1.143 Q6.304,1.143 4.777,1.945 L6.509,3.679 Q7.241,3.429 8,3.429 Q8.759,3.429 9.491,3.679 L11.223,1.945 Q9.696,1.143 8,1.143 z M1.947,11.223 L3.679,9.491 Q3.429,8.759 3.429,8 Q3.429,7.241 3.679,6.509 L1.947,4.777 Q1.143,6.304 1.143,8 Q1.143,9.696 1.947,11.223 z M8,14.857 Q9.696,14.857 11.223,14.053 L9.491,12.321 Q8.759,12.571 8,12.571 Q7.241,12.571 6.509,12.321 L4.777,14.053 Q6.304,14.857 8,14.857 z M8,11.429 Q9.42,11.429 10.424,10.424 Q11.429,9.42 11.429,8 Q11.429,6.58 10.424,5.576 Q9.42,4.571 8,4.571 Q6.58,4.571 5.576,5.576 Q4.571,6.58 4.571,8 Q4.571,9.42 5.576,10.424 Q6.58,11.429 8,11.429 z M12.321,9.491 L14.053,11.223 Q14.857,9.696 14.857,8 Q14.857,6.304 14.053,4.777 L12.321,6.509 Q12.571,7.241 12.571,8 Q12.571,8.759 12.321,9.491 z" fill="#000000"/>
  </g>
</svg>
