<?xml version="1.0" encoding="UTF-8"?>
<!DOCTYPE svg PUBLIC "-//W3C//DTD SVG 1.1//EN" "http://www.w3.org/Graphics/SVG/1.1/DTD/svg11.dtd">
<svg version="1.1" xmlns="http://www.w3.org/2000/svg" xmlns:xlink="http://www.w3.org/1999/xlink" x="0" y="0" width="16" height="16" viewBox="0, 0, 16, 16">
  <g id="Background">
    <rect x="0" y="0" width="16" height="16" fill="#000000" fill-opacity="0"/>
  </g>
  <g id="Layer_1">
    <path d="M1.455,0 L14.545,0 C15.349,0 16,0.651 16,1.455 L16,14.545 C16,15.348 15.349,16 14.545,16 L1.455,16 C0.651,16 0,15.348 0,14.545 L0,1.455 C0,0.651 0.651,0 1.455,0 z M1.455,11.94 L1.455,14.545 L5.212,14.545 L5.212,11.94 L1.455,11.94 z M10.06,11.94 L5.94,11.94 L5.94,14.545 L10.06,14.545 L10.06,11.94 z M14.545,11.94 L10.788,11.94 L10.788,14.545 L14.545,14.545 L14.545,11.94 z M14.545,11.212 L14.545,8.06 L10.788,8.06 L10.788,11.212 L14.545,11.212 z M1.455,8.06 L1.455,11.212 L5.212,11.212 L5.212,8.06 L1.455,8.06 z M10.06,8.06 L5.94,8.06 L5.94,11.212 L10.06,11.212 L10.06,8.06 z M14.545,7.333 L14.545,4.364 L10.788,4.364 L10.788,7.333 L14.545,7.333 z M5.212,4.364 L1.455,4.364 L1.455,7.333 L5.212,7.333 L5.212,4.364 z M10.06,4.364 L5.94,4.364 L5.94,7.333 L10.06,7.333 L10.06,4.364 z" fill="#000000"/>
  </g>
</svg>
