<?xml version="1.0" encoding="UTF-8"?>
<!DOCTYPE svg PUBLIC "-//W3C//DTD SVG 1.1//EN" "http://www.w3.org/Graphics/SVG/1.1/DTD/svg11.dtd">
<svg version="1.1" xmlns="http://www.w3.org/2000/svg" xmlns:xlink="http://www.w3.org/1999/xlink" x="0" y="0" width="16" height="16" viewBox="0, 0, 16, 16">
  <g id="Background">
    <rect x="0" y="0" width="16" height="16" fill="#000000" fill-opacity="0"/>
  </g>
  <g id="Background"/>
  <g id="Layer_1">
    <path d="M7.117,10.112 L6.823,10.7 L6.189,10.525 L2.233,9.438 L2.233,13.53 L7.6,14.992 L7.6,9.034 L7.117,10.112 z" fill="#000000"/>
    <path d="M9.177,10.7 L8.888,10.112 L8.407,9.03 L8.407,15 L13.773,13.532 L13.773,9.433 L9.814,10.525 L9.177,10.7 z" fill="#000000"/>
    <path d="M9.597,9.939 L15.36,8.347 L13.763,5.15 L7.998,6.742 L9.597,9.939 z" fill="#000000"/>
    <path d="M6.403,9.939 L8,6.742 L2.237,5.15 L0.638,8.347 L6.403,9.939 z" fill="#000000"/>
    <path d="M14.333,4.501 L16,2.592 L10.237,1 L8.002,3.559 L12.264,4.736 L13.767,5.15 L14.333,4.501 z" fill="#000000"/>
    <path d="M3.736,4.736 L7.998,3.559 L5.763,1.002 L0,2.592 L1.667,4.499 L2.235,5.149 L3.736,4.736 z" fill="#000000"/>
  </g>
</svg>
