<?xml version="1.0" encoding="UTF-8"?>
<!DOCTYPE svg PUBLIC "-//W3C//DTD SVG 1.1//EN" "http://www.w3.org/Graphics/SVG/1.1/DTD/svg11.dtd">
<svg version="1.1" xmlns="http://www.w3.org/2000/svg" xmlns:xlink="http://www.w3.org/1999/xlink" x="0" y="0" width="16" height="16" viewBox="0, 0, 16, 16">
  <g id="Background">
    <rect x="0" y="0" width="16" height="16" fill="#000000" fill-opacity="0"/>
  </g>
  <g id="Layer_1">
    <path d="M15.747,7.476 C15.911,7.635 15.994,7.821 15.999,8.051 C16.002,8.273 15.92,8.456 15.747,8.595 L8.259,15.798 C8.095,15.952 7.903,16.031 7.673,16.031 C7.585,16.031 7.487,16.015 7.376,15.98 C7.025,15.842 6.847,15.594 6.847,15.24 L6.847,11.448 L1.053,11.448 C0.753,11.448 0.505,11.349 0.301,11.157 C0.1,10.959 -0.002,10.716 -0.002,10.431 L-0.002,5.64 C-0.002,5.355 0.1,5.119 0.301,4.928 C0.505,4.743 0.753,4.651 1.053,4.651 L6.847,4.651 L6.847,0.836 C6.847,0.48 7.025,0.233 7.376,0.09 C7.729,-0.031 8.024,0.034 8.259,0.276 z" fill="#000000"/>
  </g>
</svg>
