<?xml version="1.0" encoding="UTF-8"?>
<!DOCTYPE svg PUBLIC "-//W3C//DTD SVG 1.1//EN" "http://www.w3.org/Graphics/SVG/1.1/DTD/svg11.dtd">
<svg version="1.1" xmlns="http://www.w3.org/2000/svg" xmlns:xlink="http://www.w3.org/1999/xlink" x="0" y="0" width="16" height="16" viewBox="0, 0, 16, 16">
  <g id="Background">
    <rect x="0" y="0" width="16" height="16" fill="#000000" fill-opacity="0"/>
  </g>
  <g id="Layer_1">
    <path d="M13.353,11.294 Q13.353,10.951 13.113,10.711 L11.328,8.927 Q11.088,8.686 10.745,8.686 Q10.384,8.686 10.127,8.961 Q10.153,8.986 10.291,9.119 Q10.428,9.252 10.474,9.304 Q10.522,9.355 10.603,9.467 Q10.685,9.578 10.715,9.685 Q10.745,9.793 10.745,9.922 Q10.745,10.264 10.505,10.505 Q10.264,10.745 9.922,10.745 Q9.793,10.745 9.685,10.715 Q9.578,10.685 9.467,10.603 Q9.355,10.522 9.304,10.474 Q9.252,10.428 9.119,10.291 Q8.986,10.153 8.961,10.127 Q8.678,10.393 8.678,10.754 Q8.678,11.097 8.918,11.337 L10.685,13.113 Q10.916,13.344 11.268,13.344 Q11.611,13.344 11.852,13.121 L13.113,11.869 Q13.353,11.629 13.353,11.294 z M7.322,5.246 Q7.322,4.903 7.082,4.663 L5.315,2.887 Q5.075,2.647 4.732,2.647 Q4.397,2.647 4.148,2.879 L2.887,4.131 Q2.647,4.371 2.647,4.706 Q2.647,5.049 2.887,5.289 L4.672,7.073 Q4.903,7.305 5.255,7.305 Q5.616,7.305 5.873,7.039 Q5.847,7.014 5.709,6.881 Q5.572,6.748 5.525,6.696 Q5.478,6.645 5.397,6.534 Q5.315,6.422 5.285,6.315 Q5.255,6.207 5.255,6.078 Q5.255,5.735 5.495,5.495 Q5.735,5.255 6.078,5.255 Q6.207,5.255 6.315,5.285 Q6.422,5.315 6.534,5.397 Q6.645,5.478 6.696,5.525 Q6.748,5.572 6.881,5.709 Q7.014,5.847 7.039,5.873 Q7.322,5.607 7.322,5.246 z M15,11.294 Q15,12.323 14.271,13.036 L13.009,14.288 Q12.298,15 11.268,15 Q10.23,15 9.518,14.271 L7.752,12.495 Q7.039,11.783 7.039,10.754 Q7.039,9.698 7.794,8.961 L7.039,8.206 Q6.302,8.961 5.255,8.961 Q4.225,8.961 3.505,8.241 L1.721,6.456 Q1,5.735 1,4.706 Q1,3.677 1.729,2.964 L2.991,1.712 Q3.702,1 4.732,1 Q5.77,1 6.482,1.729 L8.248,3.505 Q8.961,4.216 8.961,5.246 Q8.961,6.302 8.206,7.039 L8.961,7.794 Q9.698,7.039 10.745,7.039 Q11.775,7.039 12.495,7.759 L14.279,9.544 Q15,10.264 15,11.294 z" fill="#000000"/>
  </g>
</svg>
