<?xml version="1.0" encoding="UTF-8"?>
<!DOCTYPE svg PUBLIC "-//W3C//DTD SVG 1.1//EN" "http://www.w3.org/Graphics/SVG/1.1/DTD/svg11.dtd">
<svg version="1.1" xmlns="http://www.w3.org/2000/svg" xmlns:xlink="http://www.w3.org/1999/xlink" x="0" y="0" width="16" height="16" viewBox="0, 0, 16, 16">
  <g id="Background">
    <rect x="0" y="0" width="16" height="16" fill="#000000" fill-opacity="0"/>
  </g>
  <g id="Background"/>
  <g id="Layer_1">
    <path d="M13.895,4.59 L13.895,13.306 C13.895,13.746 13.515,13.956 13.053,14.283 C12.683,14.547 12.211,14.22 12.211,13.789 C12.211,13.789 12.211,5.448 12.211,5.272 C12.211,5.094 12.149,4.925 11.947,4.821 C11.745,4.718 5.431,1.398 5.431,1.398 C5.329,1.36 4.884,1.08 4.291,1.385 C3.728,1.675 3.421,1.99 3.343,2.138 L10.231,5.912 C10.414,6.008 10.527,6.156 10.527,6.347 L10.527,15.443 C10.527,15.636 10.407,15.844 10.216,15.935 C10.129,15.979 10.032,16 9.936,16 C9.822,16 9.708,15.972 9.611,15.913 C9.43,15.802 3.064,11.899 2.644,11.646 C2.442,11.525 2.205,11.276 2.2,11.092 L2.106,2.43 C2.106,2.263 2.087,1.969 2.349,1.561 C2.936,0.648 4.984,-0.39 6.021,0.148 L13.599,3.984 C13.782,4.078 13.895,4.267 13.895,4.59 z" fill="#000000"/>
  </g>
</svg>
