<?xml version="1.0" encoding="UTF-8"?>
<!DOCTYPE svg PUBLIC "-//W3C//DTD SVG 1.1//EN" "http://www.w3.org/Graphics/SVG/1.1/DTD/svg11.dtd">
<svg version="1.1" xmlns="http://www.w3.org/2000/svg" xmlns:xlink="http://www.w3.org/1999/xlink" x="0" y="0" width="19" height="16" viewBox="0, 0, 19, 16">
  <g id="Background">
    <rect x="0" y="0" width="19" height="16" fill="#000000" fill-opacity="0"/>
  </g>
  <g id="Background"/>
  <g id="Layer_3">
    <path d="M1.765,11.47 C0.79,11.47 0,12.26 0,13.235 C0,14.21 0.79,15 1.765,15 L5.654,15 L5.654,11.47 L1.765,11.47 z" fill="#000000"/>
    <path d="M6.36,11.47 L6.36,15 L12.014,15 L12.014,11.47 L6.36,11.47 z" fill="#000000"/>
    <path d="M12.719,11.47 L12.719,15 L16.609,15 C17.584,15 18.374,14.21 18.374,13.235 C18.374,12.26 17.584,11.47 16.609,11.47 L12.719,11.47 z" fill="#000000"/>
    <path d="M8.121,7.236 C7.148,7.236 6.36,8.026 6.36,9 C6.36,9.974 7.022,10.764 7.995,10.764 L12.014,10.764 L12.014,7.236 L8.121,7.236 z" fill="#000000"/>
    <path d="M12.719,7.236 L12.719,10.764 L16.613,10.764 C17.585,10.764 18.374,9.974 18.374,9 C18.374,8.026 17.585,7.236 16.613,7.236 L12.719,7.236 z" fill="#000000"/>
    <path d="M14.543,3 C13.571,3 12.783,3.79 12.783,4.765 C12.783,5.74 13.571,6.53 14.543,6.53 L16.614,6.53 C17.586,6.53 18.374,5.74 18.374,4.765 C18.374,3.79 17.586,3 16.614,3 L14.543,3 z" fill="#000000"/>
  </g>
</svg>
