<?xml version="1.0" encoding="UTF-8"?>
<!DOCTYPE svg PUBLIC "-//W3C//DTD SVG 1.1//EN" "http://www.w3.org/Graphics/SVG/1.1/DTD/svg11.dtd">
<svg version="1.1" xmlns="http://www.w3.org/2000/svg" xmlns:xlink="http://www.w3.org/1999/xlink" x="0" y="0" width="16" height="16" viewBox="0, 0, 16, 16">
  <g id="Background">
    <rect x="0" y="0" width="16" height="16" fill="#000000" fill-opacity="0"/>
  </g>
  <g id="Layer_1">
    <path d="M6.5,2 L8.5,4 L14.5,4 C15.328,4 16,4.672 16,5.5 L16,12.5 C16,13.328 15.328,14 14.5,14 L1.5,14 C0.672,14 0,13.328 0,12.5 L0,3.5 C0,2.672 0.672,2 1.5,2 L6.5,2 z M9.166,6 Q9.031,6 8.932,6.112 L6.599,8.736 Q6.5,8.848 6.5,9 Q6.5,9.152 6.599,9.263 L8.932,11.888 Q9.031,12 9.166,12 Q9.302,12 9.401,11.888 Q9.5,11.777 9.5,11.625 L9.5,6.375 Q9.5,6.223 9.401,6.112 Q9.302,6 9.166,6 z" fill="#000000"/>
  </g>
</svg>
