<?xml version="1.0" encoding="UTF-8"?>
<!DOCTYPE svg PUBLIC "-//W3C//DTD SVG 1.1//EN" "http://www.w3.org/Graphics/SVG/1.1/DTD/svg11.dtd">
<svg version="1.1" xmlns="http://www.w3.org/2000/svg" xmlns:xlink="http://www.w3.org/1999/xlink" x="0" y="0" width="16" height="16" viewBox="0, 0, 16, 16">
  <g id="Background">
    <rect x="0" y="0" width="16" height="16" fill="#000000" fill-opacity="0"/>
  </g>
  <g id="Background"/>
  <g id="Layer_1">
    <path d="M2.343,2.343 C5.467,-0.781 10.533,-0.781 13.657,2.343 C16.781,5.467 16.781,10.533 13.657,13.657 C10.533,16.781 5.467,16.781 2.343,13.657 C-0.781,10.533 -0.781,5.467 2.343,2.343 z M7.143,2 L7.143,7.143 L2,7.143 L2,8.857 L7.143,8.857 L7.143,14 L8.857,14 L8.857,8.857 L14,8.857 L14,7.143 L8.857,7.143 L8.857,2 L7.143,2 z" fill="#000000"/>
  </g>
</svg>
