<?xml version="1.0" encoding="UTF-8"?>
<!DOCTYPE svg PUBLIC "-//W3C//DTD SVG 1.1//EN" "http://www.w3.org/Graphics/SVG/1.1/DTD/svg11.dtd">
<svg version="1.1" xmlns="http://www.w3.org/2000/svg" xmlns:xlink="http://www.w3.org/1999/xlink" x="0" y="0" width="14" height="16" viewBox="0, 0, 14, 16">
  <g id="Background">
    <rect x="0" y="0" width="14" height="16" fill="#000000" fill-opacity="0"/>
  </g>
  <g id="Background"/>
  <g id="Layer_1">
    <path d="M7,16 C8.104,16 8.999,15.105 8.999,14 L5.001,14 C5.001,15.105 5.896,16 7,16 z M13.731,11.322 C13.127,10.673 11.998,9.697 11.998,6.5 C11.998,4.072 10.295,2.128 7.999,1.651 L7.999,1 C7.999,0.448 7.552,0 7,0 C6.448,0 6.001,0.448 6.001,1 L6.001,1.651 C3.705,2.128 2.003,4.072 2.003,6.5 C2.003,9.697 0.873,10.673 0.269,11.322 C0.082,11.523 -0.002,11.764 0,12 C0.003,12.512 0.406,13 1.003,13 L12.997,13 C13.594,13 13.997,12.512 14,12 C14.002,11.764 13.918,11.523 13.731,11.322 z" fill="#000000" id="Layer_1"/>
  </g>
</svg>
