<?xml version="1.0" encoding="UTF-8"?>
<!DOCTYPE svg PUBLIC "-//W3C//DTD SVG 1.1//EN" "http://www.w3.org/Graphics/SVG/1.1/DTD/svg11.dtd">
<svg version="1.1" xmlns="http://www.w3.org/2000/svg" xmlns:xlink="http://www.w3.org/1999/xlink" x="0" y="0" width="16" height="16" viewBox="0, 0, 16, 16">
  <g id="Layer_2">
    <path d="M5.091,7.273 L10.909,7.273 L10.909,5.091 Q10.909,3.887 10.057,3.034 Q9.205,2.182 8,2.182 Q6.795,2.182 5.943,3.034 Q5.091,3.887 5.091,5.091 L5.091,7.273 z M14.545,8.363 L14.545,14.909 Q14.545,15.363 14.227,15.682 Q13.909,16 13.455,16 L2.545,16 Q2.091,16 1.773,15.682 Q1.455,15.363 1.455,14.909 L1.455,8.363 Q1.455,7.909 1.773,7.591 Q2.091,7.273 2.545,7.273 L2.909,7.273 L2.909,5.091 Q2.909,3 4.409,1.499 Q5.909,0 8,0 Q10.091,0 11.591,1.499 Q13.091,3 13.091,5.091 L13.091,7.273 L13.455,7.273 Q13.909,7.273 14.227,7.591 Q14.545,7.909 14.545,8.363 z" fill="#000000"/>
  </g>
</svg>
