<?xml version="1.0" encoding="UTF-8"?>
<!DOCTYPE svg PUBLIC "-//W3C//DTD SVG 1.1//EN" "http://www.w3.org/Graphics/SVG/1.1/DTD/svg11.dtd">
<svg version="1.1" xmlns="http://www.w3.org/2000/svg" xmlns:xlink="http://www.w3.org/1999/xlink" x="0" y="0" width="16" height="16" viewBox="0, 0, 16, 16">
  <g id="Background">
    <rect x="0" y="0" width="16" height="16" fill="#000000" fill-opacity="0"/>
  </g>
  <g id="App">
    <path d="M10.819,0 C11.494,0 12.042,0.526 12.042,1.173 L12.042,3.408 L12.095,3.408 L12.095,3.409 L12.122,3.44 L12.122,4.566 L12.095,4.595 L12.042,4.595 L12.042,14.826 C12.042,15.473 11.494,16 10.819,16 L5.182,16 C4.506,16 3.958,15.473 3.958,14.826 L3.958,6.057 L3.905,6.057 L3.878,6.024 L3.878,4.9 L3.905,4.869 L3.958,4.869 L3.958,4.585 L3.905,4.585 L3.878,4.553 L3.878,3.428 L3.905,3.397 L3.905,3.399 L3.958,3.399 L3.958,2.656 L3.928,2.656 L3.913,2.639 L3.913,2.046 L3.928,2.028 L3.958,2.028 L3.958,1.173 C3.958,0.526 4.506,0 5.182,0 L10.819,0 z M8.001,14.37 C7.65,14.37 7.366,14.642 7.366,14.98 C7.366,15.316 7.65,15.588 8.001,15.588 C8.351,15.588 8.635,15.316 8.635,14.98 C8.635,14.642 8.351,14.37 8.001,14.37 z M8.001,14.429 C8.316,14.429 8.573,14.675 8.573,14.98 C8.573,15.283 8.316,15.529 8.001,15.529 C7.684,15.529 7.427,15.283 7.427,14.98 C7.427,14.675 7.684,14.429 8.001,14.429 z M11.527,1.951 L4.426,1.951 L4.426,14.049 L11.527,14.049 L11.527,1.951 z M6.711,0.876 C6.636,0.876 6.574,0.934 6.574,1.006 C6.574,1.08 6.636,1.137 6.711,1.137 C6.787,1.137 6.849,1.08 6.849,1.006 C6.849,0.934 6.787,0.876 6.711,0.876 z M8.592,0.934 L7.427,0.934 C7.385,0.934 7.35,0.967 7.35,1.006 C7.35,1.047 7.385,1.08 7.427,1.08 L8.592,1.08 C8.632,1.08 8.667,1.047 8.667,1.006 C8.667,0.967 8.632,0.934 8.592,0.934 z" fill="#000000"/>
  </g>
</svg>
