<?xml version="1.0" encoding="UTF-8"?>
<!DOCTYPE svg PUBLIC "-//W3C//DTD SVG 1.1//EN" "http://www.w3.org/Graphics/SVG/1.1/DTD/svg11.dtd">
<svg version="1.1" xmlns="http://www.w3.org/2000/svg" xmlns:xlink="http://www.w3.org/1999/xlink" x="0" y="0" width="20.876" height="16" viewBox="0, 0, 20.876, 16">
  <g id="Background">
    <rect x="0" y="0" width="20.876" height="16" fill="#000000" fill-opacity="0"/>
  </g>
  <g id="Background"/>
  <g id="Layer_1">
    <path d="M21.687,0.85 L21.688,0.85 L21.688,2.55 L21.687,2.55 L21.687,0.85 z" fill="#000000" display="none"/>
    <path d="M11,-0 C11.584,0.035 12.142,0.385 12.266,1 L14.333,1 C14.702,1 15,1.298 15,1.667 L15,3 C15,3.368 14.702,3.667 14.333,3.667 L7.667,3.667 C7.298,3.667 7,3.368 7,3 L7,1.667 C7,1.298 7.298,1 7.667,1 L9.734,1 C9.806,0.311 10.454,0.11 11,-0 z" fill="#000000" display="none"/>
    <path d="M17,2 C17.552,2 18,2.448 18,3 L18,15 C18,15.552 17.552,16 17,16 L5,16 C4.448,16 4,15.552 4,15 L4,3 C4,2.448 4.448,2 5,2 L6,2 L6,3.003 C6,3.924 6.746,4.67 7.667,4.67 L14.333,4.67 C15.254,4.67 16,3.924 16,3.003 L16,2 L17,2 z" fill="#000000" display="none"/>
  </g>
  <g id="Layer_2">
    <path d="M20.876,3.125 Q20.876,3.663 20.499,4.04 L10.748,13.791 L8.916,15.623 Q8.539,16 8,16 Q7.462,16 7.085,15.623 L5.253,13.791 L0.377,8.915 Q-0,8.539 -0,8.001 Q-0,7.461 0.377,7.085 L2.21,5.252 Q2.587,4.875 3.124,4.875 Q3.664,4.875 4.041,5.252 L8,9.226 L16.835,0.377 Q17.212,0 17.752,0 Q18.289,0 18.666,0.377 L20.499,2.209 Q20.876,2.586 20.876,3.125 z" fill="#000000"/>
  </g>
</svg>
