<?xml version="1.0" encoding="UTF-8"?>
<!DOCTYPE svg PUBLIC "-//W3C//DTD SVG 1.1//EN" "http://www.w3.org/Graphics/SVG/1.1/DTD/svg11.dtd">
<svg version="1.1" xmlns="http://www.w3.org/2000/svg" xmlns:xlink="http://www.w3.org/1999/xlink" x="0" y="0" width="16" height="16" viewBox="0, 0, 16, 16">
  <g id="Layer_1">
    <path d="M8,-0 C12.418,-0 16,3.582 16,8 C16,12.418 12.418,16 8,16 C3.582,16 -0,12.418 -0,8 C-0,3.582 3.582,-0 8,-0 z M6.531,4.032 L6.022,4.134 C5.702,4.297 5.5,4.626 5.5,4.986 L5.5,11.073 C5.5,11.433 5.702,11.762 6.022,11.925 C6.159,11.995 6.308,12.029 6.456,12.029 C6.654,12.029 6.851,11.968 7.018,11.847 L11.209,8.803 C11.457,8.623 11.603,8.336 11.603,8.029 C11.603,7.723 11.457,7.436 11.209,7.256 L7.018,4.212 L6.531,4.032 z" fill="#000000"/>
  </g>
</svg>
