<?xml version="1.0" encoding="UTF-8"?>
<!DOCTYPE svg PUBLIC "-//W3C//DTD SVG 1.1//EN" "http://www.w3.org/Graphics/SVG/1.1/DTD/svg11.dtd">
<svg version="1.1" xmlns="http://www.w3.org/2000/svg" xmlns:xlink="http://www.w3.org/1999/xlink" x="0" y="0" width="16" height="16" viewBox="0, 0, 16, 16">
  <g id="Background">
    <rect x="0" y="0" width="16" height="16" fill="#000000" fill-opacity="0"/>
  </g>
  <g id="App">
    <path d="M15.333,5.597 C15.702,5.597 16,5.917 16,6.311 L16,13.609 C16,14.004 15.702,14.324 15.333,14.324 L14.545,14.324 L14.545,11.779 C14.545,11.578 14.383,11.415 14.182,11.415 L1.818,11.415 C1.617,11.415 1.455,11.578 1.455,11.779 L1.455,14.324 L0.666,14.324 C0.298,14.324 0,14.004 0,13.609 L0,6.311 C0,5.917 0.298,5.597 0.667,5.597 L15.333,5.597 z M2.909,0.506 L13.091,0.506 L13.091,4.142 L2.909,4.142 L2.909,0.506 z M2.909,12.87 L13.091,12.87 L13.091,16.506 L2.909,16.506 L2.909,12.87 z" fill="#000000" id="Combined-Shape"/>
  </g>
</svg>
