<?xml version="1.0" encoding="UTF-8"?>
<!DOCTYPE svg PUBLIC "-//W3C//DTD SVG 1.1//EN" "http://www.w3.org/Graphics/SVG/1.1/DTD/svg11.dtd">
<svg version="1.1" xmlns="http://www.w3.org/2000/svg" xmlns:xlink="http://www.w3.org/1999/xlink" x="0" y="0" width="16" height="16" viewBox="0, 0, 16, 16">
  <g id="Background">
    <rect x="0" y="0" width="16" height="16" fill="#000000" fill-opacity="0"/>
  </g>
  <g id="Background"/>
  <g id="Layer_1">
    <path d="M9.712,11.064 L5.634,11.064 L5.634,10.656 Q5.634,9.615 5.87,8.966 Q6.106,8.317 6.573,7.78 Q7.04,7.243 8.671,5.891 Q9.54,5.183 9.54,4.593 Q9.54,4.003 9.191,3.675 Q8.842,3.348 8.134,3.348 Q7.372,3.348 6.873,3.852 Q6.374,4.357 6.235,5.612 L2.071,5.097 Q2.286,2.801 3.74,1.4 Q5.194,-0 8.199,-0 Q10.538,-0 11.976,0.977 Q13.929,2.296 13.929,4.496 Q13.929,5.408 13.425,6.256 Q12.92,7.104 11.364,8.327 Q10.28,9.186 9.996,9.706 Q9.712,10.227 9.712,11.064 z M5.494,12.148 L9.862,12.148 L9.862,16 L5.494,16 z" fill="#000000"/>
  </g>
</svg>
