<?xml version="1.0" encoding="UTF-8"?>
<!DOCTYPE svg PUBLIC "-//W3C//DTD SVG 1.1//EN" "http://www.w3.org/Graphics/SVG/1.1/DTD/svg11.dtd">
<svg version="1.1" xmlns="http://www.w3.org/2000/svg" xmlns:xlink="http://www.w3.org/1999/xlink" x="0" y="0" width="16.616" height="16" viewBox="0, 0, 16.616, 16">
  <g id="Background">
    <rect x="0" y="0" width="16.616" height="16" fill="#000000" fill-opacity="0"/>
  </g>
  <g id="Layer_1">
    <path d="M7.385,1.231 L7.385,8.558 L7.805,8.978 L6.816,9.251 L7.864,10.449 L8.54,11.223 L8.041,12.221 L7.497,13.309 L8.669,13.633 L8.733,13.65 L8.733,15.868 L7.385,16 Q5.375,16 3.678,15.01 Q1.981,14.019 0.991,12.322 Q-0,10.625 -0,8.615 Q-0,6.606 0.991,4.909 Q1.981,3.212 3.678,2.221 Q5.375,1.231 7.385,1.231 z" fill="#000000"/>
    <path d="M8.616,-0 Q10.625,-0 12.322,0.99 Q14.02,1.981 15.01,3.678 Q16,5.375 16,7.385 L8.616,7.385 L8.616,-0 z" fill="#000000"/>
    <g>
      <path d="M12.616,12.521 L13.204,13.794 L15.502,13.161 L15.502,15.211 L12.615,16 L9.732,15.213 L9.732,13.167 L12.027,13.798 L12.616,12.521 z" fill="#000000"/>
      <path d="M13.414,13.417 L16.296,12.622 L15.497,11.023 L12.615,11.819 L13.414,13.417 z" fill="#000000"/>
      <path d="M11.817,13.417 L12.616,11.819 L9.734,11.023 L8.935,12.622 L11.817,13.417 z" fill="#000000"/>
      <path d="M15.782,10.698 L16.616,9.744 L13.734,8.948 L12.617,10.227 L14.748,10.816 L15.499,11.023 L15.782,10.698 z" fill="#000000"/>
      <path d="M10.484,10.816 L12.615,10.227 L11.497,8.949 L8.616,9.744 L9.449,10.698 L9.733,11.023 L10.484,10.816 z" fill="#000000"/>
    </g>
  </g>
</svg>
