<?xml version="1.0" encoding="UTF-8"?>
<!DOCTYPE svg PUBLIC "-//W3C//DTD SVG 1.1//EN" "http://www.w3.org/Graphics/SVG/1.1/DTD/svg11.dtd">
<svg version="1.1" xmlns="http://www.w3.org/2000/svg" xmlns:xlink="http://www.w3.org/1999/xlink" x="0" y="0" width="16.616" height="16" viewBox="0, 0, 16.616, 16">
  <g id="Background">
    <rect x="0" y="0" width="16.616" height="16" fill="#000000" fill-opacity="0"/>
  </g>
  <g id="Background"/>
  <g id="Layer_1">
    <path d="M7.385,8.558 L12.635,13.808 Q11.616,14.846 10.255,15.423 Q8.895,16 7.385,16 Q5.375,16 3.678,15.01 Q1.981,14.019 0.991,12.322 Q-0,10.625 -0,8.615 Q-0,6.606 0.991,4.909 Q1.981,3.212 3.678,2.221 Q5.375,1.231 7.385,1.231 L7.385,8.558 z M9.183,8.615 L16.616,8.615 Q16.616,10.125 16.039,11.486 Q15.462,12.846 14.423,13.865 z M16,7.385 L8.616,7.385 L8.616,0 Q10.625,0 12.322,0.99 Q14.02,1.981 15.01,3.678 Q16,5.375 16,7.385 z" fill="#000000"/>
  </g>
</svg>
