<?xml version="1.0" encoding="UTF-8"?>
<!DOCTYPE svg PUBLIC "-//W3C//DTD SVG 1.1//EN" "http://www.w3.org/Graphics/SVG/1.1/DTD/svg11.dtd">
<svg version="1.1" xmlns="http://www.w3.org/2000/svg" xmlns:xlink="http://www.w3.org/1999/xlink" x="0" y="0" width="16" height="16" viewBox="0, 0, 16, 16">
  <g id="Background">
    <rect x="0" y="0" width="16" height="16" fill="#000000" fill-opacity="0"/>
  </g>
  <g id="Background"/>
  <g id="Layer_1">
    <path d="M8,7.145 L8.604,8.454 C7.45,9.303 7.135,10.657 7,12 C7.136,13.354 6.971,12.696 7.506,13.97 L2.233,12.53 L2.233,8.438 L6.823,9.7 L8,7.145 z" fill="#000000"/>
    <path d="M13.763,4.15 L15.36,7.347 L14.292,7.642 C12.696,6.971 13.47,7.148 12,7 C10.995,7.078 9.876,7.182 9.104,7.954 L7.998,5.742 L13.763,4.15 z" fill="#000000"/>
    <path d="M6.403,8.939 L8,5.742 L2.237,4.15 L0.638,7.347 L6.403,8.939 z" fill="#000000"/>
    <path d="M14.333,3.501 L16,1.592 L10.237,0 L8.002,2.559 L12.264,3.736 L13.767,4.15 L14.333,3.501 z" fill="#000000"/>
    <path d="M3.736,3.736 L7.998,2.559 L5.763,0.002 L0,1.592 L1.667,3.499 L2.235,4.149 L3.736,3.736 z" fill="#000000"/>
    <path d="M9.172,9.172 C10.734,7.609 13.267,7.609 14.828,9.172 C16.391,10.734 16.391,13.267 14.828,14.828 C13.267,16.391 10.734,16.391 9.172,14.828 C7.609,13.267 7.609,10.734 9.172,9.172 z M11.571,9 L11.571,11.571 L9,11.571 L9,12.429 L11.571,12.429 L11.571,15 L12.429,15 L12.429,12.429 L15,12.429 L15,11.571 L12.429,11.571 L12.429,9 L11.571,9 z" fill="#000000"/>
  </g>
</svg>
