<?xml version="1.0" encoding="UTF-8"?>
<!DOCTYPE svg PUBLIC "-//W3C//DTD SVG 1.1//EN" "http://www.w3.org/Graphics/SVG/1.1/DTD/svg11.dtd">
<svg version="1.1" xmlns="http://www.w3.org/2000/svg" xmlns:xlink="http://www.w3.org/1999/xlink" x="0" y="0" width="16" height="16" viewBox="0, 0, 16, 16">
  <g id="Background">
    <rect x="0" y="0" width="16" height="16" fill="#000000" fill-opacity="0"/>
  </g>
  <g id="App">
    <path d="M7.384,8.026 C7.384,7.732 7.597,7.455 7.91,7.455 C8.197,7.455 8.471,7.661 8.471,7.974 C8.471,8.268 8.265,8.545 7.952,8.545 C7.661,8.545 7.384,8.329 7.384,8.026 z M16,8 C16,12.419 12.419,16 8,16 C3.581,16 0,12.419 0,8 C0,3.581 3.581,0 8,0 C12.419,0 16,3.581 16,8 z M15.142,8 C15.142,4.055 11.945,0.858 8,0.858 C4.055,0.858 0.858,4.055 0.858,8 C0.858,11.945 4.055,15.142 8,15.142 C11.945,15.142 15.142,11.945 15.142,8 z M12.803,11.116 C12.803,11.232 13.223,11.445 13.329,11.51 C12.445,12.848 11.077,13.813 9.526,14.197 L9.384,13.6 C9.374,13.519 9.323,13.51 9.248,13.51 C9.187,13.51 9.152,13.6 9.158,13.645 L9.3,14.252 C8.871,14.342 8.435,14.387 7.997,14.387 C6.826,14.387 5.674,14.058 4.674,13.448 C4.729,13.358 5.068,12.868 5.068,12.797 C5.068,12.735 5.013,12.681 4.952,12.681 C4.826,12.681 4.558,13.216 4.477,13.323 C3.129,12.429 2.155,11.045 1.781,9.465 L2.397,9.329 C2.468,9.31 2.487,9.258 2.487,9.194 C2.487,9.132 2.397,9.097 2.345,9.103 L1.742,9.242 C1.661,8.832 1.616,8.419 1.616,8 C1.616,6.803 1.955,5.626 2.59,4.616 C2.681,4.671 3.11,4.965 3.181,4.965 C3.242,4.965 3.297,4.919 3.297,4.858 C3.297,4.732 2.823,4.494 2.716,4.419 C3.626,3.09 5.01,2.132 6.581,1.777 L6.716,2.374 C6.735,2.445 6.787,2.465 6.852,2.465 C6.916,2.465 6.948,2.374 6.942,2.323 L6.806,1.732 C7.2,1.661 7.6,1.616 8.003,1.616 C9.2,1.616 10.368,1.955 11.387,2.59 C11.326,2.681 11.039,3.1 11.039,3.171 C11.039,3.232 11.084,3.287 11.145,3.287 C11.271,3.287 11.51,2.823 11.574,2.716 C12.897,3.61 13.842,4.974 14.21,6.529 L13.71,6.635 C13.629,6.655 13.619,6.706 13.619,6.777 C13.619,6.839 13.71,6.874 13.755,6.868 L14.265,6.752 C14.345,7.161 14.39,7.581 14.39,8 C14.39,9.171 14.068,10.323 13.461,11.313 C13.371,11.268 12.997,11 12.926,11 C12.858,11 12.803,11.055 12.803,11.116 z M11.732,3.303 C11.313,3.697 7.403,7.294 7.294,7.481 L4.177,12.658 C4.587,12.274 8.506,8.658 8.606,8.487 L11.732,3.303 z" fill="#000000"/>
  </g>
</svg>
