<?xml version="1.0" encoding="UTF-8"?>
<!DOCTYPE svg PUBLIC "-//W3C//DTD SVG 1.1//EN" "http://www.w3.org/Graphics/SVG/1.1/DTD/svg11.dtd">
<svg version="1.1" xmlns="http://www.w3.org/2000/svg" xmlns:xlink="http://www.w3.org/1999/xlink" x="0" y="0" width="16" height="16" viewBox="0, 0, 16, 16">
  <g id="Background">
    <rect x="0" y="0" width="16" height="16" fill="#000000" fill-opacity="0"/>
  </g>
  <g id="Background"/>
  <g id="Layer_2">
    <path d="M13.667,1 C14.955,1 16,2.045 16,3.333 L16,12.667 C16,13.955 14.955,15 13.667,15 L2.333,15 C1.045,15 0,13.955 0,12.667 L0,3.333 C0,2.045 1.045,1 2.333,1 L13.667,1 z M15,5 L1,5 L1,12.667 C1,13.403 1.597,14 2.333,14 L13.667,14 C14.403,14 15,13.403 15,12.667 L15,5 z M13,2 C12.448,2 12,2.448 12,3 C12,3.552 12.448,4 13,4 C13.552,4 14,3.552 14,3 C14,2.448 13.552,2 13,2 z M3,2 C2.448,2 2,2.448 2,3 C2,3.552 2.448,4 3,4 C3.552,4 4,3.552 4,3 C4,2.448 3.552,2 3,2 z" fill="#000000"/>
    <path d="M7.571,9.033 L7.571,9.633 Q7.771,9.608 7.996,9.608 Q8.262,9.608 8.492,9.679 Q8.721,9.75 8.887,9.896 Q9.054,10.042 9.154,10.254 Q9.254,10.467 9.254,10.742 Q9.254,11.008 9.15,11.221 Q9.046,11.433 8.871,11.579 Q8.696,11.725 8.463,11.804 Q8.229,11.883 7.971,11.883 Q7.363,11.883 7.046,11.521 Q6.729,11.158 6.713,10.583 L6.004,10.583 Q5.996,11.042 6.133,11.4 Q6.271,11.758 6.529,12.004 Q6.788,12.25 7.154,12.375 Q7.521,12.5 7.971,12.5 Q8.387,12.5 8.758,12.387 Q9.129,12.275 9.404,12.05 Q9.679,11.825 9.842,11.488 Q10.004,11.15 10.004,10.708 Q10.004,10.175 9.742,9.783 Q9.479,9.392 8.938,9.275 L8.938,9.258 Q9.288,9.1 9.521,8.792 Q9.754,8.483 9.754,8.083 Q9.754,7.675 9.617,7.375 Q9.479,7.075 9.238,6.883 Q8.996,6.692 8.667,6.596 Q8.338,6.5 7.954,6.5 Q7.513,6.5 7.175,6.642 Q6.838,6.783 6.613,7.033 Q6.388,7.283 6.267,7.633 Q6.146,7.983 6.129,8.408 L6.838,8.408 Q6.838,8.15 6.904,7.917 Q6.971,7.683 7.108,7.508 Q7.246,7.333 7.458,7.229 Q7.671,7.125 7.954,7.125 Q8.404,7.125 8.704,7.363 Q9.004,7.6 9.004,8.075 Q9.004,8.308 8.913,8.492 Q8.821,8.675 8.667,8.796 Q8.512,8.917 8.308,8.979 Q8.104,9.042 7.879,9.042 L7.729,9.042 Q7.688,9.042 7.646,9.042 Q7.613,9.042 7.571,9.033 z" fill="#000000"/>
  </g>
</svg>
