<?xml version="1.0" encoding="UTF-8"?>
<!DOCTYPE svg PUBLIC "-//W3C//DTD SVG 1.1//EN" "http://www.w3.org/Graphics/SVG/1.1/DTD/svg11.dtd">
<svg version="1.1" xmlns="http://www.w3.org/2000/svg" xmlns:xlink="http://www.w3.org/1999/xlink" x="0" y="0" width="16" height="16" viewBox="0, 0, 16, 16">
  <g id="Background">
    <rect x="0" y="0" width="16" height="16" fill="#000000" fill-opacity="0"/>
  </g>
  <g id="Layer_3">
    <g>
      <path d="M14.182,0 L14.182,12 L10.182,12 L10.182,16 L1.818,16 L1.818,0 L14.182,0 z" fill="#000000"/>
      <path d="M11.182,13 L14.182,13 L11.182,16 L11.182,13 z" fill="#000000"/>
    </g>
  </g>
  <g id="Layer_1" display="none">
    <path d="M11.591,1 L11.591,1.172 L11.396,1.367 L5.753,7.005 L5,11 L8.994,10.249 L11.591,7.649 L11.591,12.25 L7.841,12.25 L7.841,16 L0,16 L0,1 L11.591,1 z" fill="#000000"/>
    <path d="M8.778,13.187 L11.591,13.187 L8.778,16 L8.778,13.187 z" fill="#000000"/>
    <path d="M15.772,0.957 C15.924,1.108 16,1.292 16,1.507 C16,1.723 15.924,1.902 15.772,2.051 L14.998,2.824 L13.174,1.002 L13.949,0.227 C14.101,0.076 14.283,-0 14.496,-0 C14.708,-0 14.892,0.076 15.043,0.227 L15.414,0.586 z M14.358,3.464 L8.721,9.108 L6,10 L6.893,7.278 L12.537,1.64 z" fill="#000000"/>
  </g>
</svg>
