<?xml version="1.0" encoding="UTF-8"?>
<!DOCTYPE svg PUBLIC "-//W3C//DTD SVG 1.1//EN" "http://www.w3.org/Graphics/SVG/1.1/DTD/svg11.dtd">
<svg version="1.1" xmlns="http://www.w3.org/2000/svg" xmlns:xlink="http://www.w3.org/1999/xlink" x="0" y="0" width="16" height="16" viewBox="0, 0, 16, 16">
  <g id="Background">
    <rect x="0" y="0" width="16" height="16" fill="#000000" fill-opacity="0"/>
  </g>
  <g id="Background"/>
  <g id="Layer_2">
    <path d="M13.667,0 C14.955,0 16,1.045 16,2.333 L16,9.058 L15,8.058 L15,4 L1,4 L1,11.667 C1,12.403 1.597,13 2.333,13 L7.101,13 C7.101,13.003 7.101,13.005 7.102,13.008 C7.241,13.338 7.38,13.669 7.519,14 L2.333,14 C1.045,14 0,12.955 0,11.667 L0,2.333 C0,1.045 1.045,0 2.333,0 L13.667,0 z M3,1 C2.448,1 2,1.448 2,2 C2,2.552 2.448,3 3,3 C3.552,3 4,2.552 4,2 C4,1.448 3.552,1 3,1 z M13,1 C12.448,1 12,1.448 12,2 C12,2.552 12.448,3 13,3 C13.552,3 14,2.552 14,2 C14,1.448 13.552,1 13,1 z" fill="#000000"/>
    <path d="M6.713,9.583 Q6.729,10.158 7.046,10.521 L7.242,10.658 C7.057,11.098 7.114,10.872 7.067,11.335 C6.706,11.17 6.889,11.275 6.529,11.004 Q6.271,10.758 6.133,10.4 Q5.996,10.042 6.004,9.583 L6.713,9.583 z" fill="#000000"/>
    <path d="M7.954,5.5 Q8.338,5.5 8.667,5.596 Q8.996,5.692 9.238,5.883 Q9.479,6.075 9.617,6.375 Q9.754,6.675 9.754,7.083 C9.682,7.55 9.755,7.348 9.569,7.7 C8.855,8.001 9.298,7.761 8.4,8.658 C8.169,8.607 8.303,8.629 7.996,8.608 Q7.771,8.608 7.571,8.633 L7.571,8.033 Q7.613,8.042 7.646,8.042 L7.879,8.042 Q8.104,8.042 8.308,7.979 Q8.512,7.917 8.667,7.796 Q8.821,7.675 8.913,7.492 Q9.004,7.308 9.004,7.075 Q9.004,6.6 8.704,6.363 Q8.404,6.125 7.954,6.125 Q7.671,6.125 7.458,6.229 Q7.246,6.333 7.108,6.508 Q6.971,6.683 6.904,6.917 Q6.838,7.15 6.838,7.408 L6.129,7.408 Q6.146,6.983 6.267,6.633 Q6.388,6.283 6.613,6.033 Q6.838,5.783 7.175,5.642 Q7.513,5.5 7.954,5.5 z" fill="#000000"/>
    <path d="M9.172,9.172 C10.734,7.609 13.267,7.609 14.828,9.172 C16.391,10.734 16.391,13.267 14.828,14.828 C13.267,16.391 10.734,16.391 9.172,14.828 C7.609,13.267 7.609,10.734 9.172,9.172 z M11.571,9 L11.571,11.571 L9,11.571 L9,12.429 L11.571,12.429 L11.571,15 L12.429,15 L12.429,12.429 L15,12.429 L15,11.571 L12.429,11.571 L12.429,9 L11.571,9 z" fill="#000000"/>
  </g>
</svg>
