<?xml version="1.0" encoding="UTF-8"?>
<!DOCTYPE svg PUBLIC "-//W3C//DTD SVG 1.1//EN" "http://www.w3.org/Graphics/SVG/1.1/DTD/svg11.dtd">
<svg version="1.1" xmlns="http://www.w3.org/2000/svg" xmlns:xlink="http://www.w3.org/1999/xlink" x="0" y="0" width="16" height="16" viewBox="0, 0, 16, 16">
  <g id="Background">
    <rect x="0" y="0" width="16" height="16" fill="#000000" fill-opacity="0"/>
  </g>
  <g id="Layer_4">
    <path d="M15.74,9.667 Q15.74,9.719 15.729,9.74 Q15.062,12.531 12.938,14.266 Q10.812,16 7.958,16 Q6.438,16 5.016,15.427 Q3.594,14.854 2.479,13.792 L1.135,15.135 Q0.938,15.333 0.667,15.333 Q0.396,15.333 0.198,15.135 Q0,14.938 0,14.667 L0,10 Q0,9.729 0.198,9.531 Q0.396,9.333 0.667,9.333 L5.333,9.333 Q5.604,9.333 5.802,9.531 Q6,9.729 6,10 Q6,10.271 5.802,10.469 L4.375,11.896 Q5.115,12.583 6.052,12.958 Q6.99,13.333 8,13.333 Q9.396,13.333 10.604,12.656 Q11.812,11.979 12.542,10.792 Q12.656,10.615 13.094,9.573 Q13.177,9.333 13.406,9.333 L15.406,9.333 Q15.542,9.333 15.641,9.432 Q15.74,9.531 15.74,9.667 z M16,1.333 L16,6 Q16,6.271 15.802,6.469 Q15.604,6.667 15.333,6.667 L10.667,6.667 Q10.396,6.667 10.198,6.469 Q10,6.271 10,6 Q10,5.729 10.198,5.531 L11.635,4.094 Q10.094,2.667 8,2.667 Q6.604,2.667 5.396,3.344 Q4.188,4.021 3.458,5.208 Q3.344,5.385 2.906,6.427 Q2.823,6.667 2.594,6.667 L0.521,6.667 Q0.385,6.667 0.286,6.568 Q0.188,6.469 0.188,6.333 L0.188,6.26 Q0.865,3.469 3,1.734 Q5.135,0 8,0 Q9.521,0 10.958,0.578 Q12.396,1.156 13.51,2.208 L14.865,0.865 Q15.062,0.667 15.333,0.667 Q15.604,0.667 15.802,0.865 Q16,1.062 16,1.333 z" fill="#000000"/>
  </g>
</svg>
