<?xml version="1.0" encoding="UTF-8"?>
<!DOCTYPE svg PUBLIC "-//W3C//DTD SVG 1.1//EN" "http://www.w3.org/Graphics/SVG/1.1/DTD/svg11.dtd">
<svg version="1.1" xmlns="http://www.w3.org/2000/svg" xmlns:xlink="http://www.w3.org/1999/xlink" x="0" y="0" width="16" height="16" viewBox="0, 0, 16, 16">
  <g id="Background">
    <rect x="0" y="0" width="16" height="16" fill="#000000" fill-opacity="0"/>
  </g>
  <g id="Page-1">
    <path d="M14.313,12.05 L12.946,10.682 C13.379,9.885 13.625,8.971 13.625,8 C13.625,4.893 11.107,2.375 8,2.375 C4.893,2.375 2.375,4.893 2.375,8 C2.375,11.107 4.893,13.625 8,13.625 C9.455,13.625 10.78,13.073 11.779,12.167 L13.106,13.494 C11.767,14.739 9.972,15.5 8,15.5 C3.858,15.5 0.5,12.142 0.5,8 C0.5,3.858 3.858,0.5 8,0.5 C12.142,0.5 15.5,3.858 15.5,8 C15.5,9.492 15.064,10.882 14.313,12.05 z" fill="#000000" id="Combined-Shape"/>
  </g>
</svg>
