<?xml version="1.0" encoding="UTF-8"?>
<!DOCTYPE svg PUBLIC "-//W3C//DTD SVG 1.1//EN" "http://www.w3.org/Graphics/SVG/1.1/DTD/svg11.dtd">
<svg version="1.1" xmlns="http://www.w3.org/2000/svg" xmlns:xlink="http://www.w3.org/1999/xlink" x="0" y="0" width="16" height="16" viewBox="0, 0, 16, 16">
  <g id="Background">
    <rect x="0" y="0" width="16" height="16" fill="#000000" fill-opacity="0"/>
  </g>
  <g id="Layer_1" display="none">
    <path d="M15.747,7.476 C15.911,7.635 15.994,7.821 15.999,8.051 C16.002,8.273 15.92,8.456 15.747,8.595 L8.259,15.798 C8.095,15.952 7.903,16.031 7.673,16.031 C7.585,16.031 7.487,16.015 7.376,15.98 C7.025,15.842 6.847,15.594 6.847,15.24 L6.847,11.448 L1.053,11.448 C0.753,11.448 0.505,11.349 0.301,11.157 C0.1,10.959 -0.002,10.716 -0.002,10.431 L-0.002,5.64 C-0.002,5.355 0.1,5.119 0.301,4.928 C0.505,4.743 0.753,4.651 1.053,4.651 L6.847,4.651 L6.847,0.836 C6.847,0.48 7.025,0.233 7.376,0.09 C7.729,-0.031 8.024,0.034 8.259,0.276 z" fill="#000000"/>
  </g>
  <g id="Layer_3">
    <path d="M15.383,8.616 Q15.383,10.116 14.797,11.481 Q14.211,12.846 13.22,13.836 Q12.229,14.828 10.864,15.414 Q9.499,16 7.999,16 Q6.499,16 5.134,15.414 Q3.769,14.828 2.778,13.836 Q1.787,12.846 1.201,11.481 Q0.615,10.116 0.615,8.616 Q0.615,6.865 1.388,5.318 Q2.163,3.769 3.567,2.721 Q3.98,2.415 4.485,2.481 Q4.989,2.549 5.288,2.962 Q5.595,3.367 5.524,3.871 Q5.452,4.377 5.047,4.684 Q4.105,5.395 3.591,6.424 Q3.077,7.453 3.077,8.616 Q3.077,9.616 3.466,10.525 Q3.855,11.434 4.519,12.097 Q5.183,12.761 6.091,13.15 Q7,13.54 8,13.54 Q9,13.54 9.909,13.15 Q10.817,12.761 11.481,12.097 Q12.145,11.434 12.534,10.525 Q12.923,9.616 12.923,8.616 Q12.923,7.452 12.409,6.424 Q11.895,5.396 10.953,4.684 Q10.548,4.377 10.476,3.871 Q10.404,3.367 10.712,2.962 Q11.011,2.549 11.52,2.481 Q12.029,2.415 12.433,2.721 Q13.837,3.769 14.612,5.318 Q15.385,6.865 15.385,8.616 z M9.229,1.231 L9.229,7.385 Q9.229,7.886 8.864,8.251 Q8.498,8.616 7.999,8.616 Q7.499,8.617 7.133,8.251 Q6.767,7.884 6.767,7.385 L6.767,1.231 Q6.767,0.731 7.133,0.366 Q7.499,0.001 7.999,0 Q8.498,0 8.864,0.366 Q9.229,0.732 9.229,1.231 z" fill="#000000"/>
  </g>
</svg>
