<?xml version="1.0" encoding="UTF-8"?>
<!DOCTYPE svg PUBLIC "-//W3C//DTD SVG 1.1//EN" "http://www.w3.org/Graphics/SVG/1.1/DTD/svg11.dtd">
<svg version="1.1" xmlns="http://www.w3.org/2000/svg" xmlns:xlink="http://www.w3.org/1999/xlink" x="0" y="0" width="16" height="16" viewBox="0, 0, 16, 16">
  <g id="Background">
    <rect x="0" y="0" width="16" height="16" fill="#000000" fill-opacity="0"/>
  </g>
  <g id="Background"/>
  <g id="Layer_1">
    <path d="M8,-0 C8.021,-0 8.041,-0 8.069,0.006 L15.847,2.452 C15.937,2.486 16,2.569 16,2.666 C16,2.764 15.937,2.846 15.847,2.881 L8.069,5.326 C8.041,5.333 8.021,5.333 8,5.333 C7.979,5.333 7.959,5.333 7.931,5.326 L3.403,3.895 C3.007,4.208 2.729,4.972 2.673,5.909 C2.937,6.062 3.111,6.34 3.111,6.666 C3.111,6.978 2.951,7.249 2.708,7.409 L3.111,10.416 C3.119,10.478 3.097,10.541 3.055,10.59 C3.014,10.638 2.951,10.666 2.889,10.666 L1.556,10.666 C1.493,10.666 1.431,10.638 1.389,10.59 C1.347,10.542 1.327,10.478 1.333,10.416 L1.736,7.409 C1.493,7.249 1.333,6.978 1.333,6.666 C1.333,6.332 1.521,6.048 1.785,5.895 C1.827,5.083 2.035,4.208 2.465,3.604 L0.153,2.881 C0.063,2.846 0,2.764 0,2.666 C0,2.569 0.063,2.486 0.153,2.452 L7.931,0.006 C7.959,-0 7.979,-0 8,-0 z" fill="#000000"/>
    <path d="M12.319,4.916 L12.44,7.044 L12,7 C10.138,7.036 9.404,7.654 8.177,8.881 L8,8.888 C5.548,8.888 3.5,8.089 3.556,7.11 L3.681,4.916 L7.667,6.173 C7.777,6.208 7.889,6.222 8,6.222 C8.111,6.222 8.223,6.208 8.333,6.173 L12.319,4.916 z" fill="#000000"/>
    <path d="M9.172,9.172 C10.734,7.609 13.267,7.609 14.828,9.172 C16.391,10.734 16.391,13.267 14.828,14.828 C13.267,16.391 10.734,16.391 9.172,14.828 C7.609,13.267 7.609,10.734 9.172,9.172 z M11.571,9 L11.571,11.571 L9,11.571 L9,12.429 L11.571,12.429 L11.571,15 L12.429,15 L12.429,12.429 L15,12.429 L15,11.571 L12.429,11.571 L12.429,9 L11.571,9 z" fill="#000000"/>
  </g>
</svg>
