<?xml version="1.0" encoding="UTF-8"?>
<!DOCTYPE svg PUBLIC "-//W3C//DTD SVG 1.1//EN" "http://www.w3.org/Graphics/SVG/1.1/DTD/svg11.dtd">
<svg version="1.1" xmlns="http://www.w3.org/2000/svg" xmlns:xlink="http://www.w3.org/1999/xlink" x="0" y="0" width="16" height="16" viewBox="0, 0, 16, 16">
  <g id="Background">
    <rect x="0" y="0" width="16" height="16" fill="#000000" fill-opacity="0"/>
  </g>
  <g id="Layer_1">
    <path d="M10.009,3.994 L10.111,5.777 C10.156,6.572 8.492,7.221 6.5,7.221 C4.508,7.221 2.844,6.572 2.889,5.777 L2.991,3.994 L6.229,5.016 C6.319,5.044 6.41,5.055 6.5,5.055 C6.59,5.055 6.681,5.044 6.771,5.016 z M13,2.166 C13,2.246 12.949,2.312 12.876,2.341 L6.556,4.327 C6.533,4.333 6.517,4.333 6.5,4.333 C6.483,4.333 6.467,4.333 6.444,4.327 L2.765,3.165 C2.443,3.419 2.217,4.04 2.172,4.801 C2.386,4.925 2.528,5.151 2.528,5.416 C2.528,5.67 2.398,5.89 2.2,6.02 L2.528,8.463 C2.534,8.513 2.516,8.565 2.482,8.604 C2.449,8.643 2.398,8.666 2.347,8.666 L1.264,8.666 C1.213,8.666 1.163,8.643 1.129,8.604 C1.094,8.565 1.078,8.513 1.083,8.463 L1.411,6.02 C1.213,5.89 1.083,5.67 1.083,5.416 C1.083,5.145 1.236,4.914 1.45,4.79 C1.484,4.13 1.653,3.419 2.003,2.928 L0.124,2.341 C0.051,2.312 0,2.246 0,2.166 C0,2.087 0.051,2.02 0.124,1.992 L6.444,0.005 C6.467,-0 6.483,-0 6.5,-0 C6.517,-0 6.533,-0 6.556,0.005 L12.876,1.992 C12.949,2.02 13,2.087 13,2.166 z" fill="#000000"/>
    <path d="M13.009,11.328 L13.111,13.111 C13.156,13.906 11.492,14.555 9.5,14.555 C7.508,14.555 5.844,13.906 5.889,13.111 L5.991,11.328 L9.229,12.349 C9.319,12.378 9.41,12.389 9.5,12.389 C9.59,12.389 9.681,12.378 9.771,12.349 z M16,9.5 C16,9.58 15.949,9.646 15.876,9.675 L9.556,11.661 C9.533,11.667 9.517,11.667 9.5,11.667 C9.483,11.667 9.467,11.667 9.444,11.661 L5.765,10.499 C5.443,10.753 5.217,11.374 5.172,12.135 C5.386,12.259 5.528,12.485 5.528,12.75 C5.528,13.003 5.398,13.224 5.2,13.354 L5.528,15.797 C5.534,15.847 5.516,15.898 5.482,15.938 C5.449,15.977 5.398,16 5.347,16 L4.264,16 C4.213,16 4.163,15.977 4.129,15.938 C4.094,15.899 4.078,15.847 4.083,15.797 L4.41,13.354 C4.213,13.224 4.083,13.003 4.083,12.75 C4.083,12.479 4.236,12.248 4.45,12.124 C4.484,11.464 4.653,10.753 5.003,10.262 L3.124,9.675 C3.051,9.646 3,9.58 3,9.5 C3,9.421 3.051,9.354 3.124,9.326 L9.444,7.339 C9.467,7.334 9.483,7.334 9.5,7.334 C9.517,7.334 9.533,7.334 9.556,7.339 L15.876,9.326 C15.949,9.354 16,9.421 16,9.5 z" fill="#000000"/>
  </g>
</svg>
