<?xml version="1.0" encoding="UTF-8"?>
<!DOCTYPE svg PUBLIC "-//W3C//DTD SVG 1.1//EN" "http://www.w3.org/Graphics/SVG/1.1/DTD/svg11.dtd">
<svg version="1.1" xmlns="http://www.w3.org/2000/svg" xmlns:xlink="http://www.w3.org/1999/xlink" x="0" y="0" width="16" height="16" viewBox="0, 0, 16, 16">
  <g id="Background">
    <rect x="0" y="0" width="16" height="16" fill="#000000" fill-opacity="0"/>
  </g>
  <g id="Layer_1" display="none">
    <path d="M10.06,12.066 L11.659,15.101 L6.506,15.101 L8.106,12.066 L10.06,12.066 z" fill="#000000"/>
    <path d="M5.992,14.969 L12.174,14.969 C12.459,14.969 12.69,15.2 12.69,15.485 L12.69,15.485 C12.69,15.769 12.459,16 12.174,16 L5.992,16 C5.706,16 5.475,15.769 5.475,15.485 L5.475,15.485 C5.475,15.2 5.706,14.969 5.992,14.969 z" fill="#000000"/>
    <path d="M8.962,10.555 C6.393,10.555 4.31,8.472 4.31,5.903 C4.31,3.332 6.393,1.25 8.962,1.25 C11.533,1.25 13.616,3.332 13.616,5.903 C13.616,8.472 11.533,10.555 8.962,10.555 z" fill="#000000"/>
    <path d="M6.37,0 L6.752,0.924 C3.97,2.077 2.648,5.267 3.801,8.05 C4.954,10.833 8.144,12.155 10.927,11.002 L11.31,11.926 C8.016,13.29 4.241,11.726 2.877,8.433 C1.513,5.14 3.076,1.364 6.37,0 z" fill="#000000"/>
  </g>
  <g id="Layer_2">
    <path d="M8,0 Q10.177,0 12.016,1.073 Q13.854,2.146 14.927,3.984 Q16,5.823 16,8 Q16,10.177 14.927,12.016 Q13.854,13.854 12.016,14.927 Q10.177,16 8,16 Q5.823,16 3.984,14.927 Q2.146,13.854 1.073,12.016 Q0,10.177 0,8 Q0,5.823 1.073,3.984 Q2.146,2.146 3.984,1.073 Q5.823,0 8,0 z M10.854,5.427 Q10.833,5.438 10.755,5.526 Q10.677,5.615 10.615,5.625 Q10.635,5.625 10.661,5.573 Q10.688,5.521 10.714,5.458 Q10.74,5.396 10.75,5.385 Q10.812,5.312 10.979,5.229 Q11.125,5.167 11.521,5.104 Q11.875,5.021 12.052,5.219 Q12.031,5.198 12.151,5.083 Q12.271,4.969 12.302,4.958 Q12.333,4.938 12.458,4.911 Q12.583,4.885 12.615,4.833 L12.635,4.604 Q12.51,4.615 12.453,4.531 Q12.396,4.448 12.385,4.312 Q12.385,4.333 12.323,4.396 Q12.323,4.323 12.276,4.312 Q12.229,4.302 12.156,4.323 Q12.083,4.344 12.062,4.333 Q11.958,4.302 11.906,4.255 Q11.854,4.208 11.823,4.083 Q11.792,3.958 11.781,3.927 Q11.76,3.875 11.682,3.818 Q11.604,3.76 11.583,3.708 Q11.573,3.688 11.557,3.651 Q11.542,3.615 11.526,3.583 Q11.51,3.552 11.484,3.526 Q11.458,3.5 11.427,3.5 Q11.396,3.5 11.354,3.552 Q11.312,3.604 11.276,3.656 Q11.24,3.708 11.229,3.708 Q11.198,3.688 11.167,3.693 Q11.135,3.698 11.12,3.703 Q11.104,3.708 11.073,3.734 Q11.042,3.76 11.021,3.771 Q10.99,3.792 10.932,3.802 Q10.875,3.812 10.844,3.823 Q11,3.771 10.833,3.708 Q10.729,3.667 10.667,3.677 Q10.76,3.635 10.745,3.552 Q10.729,3.469 10.656,3.406 L10.708,3.406 Q10.698,3.365 10.62,3.318 Q10.542,3.271 10.438,3.229 Q10.333,3.188 10.302,3.167 Q10.219,3.115 9.948,3.068 Q9.677,3.021 9.604,3.062 Q9.552,3.125 9.557,3.172 Q9.562,3.219 9.599,3.318 Q9.635,3.417 9.635,3.448 Q9.646,3.51 9.578,3.583 Q9.51,3.656 9.51,3.708 Q9.51,3.781 9.656,3.87 Q9.802,3.958 9.76,4.094 Q9.729,4.177 9.594,4.26 Q9.458,4.344 9.427,4.385 Q9.375,4.469 9.411,4.578 Q9.448,4.688 9.521,4.75 Q9.542,4.771 9.536,4.792 Q9.531,4.812 9.5,4.839 Q9.469,4.865 9.443,4.88 Q9.417,4.896 9.375,4.917 L9.344,4.938 Q9.229,4.99 9.13,4.875 Q9.031,4.76 8.99,4.604 Q8.917,4.344 8.823,4.292 Q8.583,4.208 8.521,4.302 Q8.469,4.167 8.094,4.031 Q7.833,3.938 7.49,3.99 Q7.552,3.979 7.49,3.833 Q7.417,3.677 7.292,3.708 Q7.323,3.646 7.333,3.526 Q7.344,3.406 7.344,3.385 Q7.375,3.25 7.469,3.146 Q7.479,3.135 7.542,3.057 Q7.604,2.979 7.641,2.917 Q7.677,2.854 7.646,2.854 Q8.01,2.896 8.167,2.74 Q8.219,2.688 8.286,2.562 Q8.354,2.438 8.396,2.385 Q8.49,2.323 8.542,2.328 Q8.594,2.333 8.693,2.385 Q8.792,2.438 8.844,2.438 Q8.99,2.448 9.005,2.323 Q9.021,2.198 8.927,2.115 Q9.052,2.125 8.958,1.938 Q8.906,1.865 8.875,1.844 Q8.75,1.802 8.594,1.896 Q8.51,1.938 8.615,1.979 Q8.604,1.969 8.516,2.089 Q8.427,2.208 8.344,2.271 Q8.26,2.333 8.177,2.219 Q8.167,2.208 8.12,2.078 Q8.073,1.948 8.021,1.938 Q7.938,1.938 7.854,2.094 Q7.885,2.01 7.74,1.938 Q7.594,1.865 7.49,1.854 Q7.688,1.729 7.406,1.573 Q7.333,1.531 7.193,1.521 Q7.052,1.51 6.99,1.562 Q6.938,1.635 6.932,1.682 Q6.927,1.729 6.984,1.766 Q7.042,1.802 7.094,1.823 Q7.146,1.844 7.214,1.865 Q7.281,1.885 7.302,1.896 Q7.448,2 7.385,2.042 Q7.365,2.052 7.297,2.078 Q7.229,2.104 7.177,2.125 Q7.125,2.146 7.115,2.167 Q7.083,2.208 7.115,2.312 Q7.146,2.417 7.094,2.458 Q7.042,2.406 7,2.276 Q6.958,2.146 6.927,2.104 Q7,2.198 6.667,2.167 L6.562,2.156 Q6.521,2.156 6.396,2.177 Q6.271,2.198 6.182,2.188 Q6.094,2.177 6.042,2.104 Q6,2.021 6.042,1.896 Q6.052,1.854 6.083,1.875 Q6.042,1.844 5.969,1.776 Q5.896,1.708 5.865,1.688 Q5.385,1.844 4.885,2.115 Q4.948,2.125 5.01,2.104 Q5.062,2.083 5.146,2.036 Q5.229,1.99 5.25,1.979 Q5.604,1.833 5.688,1.906 L5.74,1.854 Q5.885,2.021 5.948,2.115 Q5.875,2.073 5.635,2.104 Q5.427,2.167 5.406,2.229 Q5.479,2.354 5.458,2.417 Q5.417,2.385 5.339,2.312 Q5.26,2.24 5.188,2.198 Q5.115,2.156 5.031,2.146 Q4.865,2.146 4.802,2.156 Q3.281,2.99 2.354,4.469 Q2.427,4.542 2.479,4.552 Q2.521,4.562 2.531,4.646 Q2.542,4.729 2.557,4.76 Q2.573,4.792 2.677,4.729 Q2.771,4.812 2.708,4.927 Q2.719,4.917 3.167,5.208 Q3.365,5.385 3.385,5.427 Q3.417,5.542 3.281,5.615 Q3.271,5.594 3.188,5.521 Q3.104,5.448 3.094,5.479 Q3.062,5.531 3.099,5.672 Q3.135,5.812 3.208,5.802 Q3.135,5.802 3.109,5.969 Q3.083,6.135 3.083,6.339 Q3.083,6.542 3.073,6.583 L3.094,6.594 Q3.062,6.719 3.151,6.953 Q3.24,7.188 3.375,7.156 Q3.24,7.188 3.583,7.604 Q3.646,7.688 3.667,7.698 Q3.698,7.719 3.792,7.776 Q3.885,7.833 3.948,7.88 Q4.01,7.927 4.052,7.99 Q4.094,8.042 4.156,8.224 Q4.219,8.406 4.302,8.469 Q4.281,8.531 4.401,8.677 Q4.521,8.823 4.51,8.917 Q4.5,8.917 4.484,8.927 Q4.469,8.938 4.458,8.938 Q4.49,9.01 4.62,9.083 Q4.75,9.156 4.781,9.219 Q4.792,9.25 4.802,9.323 Q4.812,9.396 4.833,9.438 Q4.854,9.479 4.917,9.458 Q4.938,9.25 4.667,8.812 Q4.51,8.552 4.49,8.51 Q4.458,8.458 4.432,8.349 Q4.406,8.24 4.385,8.198 Q4.406,8.198 4.448,8.214 Q4.49,8.229 4.536,8.25 Q4.583,8.271 4.615,8.292 Q4.646,8.312 4.635,8.323 Q4.604,8.396 4.656,8.505 Q4.708,8.615 4.781,8.698 Q4.854,8.781 4.958,8.896 Q5.062,9.01 5.083,9.031 Q5.146,9.094 5.229,9.234 Q5.312,9.375 5.229,9.375 Q5.323,9.375 5.438,9.479 Q5.552,9.583 5.615,9.688 Q5.667,9.771 5.698,9.958 Q5.729,10.146 5.75,10.208 Q5.771,10.281 5.839,10.349 Q5.906,10.417 5.969,10.448 L6.135,10.531 L6.271,10.604 Q6.323,10.625 6.464,10.714 Q6.604,10.802 6.688,10.833 Q6.792,10.875 6.854,10.875 Q6.917,10.875 7.005,10.849 Q7.094,10.823 7.146,10.812 Q7.302,10.792 7.448,10.969 Q7.594,11.146 7.667,11.188 Q8.042,11.385 8.24,11.302 Q8.219,11.312 8.245,11.38 Q8.271,11.448 8.328,11.542 Q8.385,11.635 8.422,11.693 Q8.458,11.75 8.479,11.781 Q8.531,11.844 8.667,11.938 Q8.802,12.031 8.854,12.094 Q8.917,12.052 8.927,12 Q8.896,12.083 9,12.208 Q9.104,12.333 9.188,12.312 Q9.333,12.281 9.333,11.979 Q9.01,12.135 8.823,11.792 Q8.823,11.781 8.797,11.734 Q8.771,11.688 8.755,11.646 Q8.74,11.604 8.729,11.557 Q8.719,11.51 8.729,11.479 Q8.74,11.448 8.781,11.448 Q8.875,11.448 8.885,11.411 Q8.896,11.375 8.865,11.281 Q8.833,11.188 8.823,11.146 Q8.812,11.062 8.708,10.938 Q8.604,10.812 8.583,10.781 Q8.531,10.875 8.417,10.865 Q8.302,10.854 8.25,10.771 Q8.25,10.781 8.234,10.828 Q8.219,10.875 8.219,10.896 Q8.083,10.896 8.062,10.885 Q8.073,10.854 8.089,10.703 Q8.104,10.552 8.125,10.469 Q8.135,10.427 8.182,10.344 Q8.229,10.26 8.26,10.193 Q8.292,10.125 8.302,10.062 Q8.312,10 8.255,9.964 Q8.198,9.927 8.073,9.938 Q7.875,9.948 7.802,10.146 Q7.792,10.177 7.771,10.255 Q7.75,10.333 7.719,10.375 Q7.688,10.417 7.625,10.448 Q7.552,10.479 7.375,10.469 Q7.198,10.458 7.125,10.417 Q6.99,10.333 6.891,10.115 Q6.792,9.896 6.792,9.729 Q6.792,9.625 6.818,9.453 Q6.844,9.281 6.849,9.193 Q6.854,9.104 6.792,8.938 Q6.823,8.917 6.885,8.839 Q6.948,8.76 6.99,8.729 Q7.01,8.719 7.036,8.714 Q7.062,8.708 7.083,8.714 Q7.104,8.719 7.125,8.698 Q7.146,8.677 7.156,8.635 Q7.146,8.625 7.115,8.604 Q7.083,8.573 7.073,8.573 Q7.146,8.604 7.37,8.557 Q7.594,8.51 7.656,8.573 Q7.812,8.688 7.885,8.552 Q7.885,8.542 7.859,8.453 Q7.833,8.365 7.854,8.312 Q7.906,8.594 8.156,8.406 Q8.188,8.438 8.318,8.458 Q8.448,8.479 8.5,8.51 Q8.531,8.531 8.573,8.568 Q8.615,8.604 8.63,8.615 Q8.646,8.625 8.682,8.609 Q8.719,8.594 8.771,8.542 Q8.875,8.688 8.896,8.792 Q9.01,9.208 9.094,9.25 Q9.167,9.281 9.208,9.271 Q9.25,9.26 9.255,9.172 Q9.26,9.083 9.255,9.026 Q9.25,8.969 9.24,8.896 L9.229,8.812 L9.229,8.625 L9.219,8.542 Q9.062,8.51 9.026,8.417 Q8.99,8.323 9.042,8.224 Q9.094,8.125 9.198,8.031 Q9.208,8.021 9.281,7.995 Q9.354,7.969 9.443,7.927 Q9.531,7.885 9.573,7.844 Q9.792,7.646 9.729,7.479 Q9.802,7.479 9.844,7.385 Q9.833,7.385 9.792,7.354 Q9.75,7.323 9.714,7.302 Q9.677,7.281 9.667,7.281 Q9.76,7.229 9.688,7.115 Q9.74,7.083 9.766,7 Q9.792,6.917 9.844,6.896 Q9.938,7.021 10.062,6.917 Q10.135,6.833 10.073,6.75 Q10.125,6.677 10.286,6.641 Q10.448,6.604 10.479,6.542 Q10.552,6.562 10.562,6.521 Q10.573,6.479 10.573,6.396 Q10.573,6.312 10.604,6.271 Q10.646,6.219 10.76,6.177 Q10.875,6.135 10.896,6.125 L11.073,6.01 Q11.104,5.969 11.073,5.969 Q11.26,5.99 11.396,5.854 Q11.5,5.74 11.333,5.646 Q11.365,5.583 11.302,5.547 Q11.24,5.51 11.146,5.49 Q11.177,5.479 11.266,5.484 Q11.354,5.49 11.375,5.469 Q11.531,5.365 11.302,5.302 Q11.125,5.25 10.854,5.427 z M9.156,14.562 Q11.302,14.188 12.812,12.594 Q12.781,12.562 12.682,12.547 Q12.583,12.531 12.552,12.51 Q12.365,12.438 12.302,12.427 Q12.312,12.354 12.276,12.292 Q12.24,12.229 12.193,12.198 Q12.146,12.167 12.062,12.115 Q11.979,12.062 11.948,12.042 Q11.927,12.021 11.875,11.979 Q11.823,11.938 11.802,11.922 Q11.781,11.906 11.724,11.875 Q11.667,11.844 11.635,11.854 Q11.604,11.865 11.531,11.865 L11.5,11.875 Q11.469,11.885 11.443,11.901 Q11.417,11.917 11.385,11.932 Q11.354,11.948 11.344,11.964 Q11.333,11.979 11.344,11.99 Q11.125,11.812 10.969,11.76 Q10.917,11.75 10.854,11.703 Q10.792,11.656 10.745,11.63 Q10.698,11.604 10.641,11.615 Q10.583,11.625 10.521,11.688 Q10.469,11.74 10.458,11.844 Q10.448,11.948 10.438,11.979 Q10.365,11.927 10.438,11.797 Q10.51,11.667 10.458,11.604 Q10.427,11.542 10.349,11.557 Q10.271,11.573 10.224,11.604 Q10.177,11.635 10.104,11.693 Q10.031,11.75 10.01,11.76 Q9.99,11.771 9.922,11.818 Q9.854,11.865 9.833,11.896 Q9.802,11.938 9.771,12.021 Q9.74,12.104 9.719,12.135 Q9.698,12.094 9.599,12.068 Q9.5,12.042 9.5,12.01 Q9.521,12.115 9.542,12.375 Q9.562,12.635 9.594,12.771 Q9.667,13.094 9.469,13.271 Q9.188,13.531 9.167,13.688 Q9.125,13.917 9.292,13.958 Q9.292,14.031 9.208,14.172 Q9.125,14.312 9.135,14.396 Q9.135,14.458 9.156,14.562 z" fill="#000000"/>
  </g>
</svg>
