<?xml version="1.0" encoding="UTF-8"?>
<!DOCTYPE svg PUBLIC "-//W3C//DTD SVG 1.1//EN" "http://www.w3.org/Graphics/SVG/1.1/DTD/svg11.dtd">
<svg version="1.1" xmlns="http://www.w3.org/2000/svg" xmlns:xlink="http://www.w3.org/1999/xlink" x="0" y="0" width="16" height="16" viewBox="0, 0, 16, 16">
  <g id="Background">
    <rect x="0" y="0" width="16" height="16" fill="#000000" fill-opacity="0"/>
  </g>
  <g id="Layer_1">
    <path d="M8,0 C12.418,0 16,3.582 16,8 C16,12.418 12.418,16 8,16 C3.582,16 0,12.418 0,8 C0,3.582 3.582,0 8,0 z M12.748,3 Q10.924,4.093 9.013,6.136 Q7.102,8.178 5.884,10.342 L5.661,9.811 Q4.983,8.224 4.428,8.224 Q3.779,8.224 3,9.089 Q3.461,9.257 3.832,9.766 Q4.204,10.274 4.637,11.337 L4.839,11.831 Q5.156,12.643 5.249,13 Q5.488,12.764 6.151,12.279 L6.684,11.899 Q7.679,9.689 9.568,7.146 Q11.457,4.602 13,3.379 L12.748,3 z" fill="#000000"/>
  </g>
</svg>
