<?xml version="1.0" encoding="UTF-8"?>
<!DOCTYPE svg PUBLIC "-//W3C//DTD SVG 1.1//EN" "http://www.w3.org/Graphics/SVG/1.1/DTD/svg11.dtd">
<svg version="1.1" xmlns="http://www.w3.org/2000/svg" xmlns:xlink="http://www.w3.org/1999/xlink" x="0" y="0" width="16" height="16" viewBox="0, 0, 16, 16">
  <g id="Background">
    <rect x="0" y="0" width="16" height="16" fill="#000000" fill-opacity="0"/>
  </g>
  <g id="App">
    <path d="M12.62,0 C13.038,0 13.379,0.341 13.379,0.759 L13.379,15.241 C13.379,15.658 13.038,16 12.62,16 L3.38,16 C2.962,16 2.621,15.658 2.621,15.241 L2.621,0.759 C2.621,0.341 2.962,0 3.38,0 L12.62,0 z M8,14.771 C7.775,14.771 7.593,14.954 7.593,15.178 C7.593,15.404 7.775,15.585 8,15.585 C8.225,15.585 8.407,15.404 8.407,15.178 C8.407,14.954 8.225,14.771 8,14.771 z M12.793,1.566 L3.232,1.566 C3.2,1.566 3.173,1.593 3.173,1.625 L3.173,14.371 C3.173,14.403 3.2,14.429 3.232,14.429 L12.793,14.429 C12.825,14.429 12.852,14.403 12.852,14.371 L12.852,1.625 C12.852,1.593 12.825,1.566 12.793,1.566 z M7.997,0.739 C7.935,0.739 7.884,0.79 7.884,0.852 C7.884,0.915 7.935,0.966 7.997,0.966 C8.059,0.966 8.11,0.915 8.11,0.852 C8.11,0.79 8.059,0.739 7.997,0.739 z M7.672,0.807 C7.643,0.807 7.619,0.831 7.619,0.86 C7.619,0.89 7.643,0.913 7.672,0.913 C7.701,0.913 7.725,0.89 7.725,0.86 C7.725,0.831 7.701,0.807 7.672,0.807 z" fill="#000000"/>
  </g>
</svg>
