<?xml version="1.0" encoding="UTF-8"?>
<!DOCTYPE svg PUBLIC "-//W3C//DTD SVG 1.1//EN" "http://www.w3.org/Graphics/SVG/1.1/DTD/svg11.dtd">
<svg version="1.1" xmlns="http://www.w3.org/2000/svg" xmlns:xlink="http://www.w3.org/1999/xlink" x="0" y="0" width="16" height="16" viewBox="0, 0, 16, 16">
  <g id="Background">
    <rect x="0" y="0" width="16" height="16" fill="#000000" fill-opacity="0"/>
  </g>
  <g id="Layer_1">
    <path d="M0,7.879 L0,1.5 C0,0.672 0.672,0 1.5,0 L7.879,0 C8.277,0 8.658,0.158 8.939,0.439 L15.561,7.061 C16.146,7.646 16.146,8.596 15.561,9.182 L9.182,15.561 C8.596,16.146 7.646,16.146 7.061,15.561 L0.439,8.939 C0.158,8.658 0,8.277 0,7.879 z M3.5,2 C2.672,2 2,2.672 2,3.5 C2,4.328 2.672,5 3.5,5 C4.328,5 5,4.328 5,3.5 C5,2.672 4.328,2 3.5,2 z" fill="#000000"/>
  </g>
</svg>
