<?xml version="1.0" encoding="UTF-8"?>
<!DOCTYPE svg PUBLIC "-//W3C//DTD SVG 1.1//EN" "http://www.w3.org/Graphics/SVG/1.1/DTD/svg11.dtd">
<svg version="1.1" xmlns="http://www.w3.org/2000/svg" xmlns:xlink="http://www.w3.org/1999/xlink" x="0" y="0" width="16" height="16" viewBox="0, 0, 16, 16">
  <g id="Background">
    <rect x="0" y="0" width="16" height="16" fill="#000000" fill-opacity="0"/>
  </g>
  <g id="Layer_1">
    <path d="M9.502,12.684 C9.648,12.83 9.648,13.068 9.502,13.214 L8.106,14.61 C6.254,16.462 3.24,16.462 1.388,14.61 C-0.464,12.758 -0.464,9.745 1.388,7.893 L2.784,6.497 C2.931,6.35 3.168,6.35 3.315,6.497 L4.552,7.734 C4.699,7.881 4.699,8.118 4.552,8.264 L3.156,9.66 C2.279,10.538 2.279,11.965 3.156,12.842 C4.033,13.72 5.461,13.72 6.338,12.842 L7.734,11.446 C7.881,11.3 8.118,11.3 8.264,11.446 L9.502,12.684 z M7.734,4.552 C7.881,4.699 8.118,4.699 8.264,4.552 L9.66,3.156 C10.538,2.279 11.965,2.279 12.842,3.156 C13.72,4.033 13.72,5.461 12.842,6.338 L11.446,7.734 C11.3,7.88 11.3,8.118 11.446,8.264 L12.684,9.502 C12.83,9.648 13.068,9.648 13.214,9.502 L14.61,8.106 C16.462,6.254 16.462,3.24 14.61,1.388 C12.758,-0.464 9.745,-0.464 7.893,1.388 L6.497,2.784 C6.35,2.931 6.35,3.168 6.497,3.315 L7.734,4.552 z M15.072,15.78 L15.78,15.072 C16.072,14.78 16.072,14.305 15.78,14.012 L1.987,0.219 C1.694,-0.074 1.219,-0.074 0.926,0.219 L0.219,0.926 C-0.074,1.219 -0.074,1.694 0.219,1.987 L14.012,15.78 C14.305,16.072 14.78,16.072 15.072,15.78 z" fill="#000000"/>
  </g>
</svg>
