<?xml version="1.0" encoding="UTF-8"?>
<!DOCTYPE svg PUBLIC "-//W3C//DTD SVG 1.1//EN" "http://www.w3.org/Graphics/SVG/1.1/DTD/svg11.dtd">
<svg version="1.1" xmlns="http://www.w3.org/2000/svg" xmlns:xlink="http://www.w3.org/1999/xlink" x="0" y="0" width="16" height="16" viewBox="0, 0, 16, 16">
  <g id="Background">
    <rect x="0" y="0" width="16" height="16" fill="#000000" fill-opacity="0"/>
  </g>
  <g id="Background"/>
  <g id="Layer_1">
    <path d="M15.775,16 C15.795,16 15.814,15.997 15.834,15.991 C15.953,15.956 16.025,15.825 15.992,15.698 C15.465,13.596 13.364,13.108 12.234,12.848 C11.973,12.787 11.746,12.734 11.636,12.684 C10.869,12.327 10.374,11.441 10.159,10.753 C12.291,10.922 13.256,9.701 13.298,9.659 C13.351,9.609 13.378,9.532 13.37,9.455 C13.362,9.378 13.321,9.312 13.259,9.273 C12.03,8.522 12.03,5.922 12.03,4.943 C12.03,2.207 10.307,0.037 8.098,0.002 C8.092,0.002 8.045,0 8.035,0 C8.035,0 8.035,0 8.035,0 C5.795,0.014 3.971,2.186 3.971,4.842 C3.971,5.82 3.971,8.42 2.742,9.172 C2.677,9.212 2.636,9.284 2.629,9.362 C2.624,9.443 2.655,9.519 2.714,9.568 C2.776,9.619 4.141,11.05 5.821,10.711 C5.596,11.371 5.108,12.235 4.363,12.582 C4.255,12.633 4.04,12.687 3.792,12.752 C2.655,13.042 0.538,13.58 0.007,15.696 C-0.024,15.824 0.047,15.955 0.166,15.99 z" fill="#000000"/>
  </g>
</svg>
