<?xml version="1.0" encoding="UTF-8"?>
<!DOCTYPE svg PUBLIC "-//W3C//DTD SVG 1.1//EN" "http://www.w3.org/Graphics/SVG/1.1/DTD/svg11.dtd">
<svg version="1.1" xmlns="http://www.w3.org/2000/svg" xmlns:xlink="http://www.w3.org/1999/xlink" x="0" y="0" width="16" height="16" viewBox="0, 0, 16, 16">
  <g id="Background">
    <rect x="0" y="0" width="16" height="16" fill="#000000" fill-opacity="0"/>
  </g>
  <g id="Background"/>
  <g id="Layer_1">
    <path d="M8.093,-0 C9.54,0 10.608,0.387 11.268,1.152 C12.027,2.031 11.961,3.096 11.942,3.285 L11.942,4.982 C12.146,5.222 12.26,5.528 12.26,5.843 L12.26,7.132 C12.26,7.651 11.967,8.109 11.513,8.328 C11.284,9.002 10.969,9.628 10.577,10.191 C10.5,10.301 10.426,10.4 10.356,10.488 L10.356,11.564 C10.404,11.92 10.347,11.724 10.593,12.128 L10.787,12.282 L10.797,12.288 L12.204,13.003 L12.233,13.009 C13.363,13.256 15.464,13.719 15.992,15.713 C16.024,15.834 15.952,15.959 15.833,15.992 C15.814,15.997 15.794,16 15.774,16 L0.165,15.99 C0.046,15.957 -0.024,15.833 0.007,15.712 C0.537,13.704 2.655,13.193 3.791,12.918 L3.959,12.876 L5.097,12.245 L5.205,12.165 L5.3,12.065 C5.521,11.687 5.468,11.871 5.513,11.533 L5.513,10.481 C5.292,10.185 4.695,9.312 4.405,8.158 C4.102,7.906 3.925,7.532 3.925,7.132 L3.925,5.843 C3.925,5.528 4.04,5.222 4.243,4.981 L4.243,3.284 C4.224,3.096 4.159,2.031 4.917,1.152 C5.577,0.387 6.646,0 8.093,0 z" fill="#000000"/>
  </g>
</svg>
