<?xml version="1.0" encoding="UTF-8"?>
<!DOCTYPE svg PUBLIC "-//W3C//DTD SVG 1.1//EN" "http://www.w3.org/Graphics/SVG/1.1/DTD/svg11.dtd">
<svg version="1.1" xmlns="http://www.w3.org/2000/svg" xmlns:xlink="http://www.w3.org/1999/xlink" x="0" y="0" width="16" height="16" viewBox="0, 0, 16, 16">
  <g id="Background">
    <rect x="0" y="0" width="16" height="16" fill="#000000" fill-opacity="0"/>
  </g>
  <g id="Layer_1">
    <path d="M8.857,2.286 Q9.92,2.286 10.674,3.04 Q11.429,3.795 11.429,4.857 L11.429,6.33 L15.027,2.741 Q15.188,2.571 15.429,2.571 Q15.536,2.571 15.652,2.616 Q16,2.768 16,3.143 L16,9.058 C14.992,7.673 13.633,7.164 12,7 C9.239,7 7,9.239 7,12 C7.127,13.262 6.971,12.696 7.399,13.714 L2.571,13.714 Q1.509,13.714 0.754,12.96 Q0,12.205 0,11.143 L0,4.857 Q0,3.795 0.754,3.04 Q1.509,2.286 2.571,2.286 L8.857,2.286 z" fill="#000000"/>
    <path d="M9.172,9.172 C10.734,7.609 13.267,7.609 14.828,9.172 C16.391,10.734 16.391,13.267 14.828,14.828 C13.267,16.391 10.734,16.391 9.172,14.828 C7.609,13.267 7.609,10.734 9.172,9.172 z M11.571,9 L11.571,11.571 L9,11.571 L9,12.429 L11.571,12.429 L11.571,15 L12.429,15 L12.429,12.429 L15,12.429 L15,11.571 L12.429,11.571 L12.429,9 L11.571,9 z" fill="#000000"/>
  </g>
</svg>
