<?xml version="1.0" encoding="UTF-8"?>
<!DOCTYPE svg PUBLIC "-//W3C//DTD SVG 1.1//EN" "http://www.w3.org/Graphics/SVG/1.1/DTD/svg11.dtd">
<svg version="1.1" xmlns="http://www.w3.org/2000/svg" xmlns:xlink="http://www.w3.org/1999/xlink" x="0" y="0" width="16" height="16" viewBox="0, 0, 16, 16">
  <g id="Background">
    <rect x="0" y="0" width="16" height="16" fill="#000000" fill-opacity="0"/>
  </g>
  <g id="Layer_1">
    <path d="M16,3.143 L16,12.857 Q16,13.232 15.652,13.384 Q15.536,13.429 15.429,13.429 Q15.188,13.429 15.027,13.259 L11.429,9.661 L11.429,11.143 Q11.429,12.205 10.674,12.96 Q9.92,13.714 8.857,13.714 L2.571,13.714 Q1.509,13.714 0.754,12.96 Q-0,12.205 -0,11.143 L-0,4.857 Q-0,3.795 0.754,3.04 Q1.509,2.286 2.571,2.286 L8.857,2.286 Q9.92,2.286 10.674,3.04 Q11.429,3.795 11.429,4.857 L11.429,6.33 L15.027,2.741 Q15.188,2.571 15.429,2.571 Q15.536,2.571 15.652,2.616 Q16,2.768 16,3.143 z" fill="#000000"/>
  </g>
</svg>
