<?xml version="1.0" encoding="UTF-8"?>
<!DOCTYPE svg PUBLIC "-//W3C//DTD SVG 1.1//EN" "http://www.w3.org/Graphics/SVG/1.1/DTD/svg11.dtd">
<svg version="1.1" xmlns="http://www.w3.org/2000/svg" xmlns:xlink="http://www.w3.org/1999/xlink" x="0" y="0" width="16" height="16" viewBox="0, 0, 16, 16">
  <g id="Background">
    <rect x="0" y="0" width="16" height="16" fill="#000000" fill-opacity="0"/>
  </g>
  <g id="Background"/>
  <g id="Layer_1">
    <path d="M8,-0 Q10.177,-0 12.016,1.073 Q13.854,2.146 14.927,3.984 Q16,5.823 16,8 Q16,10.177 14.927,12.016 Q13.854,13.854 12.016,14.927 Q10.177,16 8,16 Q5.823,16 3.984,14.927 Q2.146,13.854 1.073,12.016 Q-0,10.177 -0,8 Q-0,5.823 1.073,3.984 Q2.146,2.146 3.984,1.073 Q5.823,-0 8,-0 z M9.333,12.99 L9.333,11.01 Q9.333,10.865 9.24,10.766 Q9.146,10.667 9.01,10.667 L7.01,10.667 Q6.875,10.667 6.771,10.771 Q6.667,10.875 6.667,11.01 L6.667,12.99 Q6.667,13.125 6.771,13.229 Q6.875,13.333 7.01,13.333 L9.01,13.333 Q9.146,13.333 9.24,13.234 Q9.333,13.135 9.333,12.99 z M9.312,9.406 L9.5,2.937 Q9.5,2.812 9.396,2.75 Q9.292,2.667 9.146,2.667 L6.854,2.667 Q6.708,2.667 6.604,2.75 Q6.5,2.812 6.5,2.937 L6.677,9.406 Q6.677,9.51 6.781,9.589 Q6.885,9.667 7.031,9.667 L8.958,9.667 Q9.104,9.667 9.203,9.589 Q9.302,9.51 9.312,9.406 z" fill="#000000"/>
  </g>
</svg>
