<?xml version="1.0" encoding="UTF-8"?>
<!DOCTYPE svg PUBLIC "-//W3C//DTD SVG 1.1//EN" "http://www.w3.org/Graphics/SVG/1.1/DTD/svg11.dtd">
<svg version="1.1" xmlns="http://www.w3.org/2000/svg" xmlns:xlink="http://www.w3.org/1999/xlink" x="0" y="0" width="32" height="14" viewBox="0, 0, 32, 14">
  <g id="Background">
    <rect x="0" y="0" width="32" height="14" fill="#FFFFFF"/>
  </g>
  <g id="Layer_1">
    <g>
      <path d="M21,9 Q21,9.254 20.814,9.439 L16.439,13.814 Q16.254,14 16,14 Q15.746,14 15.561,13.814 L11.186,9.439 Q11,9.254 11,9 Q11,8.746 11.186,8.561 Q11.371,8.375 11.625,8.375 L20.375,8.375 Q20.629,8.375 20.814,8.561 Q21,8.746 21,9 z" fill="#A5A5A5"/>
      <path d="M21,5 Q21,5.254 20.814,5.439 Q20.629,5.625 20.375,5.625 L11.625,5.625 Q11.371,5.625 11.186,5.439 Q11,5.254 11,5 Q11,4.746 11.186,4.561 L15.561,0.186 Q15.746,0 16,0 Q16.254,0 16.439,0.186 L20.814,4.561 Q21,4.746 21,5 z" fill="#A5A5A5"/>
    </g>
  </g>
</svg>
