<?xml version="1.0" encoding="UTF-8"?>
<!DOCTYPE svg PUBLIC "-//W3C//DTD SVG 1.1//EN" "http://www.w3.org/Graphics/SVG/1.1/DTD/svg11.dtd">
<svg version="1.1" xmlns="http://www.w3.org/2000/svg" xmlns:xlink="http://www.w3.org/1999/xlink" x="0" y="0" width="18" height="18" viewBox="0, 0, 18, 18">
  <g id="Layer_3" transform="translate(-2895, -742.147)">
    <g>
      <path d="M2897.7,742.147 L2910.3,742.147 C2911.791,742.147 2913,743.355 2913,744.847 L2913,757.447 C2913,758.938 2911.791,760.147 2910.3,760.147 L2897.7,760.147 C2896.209,760.147 2895,758.938 2895,757.447 L2895,744.847 C2895,743.355 2896.209,742.147 2897.7,742.147 z" fill="#FFFFFF"/>
      <path d="M2910.3,742.147 C2911.791,742.147 2913,743.355 2913,744.847 L2913,757.447 C2913,758.938 2911.791,760.147 2910.3,760.147 L2897.7,760.147 C2896.209,760.147 2895,758.938 2895,757.447 L2895,744.847 C2895,743.355 2896.209,742.147 2897.7,742.147 L2910.3,742.147 z M2910.3,743.147 L2897.7,743.147 C2896.761,743.147 2896,743.908 2896,744.847 L2896,757.447 C2896,758.385 2896.761,759.147 2897.7,759.147 L2910.3,759.147 C2911.239,759.147 2912,758.385 2912,757.447 L2912,744.847 C2912,743.908 2911.239,743.147 2910.3,743.147 z" fill="#B1B2B2"/>
    </g>
    <path d="M2911.2,747.784 Q2911.2,748.155 2910.94,748.415 L2904.214,755.141 L2902.95,756.405 Q2902.69,756.665 2902.318,756.665 Q2901.947,756.665 2901.687,756.405 L2900.423,755.141 L2897.06,751.778 Q2896.8,751.518 2896.8,751.147 Q2896.8,750.775 2897.06,750.515 L2898.324,749.251 Q2898.584,748.991 2898.955,748.991 Q2899.327,748.991 2899.587,749.251 L2902.318,751.992 L2908.413,745.888 Q2908.673,745.628 2909.045,745.628 Q2909.416,745.628 2909.676,745.888 L2910.94,747.152 Q2911.2,747.412 2911.2,747.784 z" fill="#7DB27D"/>
  </g>
</svg>
