<?xml version="1.0" encoding="UTF-8"?>
<!DOCTYPE svg PUBLIC "-//W3C//DTD SVG 1.1//EN" "http://www.w3.org/Graphics/SVG/1.1/DTD/svg11.dtd">
<svg version="1.1" xmlns="http://www.w3.org/2000/svg" xmlns:xlink="http://www.w3.org/1999/xlink" x="0" y="0" width="18" height="18" viewBox="0, 0, 18, 18">
  <g id="Background">
    <rect x="0" y="0" width="18" height="18" fill="#000000" fill-opacity="0"/>
  </g>
  <g id="Layer_3">
    <path d="M15.3,0 C16.791,0 18,1.208 18,2.7 L18,15.3 C18,16.791 16.791,18 15.3,18 L2.7,18 C1.209,18 0,16.791 0,15.3 L0,2.7 C0,1.208 1.209,0 2.7,0 L15.3,0 z" fill="#F2F2F2"/>
    <path d="M15.3,0 C16.791,0 18,1.208 18,2.7 L18,15.3 C18,16.791 16.791,18 15.3,18 L2.7,18 C1.209,18 0,16.791 0,15.3 L0,2.7 C0,1.208 1.209,0 2.7,0 L15.3,0 z M15.3,1 L2.7,1 C1.761,1 1,1.761 1,2.7 L1,15.3 C1,16.238 1.761,17 2.7,17 L15.3,17 C16.239,17 17,16.238 17,15.3 L17,2.7 C17,1.761 16.239,1 15.3,1 z" fill="#B1B2B2"/>
  </g>
</svg>
