<?xml version="1.0" encoding="UTF-8"?>
<!DOCTYPE svg PUBLIC "-//W3C//DTD SVG 1.1//EN" "http://www.w3.org/Graphics/SVG/1.1/DTD/svg11.dtd">
<svg version="1.1" xmlns="http://www.w3.org/2000/svg" xmlns:xlink="http://www.w3.org/1999/xlink" x="0" y="0" width="18" height="18" viewBox="0, 0, 18, 18">
  <g id="Background">
    <rect x="0" y="0" width="18" height="18" fill="#000000" fill-opacity="0"/>
  </g>
  <g id="Layer_3">
    <g>
      <path d="M2.7,0 L15.3,0 C16.791,0 18,1.208 18,2.7 L18,15.3 C18,16.791 16.791,18 15.3,18 L2.7,18 C1.209,18 0,16.791 0,15.3 L0,2.7 C0,1.208 1.209,0 2.7,0 z" fill="#FFFFFF"/>
      <path d="M15.3,0 C16.791,0 18,1.208 18,2.7 L18,15.3 C18,16.791 16.791,18 15.3,18 L2.7,18 C1.209,18 0,16.791 0,15.3 L0,2.7 C0,1.208 1.209,0 2.7,0 L15.3,0 z M15.3,1 L2.7,1 C1.761,1 1,1.761 1,2.7 L1,15.3 C1,16.238 1.761,17 2.7,17 L15.3,17 C16.239,17 17,16.238 17,15.3 L17,2.7 C17,1.761 16.239,1 15.3,1 z" fill="#B1B2B2"/>
    </g>
    <path d="M16.2,5.637 Q16.2,6.008 15.94,6.268 L9.214,12.994 L7.95,14.258 Q7.69,14.518 7.318,14.518 Q6.947,14.518 6.687,14.258 L5.423,12.994 L2.06,9.631 Q1.8,9.371 1.8,9 Q1.8,8.628 2.06,8.368 L3.324,7.104 Q3.584,6.844 3.955,6.844 Q4.327,6.844 4.587,7.104 L7.318,9.845 L13.413,3.741 Q13.673,3.481 14.045,3.481 Q14.416,3.481 14.676,3.741 L15.94,5.005 Q16.2,5.265 16.2,5.637 z" fill="#6BA6E0"/>
  </g>
</svg>
