<?xml version="1.0" encoding="UTF-8"?>
<!DOCTYPE svg PUBLIC "-//W3C//DTD SVG 1.1//EN" "http://www.w3.org/Graphics/SVG/1.1/DTD/svg11.dtd">
<svg version="1.1" xmlns="http://www.w3.org/2000/svg" xmlns:xlink="http://www.w3.org/1999/xlink" x="0" y="0" width="16" height="16" viewBox="0, 0, 16, 16">
  <g id="Background">
    <rect x="0" y="0" width="16" height="16" fill="#000000" fill-opacity="0"/>
  </g>
  <g id="Layer_2">
    <path d="M1,10.754 L1.149,10.915 C1.528,11.434 1.947,12.253 2.4,13.365 L2.455,13.5 L2.25,13.5 Q1.734,13.5 1.367,13.133 Q1,12.766 1,12.25 L1,10.754 z" fill="#D7D9D9"/>
    <path d="M15,6.047 L15,12.25 Q15,12.766 14.633,13.133 Q14.266,13.5 13.75,13.5 L6.608,13.5 C7.454,11.78 6.911,12.81 8.335,10.462 C8.577,10.434 8.394,10.461 8.867,10.308 Q9.328,10.117 9.605,9.934 Q9.883,9.75 10.328,9.422 Q11.656,8.461 14.219,6.727 Q14.664,6.422 15,6.047 z" fill="#D7D9D9"/>
    <path d="M1,6.047 Q1.344,6.43 1.789,6.727 Q4.617,8.648 5.672,9.422 L5.688,9.434 L4.722,11.002 L4.593,10.694 C3.821,8.888 3.108,7.971 2.343,7.971 C1.457,8.109 1.915,7.961 1,8.505 L1,6.047 z" fill="#D7D9D9"/>
    <path d="M14.282,2.632 L14.629,2.867 Q15,3.234 15,3.75 Q15,4.367 14.617,4.93 Q14.234,5.492 13.664,5.891 Q10.727,7.93 10.008,8.43 Q9.93,8.484 9.676,8.668 Q9.422,8.852 9.254,8.965 L9.237,8.976 C9.818,8.018 9.337,8.797 10.809,6.725 C12.883,4.051 11.738,5.425 14.282,2.632 z" fill="#D7D9D9"/>
    <path d="M11.795,2.5 C10.437,3.64 11.24,2.924 9.461,4.725 C7.492,6.981 8.568,5.69 6.285,8.64 C6.074,8.487 6.171,8.557 5.992,8.43 Q5.281,7.93 3.945,7.004 Q2.609,6.078 2.344,5.891 Q1.859,5.562 1.43,4.988 Q1,4.414 1,3.922 Q1,3.313 1.324,2.906 Q1.648,2.5 2.25,2.5 L11.795,2.5 z" fill="#D7D9D9"/>
    <path d="M15.596,0 L16,0.607 Q13.531,2.563 10.509,6.633 Q7.487,10.703 5.895,14.238 L5.041,14.846 Q3.98,15.623 3.599,16 Q3.449,15.429 2.942,14.129 L2.619,13.339 Q1.927,11.639 1.332,10.825 Q0.738,10.011 0,9.743 Q1.246,8.358 2.284,8.358 Q3.172,8.358 4.257,10.897 L4.614,11.748 Q6.564,8.285 9.621,5.017 Q12.678,1.749 15.596,0 z" fill="#7CB27C"/>
  </g>
</svg>
