<?xml version="1.0" encoding="UTF-8"?>
<!DOCTYPE svg PUBLIC "-//W3C//DTD SVG 1.1//EN" "http://www.w3.org/Graphics/SVG/1.1/DTD/svg11.dtd">
<svg version="1.1" xmlns="http://www.w3.org/2000/svg" xmlns:xlink="http://www.w3.org/1999/xlink" x="0" y="0" width="16" height="16" viewBox="0, 0, 16, 16">
  <g id="Background">
    <rect x="0" y="0" width="16" height="16" fill="#000000" fill-opacity="0"/>
  </g>
  <g id="Background"/>
  <g id="Layer_2">
    <path d="M12.386,4.714 L12.455,5.455 L12.455,7.364 L12.773,7.364 Q13.17,7.364 13.449,7.642 Q13.727,7.92 13.727,8.318 L13.727,14.045 Q13.727,14.443 13.449,14.722 Q13.17,15 12.773,15 L5.279,15 L6.128,14.395 L6.228,14.274 C7.321,11.813 8.8,9.553 10.355,7.364 L10.545,7.364 L10.545,7.096 L10.809,6.725 C12.308,4.793 11.737,5.425 12.386,4.714 z" fill="#D7D9D9"/>
    <path d="M2.273,13.067 L2.4,13.365 L2.723,14.156 C2.977,14.82 2.88,14.55 3.025,14.962 C2.737,14.907 2.906,14.962 2.551,14.722 Q2.273,14.443 2.273,14.045 L2.273,13.067 z" fill="#D7D9D9"/>
    <path d="M8,1 Q9.83,1 11.142,2.312 L11.503,2.745 C10.68,3.436 11.15,3.015 10.127,4.05 C10.127,4.049 10.126,4.048 10.126,4.047 C10.017,3.916 9.908,3.786 9.8,3.655 Q9.054,2.909 8,2.909 Q6.946,2.909 6.2,3.655 Q5.455,4.401 5.455,5.455 L5.455,7.364 L7.273,7.364 C5.353,9.844 6.189,8.62 4.722,11.002 L4.593,10.694 C3.821,8.888 3.108,7.971 2.343,7.971 L2.338,7.972 C2.366,7.828 2.338,7.956 2.551,7.642 Q2.83,7.364 3.227,7.364 L3.545,7.364 L3.545,5.454 Q3.545,3.625 4.858,2.312 Q6.17,1 8,1 z" fill="#D7D9D9"/>
    <path d="M15.596,0 L16,0.607 Q13.531,2.563 10.509,6.633 Q7.487,10.703 5.895,14.238 L5.041,14.846 Q3.98,15.623 3.599,16 Q3.449,15.429 2.942,14.129 L2.619,13.339 Q1.927,11.639 1.332,10.825 Q0.738,10.011 0,9.743 Q1.246,8.358 2.284,8.358 Q3.172,8.358 4.257,10.897 L4.614,11.748 Q6.564,8.285 9.621,5.017 Q12.678,1.749 15.596,0 z" fill="#7CB27C"/>
  </g>
</svg>
