<?xml version="1.0" encoding="UTF-8"?>
<!DOCTYPE svg PUBLIC "-//W3C//DTD SVG 1.1//EN" "http://www.w3.org/Graphics/SVG/1.1/DTD/svg11.dtd">
<svg version="1.1" xmlns="http://www.w3.org/2000/svg" xmlns:xlink="http://www.w3.org/1999/xlink" x="0" y="0" width="20" height="20" viewBox="0, 0, 20, 20">
  <g id="Background">
    <rect x="0" y="0" width="20" height="20" fill="#000000" fill-opacity="0"/>
  </g>
  <g id="Layer_1">
    <g>
      <path d="M10,0 C15.523,0 20,4.477 20,10 C20,15.523 15.523,20 10,20 C4.477,20 0,15.523 0,10 C0,4.477 4.477,0 10,0 z M10,1 C5.03,1 1,5.029 1,10 C1,14.97 5.03,19 10,19 C14.971,19 19,14.97 19,10 C19,5.029 14.971,1 10,1 z" fill="#FFFFFF"/>
    </g>
    <path d="M10,16 C6.686,16 4,13.314 4,10 C4,6.686 6.686,4 10,4 C13.314,4 16,6.686 16,10 C16,13.314 13.314,16 10,16 z" fill="#FFFFFF"/>
  </g>
</svg>
