<?xml version="1.0" encoding="UTF-8"?>
<!DOCTYPE svg PUBLIC "-//W3C//DTD SVG 1.1//EN" "http://www.w3.org/Graphics/SVG/1.1/DTD/svg11.dtd">
<svg version="1.1" xmlns="http://www.w3.org/2000/svg" xmlns:xlink="http://www.w3.org/1999/xlink" x="0" y="0" width="20" height="20" viewBox="0, 0, 20, 20">
  <g id="Layer_1" transform="translate(-2390.788, -780.348)">
    <g>
      <g>
        <path d="M2400.788,800.348 C2395.265,800.348 2390.788,795.871 2390.788,790.348 C2390.788,784.825 2395.265,780.348 2400.788,780.348 C2406.311,780.348 2410.788,784.825 2410.788,790.348 C2410.788,795.871 2406.311,800.348 2400.788,800.348 z" fill="#FFFFFF"/>
        <path d="M2400.788,780.348 C2406.311,780.348 2410.788,784.825 2410.788,790.348 C2410.788,795.871 2406.311,800.348 2400.788,800.348 C2395.265,800.348 2390.788,795.871 2390.788,790.348 C2390.788,784.825 2395.265,780.348 2400.788,780.348 z M2400.788,781.348 C2395.818,781.348 2391.788,785.377 2391.788,790.348 C2391.788,795.318 2395.818,799.348 2400.788,799.348 C2405.759,799.348 2409.788,795.318 2409.788,790.348 C2409.788,785.377 2405.759,781.348 2400.788,781.348 z" fill="#C8C7CC"/>
      </g>
    </g>
    <path d="M2400.788,796.348 C2397.474,796.348 2394.788,793.662 2394.788,790.348 C2394.788,787.034 2397.474,784.348 2400.788,784.348 C2404.102,784.348 2406.788,787.034 2406.788,790.348 C2406.788,793.662 2404.102,796.348 2400.788,796.348 z" fill="#7DB27D"/>
  </g>
</svg>
