<?xml version="1.0" encoding="UTF-8"?>
<!DOCTYPE svg PUBLIC "-//W3C//DTD SVG 1.1//EN" "http://www.w3.org/Graphics/SVG/1.1/DTD/svg11.dtd">
<svg version="1.1" xmlns="http://www.w3.org/2000/svg" xmlns:xlink="http://www.w3.org/1999/xlink" x="0" y="0" width="20" height="20" viewBox="0, 0, 20, 20">
  <g id="Background">
    <rect x="0" y="0" width="20" height="20" fill="#000000" fill-opacity="0"/>
  </g>
  <g id="Layer_1">
    <path d="M14.907,1 L15.106,5.221 L14.602,5.221 Q14.456,4.106 14.204,3.628 Q13.792,2.858 13.108,2.493 Q12.425,2.128 11.31,2.128 L8.774,2.128 L8.774,15.881 Q8.774,17.54 9.133,17.951 Q9.637,18.509 10.686,18.509 L11.31,18.509 L11.31,19 L3.677,19 L3.677,18.509 L4.314,18.509 Q5.456,18.509 5.934,17.819 Q6.226,17.394 6.226,15.881 L6.226,2.128 L4.062,2.128 Q2.801,2.128 2.27,2.314 Q1.58,2.566 1.088,3.283 Q0.597,4 0.504,5.221 L0,5.221 L0.212,1 z" fill="#7DB27D"/>
    <path d="M19,0 L20,0 L20,20 L19,20 L19,0 z" fill="#C8C7CC"/>
  </g>
</svg>
